<svg width="370" height="171" viewBox="0 0 370 171" fill="none" xmlns="http://www.w3.org/2000/svg">
<path d="M0 8C0 3.58172 3.58172 0 8 0H362C366.418 0 370 3.58172 370 8V170H0V8Z" fill="#FBF5E8"/>
<mask id="mask0" mask-type="alpha" maskUnits="userSpaceOnUse" x="0" y="0" width="370" height="171">
<path d="M0 8.00001C0 3.58173 3.58172 0 8 0H362C366.418 0 370 3.58172 370 8V170.043H0V8.00001Z" fill="#FF7373"/>
</mask>
<g mask="url(#mask0)">
<g clip-path="url(#clip0)">
<path d="M112.524 116.038H124.711V151.391H112.524V116.038Z" fill="#F69170"/>
<path d="M89.4456 116.038H101.633V151.391H89.4456V116.038Z" fill="#F69170"/>
<path d="M66.3669 116.038H78.5544V151.391H66.3669V116.038Z" fill="#F69170"/>
<path d="M43.2893 116.038H55.476V151.391H43.2893V116.038Z" fill="#F69170"/>
<path d="M128.774 104.964V101.272H39.2268V104.964C39.2268 107.003 40.5908 108.655 42.2737 108.655H125.727C127.409 108.655 128.774 107.003 128.774 104.964Z" fill="#DEB5B5"/>
<path d="M132.952 158.773H35.0508C33.3679 158.773 32.0039 160.426 32.0039 162.465V172.309C32.0039 174.348 33.3679 176 35.0508 176H132.952C134.635 176 135.999 174.348 135.999 172.309V162.465C135.999 160.426 134.635 158.773 132.952 158.773Z" fill="#DEB5B5"/>
<path d="M35.0479 93.8893H132.954C134.317 93.8893 135.515 92.7924 135.886 91.2034C136.257 89.6144 135.712 87.9196 134.551 87.0544L85.5983 50.5479C84.6192 49.8174 83.3838 49.8174 82.4038 50.5479L33.4507 87.0544C32.2899 87.9205 31.7456 89.6144 32.1169 91.2034C32.4883 92.7924 33.6856 93.8893 35.0479 93.8893ZM81.9301 71.712H86.0728C87.7557 71.712 89.1197 73.3645 89.1197 75.4034C89.1197 77.4423 87.7557 79.0948 86.0728 79.0948H81.9301C80.2472 79.0948 78.8833 77.4423 78.8833 75.4034C78.8833 73.3645 80.2472 71.712 81.9301 71.712Z" fill="#FFD79C"/>
</g>
<path d="M257.652 90L165 183H410V90H257.652Z" fill="#F69170"/>
<path d="M277 108L202.5 182.5H399.5V108H277Z" fill="#FFD79C"/>
</g>
<defs>
<clipPath id="clip0">
<rect width="104" height="126" fill="white" transform="translate(32 50)"/>
</clipPath>
</defs>
</svg>
