<svg width="370" height="171" viewBox="0 0 370 171" fill="none" xmlns="http://www.w3.org/2000/svg">
<path d="M0 8C0 3.58172 3.58172 0 8 0H362C366.418 0 370 3.58172 370 8V170H0V8Z" fill="#FBF5E8"/>
<mask id="mask0" mask-type="alpha" maskUnits="userSpaceOnUse" x="0" y="0" width="370" height="171">
<path d="M0 8.00001C0 3.58173 3.58172 0 8 0H362C366.418 0 370 3.58172 370 8V170.043H0V8.00001Z" fill="#FF7373"/>
</mask>
<g mask="url(#mask0)">
<path d="M36 74C36 69.0294 40.0294 65 45 65H124C128.971 65 133 69.0294 133 74V173H36V74Z" fill="white"/>
<path d="M410.357 -13.6623H388.029L368.437 2.08621L362.538 3.30022L348.675 -7.70832L334.69 7.71072L299.195 -6.17831V-17.4638L289.823 -33.4864L299.266 -59.3669L282.835 -72.7165L260.791 -74.337L247.574 -86L220.658 -70.786L232.909 -53.5434V-43.0124L243.315 -28.9339L239.574 -15.3743L228.414 -3.9708L218.137 -4.96531L205.256 9.08623L212.493 27.4808L197 36.8408L205.54 60.9523L222.896 70.6259L229.658 65.1504L230.296 67.7819V80.6534L253.78 143.512L259.042 167.175L262.39 168.738C263.842 169.415 266.044 170.001 268.63 170.001C272.217 170.001 276.542 168.874 280.627 165.299C285.732 160.833 291.513 147.336 293.164 143.306C300.716 124.863 299.087 119.432 298.552 117.647C298.139 116.222 299.884 111.639 302.069 108.283C305.103 105.331 308.85 102.32 310.193 101.78C315.404 100.083 319.908 93.3954 323.067 87.2539L339.847 79.3574L343.549 71.2134L357.728 59.3329L353.78 39.3103L358.634 38.4628L359.25 46.9853L387.825 70.1314L392.614 45.3138H398.746L404.812 22.1228L424.165 14.2992L410.357 -13.6623Z" fill="#FFD79C"/>
<circle cx="242" cy="109" r="6" fill="#F69170"/>
<circle cx="306.5" cy="107.5" r="4.5" fill="#F69170"/>
<circle cx="272.5" cy="155.5" r="4.5" fill="#F69170"/>
<circle cx="233.5" cy="70.5" r="4.5" fill="#F69170"/>
<circle cx="301.5" cy="53.5" r="4.5" fill="#F69170"/>
<circle cx="263.5" cy="32.5" r="4.5" fill="#F69170"/>
<circle cx="340.5" cy="65.5" r="4.5" fill="#F69170"/>
<circle cx="215.5" cy="36.5" r="4.5" fill="#F69170"/>
<circle cx="308.5" cy="21.5" r="2.5" fill="#F69170"/>
<circle cx="343.5" cy="29.5" r="2.5" fill="#F69170"/>
<path d="M50 89.2371V91.9637H58.4328L51.3454 105.763H54.6609L62.0846 90.7545V89.2371H50Z" fill="#F69170"/>
<path d="M65.5045 105.763H68.4116V102.681H65.5045V105.763Z" fill="#F69170"/>
<path d="M77.8015 106C81.0689 106 84 104.245 84 100.902C84 99.1004 83.1591 97.417 81.165 96.8006C82.5825 96.0418 83.1111 94.8089 83.1111 93.5286C83.1111 90.6834 80.5404 89 77.7535 89C74.8704 89 72.3959 90.802 72.3959 93.9079L75.2308 94.0976C75.2548 92.6039 76.2639 91.7266 77.8015 91.7266C79.1469 91.7266 80.2281 92.4142 80.2281 93.8842C80.2281 95.1646 79.3872 95.9944 77.0567 95.9944V98.2469C78.8586 98.2469 81.117 98.318 81.117 100.594C81.117 102.491 79.5794 103.273 77.8736 103.273C75.9035 103.273 74.438 102.254 74.438 100.381L71.579 100.547C71.579 104.198 74.462 106 77.8015 106Z" fill="#F69170"/>
<rect x="51" y="121" width="66" height="6" rx="3" fill="#FFD79C"/>
<rect x="51" y="137" width="66" height="6" rx="3" fill="#FFD79C"/>
<rect x="51" y="153" width="66" height="6" rx="3" fill="#FFD79C"/>
</g>
</svg>
