<svg width="370" height="171" viewBox="0 0 370 171" fill="none" xmlns="http://www.w3.org/2000/svg">
<path d="M0 8C0 3.58172 3.58172 0 8 0H362C366.418 0 370 3.58172 370 8V170H0V8Z" fill="#FBF5E8"/>
<mask id="mask0" mask-type="alpha" maskUnits="userSpaceOnUse" x="0" y="0" width="370" height="171">
<path d="M0 8.00001C0 3.58173 3.58172 0 8 0H362C366.418 0 370 3.58172 370 8V170.043H0V8.00001Z" fill="#FF7373"/>
</mask>
<g mask="url(#mask0)">
<path d="M288.385 113.468L185.932 15.265L180.239 248.8L288.385 113.468Z" fill="#F69170"/>
<path d="M336.641 104.961L234.188 6.75716L228.495 240.293L336.641 104.961Z" fill="#FFD79C"/>
<path d="M0 90.6045H136.169C140.587 90.6045 144.169 94.1862 144.169 98.6045V171C144.169 175.418 140.587 179 136.169 179H8.00001C3.58173 179 0 175.418 0 171V90.6045Z" fill="#FFD79C"/>
<path fill-rule="evenodd" clip-rule="evenodd" d="M113.78 103.147C113.78 114.119 122.674 123.013 133.645 123.014V159.134C122.674 159.134 113.779 168.029 113.779 179L8 179C3.58173 179 0 175.419 0 171V103.147H113.78Z" fill="white"/>
<circle cx="55.7737" cy="141.116" r="15.7849" fill="#F69170"/>
</g>
</svg>
