<svg width="10" height="10" viewBox="0 0 10 10" fill="none" xmlns="http://www.w3.org/2000/svg">
<g id="Group 2473">
<path id="Vector" d="M4.26611 5.49547C4.44269 5.73153 4.66797 5.92686 4.92667 6.0682C5.18537 6.20954 5.47144 6.29359 5.76548 6.31464C6.05952 6.3357 6.35465 6.29328 6.63085 6.19025C6.90705 6.08721 7.15787 5.92599 7.36628 5.7175L8.59977 4.48401C8.97425 4.09628 9.18146 3.57698 9.17678 3.03795C9.1721 2.49892 8.95589 1.9833 8.57472 1.60213C8.19356 1.22097 7.67794 1.00476 7.13891 1.00008C6.59988 0.995394 6.08058 1.20261 5.69285 1.57709L4.98565 2.28018" stroke="#E42323" stroke-linecap="round" stroke-linejoin="round"/>
<path id="Vector_2" d="M5.91075 4.67306C5.73417 4.437 5.50889 4.24167 5.25019 4.10033C4.99149 3.95899 4.70542 3.87494 4.41138 3.85389C4.11734 3.83283 3.82221 3.87525 3.54601 3.97828C3.2698 4.08131 3.01899 4.24254 2.81058 4.45103L1.57709 5.68452C1.20261 6.07225 0.995394 6.59155 1.00008 7.13058C1.00476 7.66961 1.22097 8.18523 1.60213 8.5664C1.9833 8.94756 2.49892 9.16377 3.03795 9.16845C3.57698 9.17314 4.09628 8.96592 4.48401 8.59144L5.1871 7.88835" stroke="#E42323" stroke-linecap="round" stroke-linejoin="round"/>
</g>
</svg>
