<svg width="26" height="24" viewBox="0 0 26 24" fill="none" xmlns="http://www.w3.org/2000/svg">
<path d="M6.34822 0.300049C2.95747 0.300049 0.299988 1.71737 0.299988 3.52347V20.4575C0.299988 22.2686 2.95747 23.681 6.34822 23.681C9.73897 23.681 12.3964 22.2636 12.3964 20.4575V3.52347C12.3964 1.71737 9.73897 0.300049 6.34822 0.300049ZM11.5894 20.4625C11.5894 21.6288 9.48306 22.8837 6.34822 22.8837C3.21337 22.8837 1.10707 21.6288 1.10707 20.4625V19.6701C2.14054 20.6347 4.07952 21.2695 6.34822 21.2695C8.61692 21.2695 10.5559 20.6347 11.5894 19.6701V20.4625ZM11.5894 18.0412C11.5894 19.2075 9.48306 20.4625 6.34822 20.4625C3.21337 20.4625 1.10707 19.2075 1.10707 18.0412V17.2489C2.14054 18.2134 4.07952 18.8483 6.34822 18.8483C8.61692 18.8483 10.5559 18.2134 11.5894 17.2489V18.0412ZM11.5894 15.6199C11.5894 16.7863 9.48306 18.0412 6.34822 18.0412C3.21337 18.0412 1.10707 16.7912 1.10707 15.6199V14.8276C2.14054 15.7922 4.07952 16.427 6.34822 16.427C8.61692 16.427 10.5559 15.7922 11.5894 14.8276V15.6199ZM11.5894 13.2036C11.5894 14.3699 9.48306 15.6249 6.34822 15.6249C3.21337 15.6249 1.10707 14.3699 1.10707 13.2036V12.4113C2.14054 13.3709 4.07952 14.0107 6.34822 14.0107C8.61692 14.0107 10.5559 13.3758 11.5894 12.4113V13.2036ZM11.5894 10.7823C11.5894 11.9487 9.48306 13.2036 6.34822 13.2036C3.21337 13.2036 1.10707 11.9536 1.10707 10.7823V9.99001C2.14054 10.9546 4.07952 11.5894 6.34822 11.5894C8.61692 11.5894 10.5559 10.9546 11.5894 9.99001V10.7823ZM11.5894 8.36599C11.5894 9.53233 9.48306 10.7873 6.34822 10.7873C3.21337 10.7873 1.10707 9.53233 1.10707 8.36599V7.57367C2.14054 8.53824 4.07952 9.17308 6.34822 9.17308C8.61692 9.17308 10.5559 8.53824 11.5894 7.57367V8.36599ZM11.5894 5.94473C11.5894 7.11107 9.48306 8.36599 6.34822 8.36599C3.21337 8.36599 1.10707 7.11107 1.10707 5.94473V5.15241C2.14054 6.11698 4.07952 6.75182 6.34822 6.75182C8.61692 6.75182 10.5559 6.11698 11.5894 5.15241V5.94473ZM6.34822 5.94473C3.21337 5.94473 1.10707 4.69473 1.10707 3.52347C1.10707 2.35714 3.21337 1.10221 6.34822 1.10221C9.48306 1.10221 11.5894 2.35221 11.5894 3.52347C11.5894 4.69473 9.48306 5.94473 6.34822 5.94473Z" fill="#39B690"/>
<path d="M19.2518 9.97528C15.8611 9.97528 13.2036 11.3926 13.2036 13.1987V20.4576C13.2036 22.2686 15.8611 23.681 19.2518 23.681C22.6426 23.681 25.3001 22.2686 25.3001 20.4625V13.2036C25.3001 11.3926 22.6426 9.97528 19.2518 9.97528ZM24.493 20.4625C24.493 21.6288 22.3867 22.8837 19.2518 22.8837C16.117 22.8837 14.0107 21.6337 14.0107 20.4625V19.6702C15.0442 20.6347 16.9831 21.2696 19.2518 21.2696C21.5205 21.2696 23.4595 20.6347 24.493 19.6702V20.4625ZM24.493 18.0412C24.493 19.2076 22.3867 20.4625 19.2518 20.4625C16.117 20.4625 14.0107 19.2125 14.0107 18.0412V17.2489C15.0442 18.2135 16.9831 18.8483 19.2518 18.8483C21.5205 18.8483 23.4595 18.2135 24.493 17.2489V18.0412ZM24.493 15.62C24.493 16.7863 22.3867 18.0412 19.2518 18.0412C16.117 18.0412 14.0107 16.7912 14.0107 15.62V14.8276C15.0442 15.7922 16.9831 16.427 19.2518 16.427C21.5205 16.427 23.4595 15.7922 24.493 14.8276V15.62ZM19.2518 15.62C16.117 15.62 14.0107 14.37 14.0107 13.1987C14.0107 12.0324 16.117 10.7774 19.2518 10.7774C22.3867 10.7774 24.493 12.0274 24.493 13.1987C24.493 14.37 22.3867 15.62 19.2518 15.62Z" fill="#39B690"/>
<path fill-rule="evenodd" clip-rule="evenodd" d="M1.91146 0.969689C3.05224 0.361574 4.61514 0 6.34823 0C8.08132 0 9.64421 0.361574 10.785 0.969689C11.9156 1.57236 12.6965 2.45838 12.6965 3.52343V20.4575C12.6965 21.5225 11.9156 22.4085 10.785 23.0112C9.64421 23.6193 8.08132 23.9809 6.34823 23.9809C4.61532 23.9809 3.05242 23.6206 1.91158 23.0131C0.780721 22.4109 0 21.5249 0 20.4575V3.52343C0 2.45838 0.780902 1.57236 1.91146 0.969689ZM2.19371 1.49916C1.14784 2.05668 0.6 2.78237 0.6 3.52343V20.4575C0.6 21.2011 1.14802 21.9268 2.19359 22.4835C3.22917 23.035 4.69039 23.3809 6.34823 23.3809C8.00589 23.3809 9.46711 23.0338 10.5028 22.4817C11.5486 21.9242 12.0965 21.1985 12.0965 20.4575V3.52343C12.0965 2.78237 11.5486 2.05668 10.5028 1.49916C9.46711 0.947088 8.00589 0.6 6.34823 0.6C4.69057 0.6 3.22935 0.947088 2.19371 1.49916ZM1.71095 2.8506C1.49664 3.09554 1.40709 3.32527 1.40709 3.52343C1.40709 3.72309 1.49688 3.95346 1.71103 4.19842C1.92507 4.44324 2.2514 4.68767 2.68618 4.90491C3.55509 5.33908 4.81765 5.64469 6.34823 5.64469C7.8788 5.64469 9.14137 5.33908 10.0103 4.90491C10.4451 4.68767 10.7714 4.44324 10.9854 4.19842C11.1996 3.95346 11.2894 3.72309 11.2894 3.52343C11.2894 3.32376 11.1996 3.09339 10.9854 2.84843C10.7714 2.60361 10.4451 2.35918 10.0103 2.14194C9.14137 1.70778 7.8788 1.40217 6.34823 1.40217C4.81785 1.40217 3.5553 1.70893 2.68633 2.14371C2.2515 2.36127 1.92507 2.60589 1.71095 2.8506ZM2.41786 1.60713C3.38574 1.12286 4.74377 0.802165 6.34823 0.802165C7.9525 0.802165 9.3105 1.12156 10.2785 1.60521C10.7621 1.84687 11.1583 2.13456 11.4371 2.45352C11.7159 2.77236 11.8894 3.13746 11.8894 3.52343C11.8894 3.90939 11.7159 4.27449 11.4371 4.59333C11.1583 4.91229 10.7621 5.19998 10.2785 5.44164C9.3105 5.9253 7.9525 6.24469 6.34823 6.24469C4.74396 6.24469 3.38595 5.9253 2.418 5.44164C1.93435 5.19998 1.53818 4.91229 1.25932 4.59333C0.98058 4.27449 0.807087 3.90939 0.807087 3.52343C0.807087 3.13841 0.980823 2.77389 1.2594 2.45551C1.53818 2.13689 1.93426 1.84909 2.41786 1.60713ZM0.807087 4.462L1.31178 4.93305C2.26869 5.82616 4.12085 6.45177 6.34823 6.45177C8.57561 6.45177 10.4278 5.82616 11.3847 4.93305L11.8894 4.462V5.94469C11.8894 6.3297 11.7156 6.69422 11.4371 7.0126C11.1583 7.33122 10.7622 7.61902 10.2786 7.86098C9.31071 8.34525 7.95269 8.66595 6.34823 8.66595C4.74377 8.66595 3.38574 8.34525 2.41786 7.86098C1.93426 7.61902 1.53818 7.33122 1.2594 7.0126C0.980823 6.69422 0.807087 6.3297 0.807087 5.94469V4.462ZM1.40709 5.77376V5.94469C1.40709 6.14284 1.49664 6.37257 1.71095 6.61751C1.92507 6.86222 2.2515 7.10684 2.68633 7.3244C3.5553 7.75918 4.81785 8.06595 6.34823 8.06595C7.87861 8.06595 9.14116 7.75918 10.0101 7.3244C10.445 7.10684 10.7714 6.86222 10.9855 6.61751C11.1998 6.37257 11.2894 6.14284 11.2894 5.94469V5.77376C10.1251 6.57168 8.34261 7.05177 6.34823 7.05177C4.35384 7.05177 2.57132 6.57168 1.40709 5.77376ZM0.807087 6.88326L1.31178 7.35431C2.26869 8.24742 4.12085 8.87303 6.34823 8.87303C8.57561 8.87303 10.4278 8.24742 11.3847 7.35431L11.8894 6.88326V8.36595C11.8894 8.75096 11.7156 9.11548 11.4371 9.43386C11.1583 9.75248 10.7622 10.0403 10.2786 10.2822C9.31071 10.7665 7.95269 11.0872 6.34823 11.0872C4.74377 11.0872 3.38574 10.7665 2.41786 10.2822C1.93426 10.0403 1.53818 9.75248 1.2594 9.43386C0.980823 9.11548 0.807087 8.75096 0.807087 8.36595V6.88326ZM1.40709 8.19502V8.36595C1.40709 8.5641 1.49664 8.79383 1.71095 9.03877C1.92507 9.28348 2.2515 9.5281 2.68633 9.74566C3.5553 10.1804 4.81785 10.4872 6.34823 10.4872C7.87861 10.4872 9.14116 10.1804 10.0101 9.74566C10.445 9.5281 10.7714 9.28348 10.9855 9.03877C11.1998 8.79383 11.2894 8.5641 11.2894 8.36595V8.19502C10.1251 8.99294 8.34261 9.47303 6.34823 9.47303C4.35384 9.47303 2.57132 8.99294 1.40709 8.19502ZM0.807087 9.2996L1.31178 9.77065C2.26869 10.6638 4.12085 11.2894 6.34823 11.2894C8.57561 11.2894 10.4278 10.6638 11.3847 9.77065L11.8894 9.2996V10.7823C11.8894 11.1673 11.7156 11.5318 11.4371 11.8502C11.1583 12.1688 10.7622 12.4566 10.2786 12.6986C9.31071 13.1829 7.95269 13.5035 6.34823 13.5035C4.74396 13.5035 3.38595 13.1842 2.418 12.7005C1.93435 12.4588 1.53818 12.1712 1.25932 11.8522C0.98058 11.5334 0.807087 11.1683 0.807087 10.7823V9.2996ZM14.8151 10.6449C15.9559 10.0368 17.5188 9.67523 19.2519 9.67523C20.9849 9.67523 22.5479 10.0368 23.6887 10.6456C24.8196 11.249 25.6001 12.1364 25.6001 13.2036V20.4624C25.6001 21.5276 24.819 22.4124 23.6884 23.0138C22.5476 23.6207 20.9848 23.9809 19.2519 23.9809C17.5189 23.9809 15.956 23.6207 14.8152 23.0132C13.6843 22.411 12.9036 21.5249 12.9036 20.4575V13.1987C12.9036 12.1336 13.6845 11.2476 14.8151 10.6449ZM15.0973 11.1744C14.0515 11.7319 13.5036 12.4576 13.5036 13.1987V20.4575C13.5036 21.2012 14.0516 21.9268 15.0972 22.4836C16.1328 23.035 17.594 23.3809 19.2519 23.3809C20.9097 23.3809 22.371 23.035 23.4066 22.4841C24.4524 21.9278 25.0001 21.2033 25.0001 20.4624V13.2036C25.0001 12.4598 24.4519 11.7329 23.4063 11.1749C22.3707 10.6223 20.9095 10.2752 19.2519 10.2752C17.5942 10.2752 16.133 10.6223 15.0973 11.1744ZM1.40709 10.6114V10.7823C1.40709 10.9819 1.49688 11.2123 1.71103 11.4573C1.92507 11.7021 2.2514 11.9465 2.68618 12.1638C3.55509 12.5979 4.81765 12.9035 6.34823 12.9035C7.87861 12.9035 9.14116 12.5968 10.0101 12.162C10.445 11.9444 10.7714 11.6998 10.9855 11.4551C11.1998 11.2102 11.2894 10.9804 11.2894 10.7823V10.6114C10.1251 11.4093 8.34261 11.8894 6.34823 11.8894C4.35384 11.8894 2.57132 11.4093 1.40709 10.6114ZM14.6146 12.5258C14.4003 12.7708 14.3107 13.0005 14.3107 13.1987C14.3107 13.3983 14.4005 13.6287 14.6147 13.8736C14.8287 14.1185 15.155 14.3629 15.5898 14.5801C16.4587 15.0143 17.7213 15.3199 19.2519 15.3199C20.7824 15.3199 22.045 15.0143 22.9139 14.5801C23.3487 14.3629 23.675 14.1185 23.889 13.8736C24.1032 13.6287 24.193 13.3983 24.193 13.1987C24.193 12.999 24.1032 12.7686 23.889 12.5237C23.675 12.2788 23.3487 12.0344 22.9139 11.8172C22.045 11.383 20.7824 11.0774 19.2519 11.0774C17.7215 11.0774 16.4589 11.3842 15.5899 11.8189C15.1551 12.0365 14.8287 12.2811 14.6146 12.5258ZM15.3215 11.2824C16.2894 10.7981 17.6474 10.4774 19.2519 10.4774C20.8561 10.4774 22.2141 10.7968 23.1821 11.2804C23.6657 11.5221 24.0619 11.8098 24.3408 12.1288C24.6195 12.4476 24.793 12.8127 24.793 13.1987C24.793 13.5846 24.6195 13.9497 24.3408 14.2686C24.0619 14.5875 23.6657 14.8752 23.1821 15.1169C22.2141 15.6005 20.8561 15.9199 19.2519 15.9199C17.6476 15.9199 16.2896 15.6005 15.3216 15.1169C14.838 14.8752 14.4418 14.5875 14.1629 14.2686C13.8842 13.9497 13.7107 13.5846 13.7107 13.1987C13.7107 12.8136 13.8844 12.4491 14.163 12.1307C14.4418 11.8121 14.8379 11.5243 15.3215 11.2824ZM11.8894 11.7209V13.2035C11.8894 13.5886 11.7156 13.9531 11.4371 14.2715C11.1583 14.5901 10.7622 14.8779 10.2786 15.1198C9.31071 15.6041 7.95269 15.9248 6.34823 15.9248C4.74377 15.9248 3.38574 15.6041 2.41786 15.1198C1.93426 14.8779 1.53818 14.5901 1.2594 14.2715C0.980823 13.9531 0.807087 13.5886 0.807087 13.2035V11.7233L1.31122 12.1914C2.26865 13.0804 4.12156 13.7106 6.34823 13.7106C8.57561 13.7106 10.4278 13.085 11.3847 12.1919L11.8894 11.7209ZM1.40709 13.0311V13.2035C1.40709 13.4017 1.49664 13.6314 1.71095 13.8764C1.92507 14.1211 2.2515 14.3657 2.68633 14.5833C3.5553 15.018 4.81785 15.3248 6.34823 15.3248C7.87861 15.3248 9.14116 15.018 10.0101 14.5833C10.445 14.3657 10.7714 14.1211 10.9855 13.8764C11.1998 13.6314 11.2894 13.4017 11.2894 13.2035V13.0326C10.1251 13.8305 8.34261 14.3106 6.34823 14.3106C4.35304 14.3106 2.57084 13.8265 1.40709 13.0311ZM0.807087 14.1372L1.31178 14.6082C2.26869 15.5014 4.12085 16.127 6.34823 16.127C8.57561 16.127 10.4278 15.5014 11.3847 14.6082L11.8894 14.1372V15.6199C11.8894 16.0049 11.7156 16.3694 11.4371 16.6878C11.1583 17.0064 10.7622 17.2942 10.2786 17.5362C9.31071 18.0204 7.95269 18.3411 6.34823 18.3411C4.74396 18.3411 3.38595 18.0218 2.418 17.5381C1.93435 17.2964 1.53818 17.0088 1.25932 16.6898C0.98058 16.371 0.807087 16.0058 0.807087 15.6199V14.1372ZM13.7107 14.1372L14.2154 14.6083C15.1723 15.5014 17.0245 16.127 19.2519 16.127C21.4792 16.127 23.3314 15.5014 24.2883 14.6083L24.793 14.1372V15.6199C24.793 16.0049 24.6193 16.3694 24.3407 16.6878C24.0619 17.0065 23.6658 17.2943 23.1822 17.5362C22.2143 18.0205 20.8563 18.3412 19.2519 18.3412C17.6476 18.3412 16.2896 18.0218 15.3216 17.5381C14.838 17.2965 14.4418 17.0088 14.1629 16.6898C13.8842 16.371 13.7107 16.0059 13.7107 15.6199V14.1372ZM1.40709 15.449V15.6199C1.40709 15.8195 1.49688 16.0499 1.71103 16.2949C1.92507 16.5397 2.2514 16.7841 2.68618 17.0014C3.55509 17.4355 4.81765 17.7411 6.34823 17.7411C7.87861 17.7411 9.14116 17.4344 10.0101 16.9996C10.445 16.782 10.7714 16.5374 10.9855 16.2927C11.1998 16.0478 11.2894 15.818 11.2894 15.6199V15.449C10.1251 16.2469 8.34261 16.727 6.34823 16.727C4.35384 16.727 2.57132 16.2469 1.40709 15.449ZM14.3107 15.449V15.6199C14.3107 15.8196 14.4005 16.0499 14.6147 16.2949C14.8287 16.5397 15.155 16.7842 15.5898 17.0014C16.4587 17.4356 17.7213 17.7412 19.2519 17.7412C20.7822 17.7412 22.0448 17.4344 22.9137 16.9996C23.3486 16.7821 23.675 16.5374 23.8891 16.2927C24.1034 16.0478 24.193 15.8181 24.193 15.6199V15.449C23.0288 16.2469 21.2462 16.727 19.2519 16.727C17.2575 16.727 15.4749 16.2469 14.3107 15.449ZM0.807087 16.5585L1.31178 17.0295C2.26869 17.9226 4.12085 18.5482 6.34823 18.5482C8.57561 18.5482 10.4278 17.9226 11.3847 17.0295L11.8894 16.5585V18.0411C11.8894 18.4262 11.7156 18.7907 11.4371 19.1091C11.1583 19.4277 10.7622 19.7155 10.2786 19.9574C9.31071 20.4417 7.95269 20.7624 6.34823 20.7624C4.74377 20.7624 3.38574 20.4417 2.41786 19.9574C1.93426 19.7155 1.53818 19.4277 1.2594 19.1091C0.980823 18.7907 0.807087 18.4262 0.807087 18.0411V16.5585ZM13.7107 16.5585L14.2154 17.0295C15.1723 17.9227 17.0245 18.5483 19.2519 18.5483C21.4792 18.5483 23.3314 17.9227 24.2883 17.0295L24.793 16.5585V18.0412C24.793 18.4262 24.6193 18.7907 24.3407 19.1091C24.0619 19.4277 23.6658 19.7155 23.1822 19.9575C22.2143 20.4417 20.8563 20.7624 19.2519 20.7624C17.6476 20.7624 16.2896 20.443 15.3216 19.9594C14.838 19.7177 14.4418 19.43 14.1629 19.1111C13.8842 18.7922 13.7107 18.4271 13.7107 18.0412V16.5585ZM1.40709 17.8702V18.0411C1.40709 18.2393 1.49664 18.469 1.71095 18.714C1.92507 18.9587 2.2515 19.2033 2.68633 19.4209C3.5553 19.8556 4.81785 20.1624 6.34823 20.1624C7.87861 20.1624 9.14116 19.8556 10.0101 19.4209C10.445 19.2033 10.7714 18.9587 10.9855 18.714C11.1998 18.469 11.2894 18.2393 11.2894 18.0411V17.8702C10.1251 18.6681 8.34261 19.1482 6.34823 19.1482C4.35384 19.1482 2.57132 18.6681 1.40709 17.8702ZM14.3107 17.8703V18.0412C14.3107 18.2408 14.4005 18.4712 14.6147 18.7162C14.8287 18.961 15.155 19.2054 15.5898 19.4227C16.4587 19.8568 17.7213 20.1624 19.2519 20.1624C20.7822 20.1624 22.0448 19.8557 22.9137 19.4209C23.3486 19.2033 23.675 18.9587 23.8891 18.714C24.1034 18.4691 24.193 18.2393 24.193 18.0412V17.8703C23.0288 18.6682 21.2462 19.1483 19.2519 19.1483C17.2575 19.1483 15.4749 18.6682 14.3107 17.8703ZM0.807087 18.9797L1.31178 19.4508C2.26869 20.3439 4.12085 20.9695 6.34823 20.9695C8.57561 20.9695 10.4278 20.3439 11.3847 19.4508L11.8894 18.9797V20.4624C11.8894 20.8474 11.7156 21.2119 11.4371 21.5303C11.1583 21.8489 10.7622 22.1367 10.2786 22.3787C9.31071 22.863 7.95269 23.1837 6.34823 23.1837C4.74377 23.1837 3.38574 22.863 2.41786 22.3787C1.93426 22.1367 1.53818 21.8489 1.2594 21.5303C0.980823 21.2119 0.807087 20.8474 0.807087 20.4624V18.9797ZM13.7107 18.9797L14.2154 19.4508C15.1723 20.3439 17.0245 20.9695 19.2519 20.9695C21.4792 20.9695 23.3314 20.3439 24.2883 19.4508L24.793 18.9797V20.4624C24.793 20.8474 24.6193 21.212 24.3407 21.5304C24.0619 21.849 23.6658 22.1368 23.1822 22.3787C22.2143 22.863 20.8563 23.1837 19.2519 23.1837C17.6476 23.1837 16.2896 22.8643 15.3216 22.3806C14.838 22.139 14.4418 21.8513 14.1629 21.5323C13.8842 21.2135 13.7107 20.8484 13.7107 20.4624V18.9797ZM1.40709 20.2915V20.4624C1.40709 20.6606 1.49664 20.8903 1.71095 21.1352C1.92507 21.3799 2.2515 21.6246 2.68633 21.8421C3.5553 22.2769 4.81785 22.5837 6.34823 22.5837C7.87861 22.5837 9.14116 22.2769 10.0101 21.8421C10.445 21.6246 10.7714 21.3799 10.9855 21.1352C11.1998 20.8903 11.2894 20.6606 11.2894 20.4624V20.2915C10.1251 21.0894 8.34261 21.5695 6.34823 21.5695C4.35384 21.5695 2.57132 21.0894 1.40709 20.2915ZM14.3107 20.2915V20.4624C14.3107 20.6621 14.4005 20.8925 14.6147 21.1374C14.8287 21.3822 15.155 21.6267 15.5898 21.8439C16.4587 22.2781 17.7213 22.5837 19.2519 22.5837C20.7822 22.5837 22.0448 22.2769 22.9137 21.8421C23.3486 21.6246 23.675 21.38 23.8891 21.1353C24.1034 20.8903 24.193 20.6606 24.193 20.4624V20.2915C23.0288 21.0894 21.2462 21.5695 19.2519 21.5695C17.2575 21.5695 15.4749 21.0894 14.3107 20.2915Z" fill="#39B690"/>
</svg>
