<svg width="37" height="26" viewBox="0 0 37 26" fill="none" xmlns="http://www.w3.org/2000/svg">
<rect width="37" height="26" rx="4" fill="#E6EBF5"/>
<g clip-path="url(#clip0)">
<path d="M20.8092 13.4151C19.981 14.1255 19.0423 14.9307 17.2267 14.9307C15.411 14.9306 14.4722 14.1255 13.644 13.4151C12.8608 12.7433 12.1844 12.1631 10.7735 12.1631C9.36258 12.1631 8.68615 12.7433 7.90294 13.4151C7.67366 13.6117 7.32842 13.5853 7.13179 13.3561C6.93516 13.1268 6.96158 12.7816 7.19085 12.5849C8.01907 11.8746 8.95778 11.0694 10.7735 11.0694C12.5892 11.0694 13.5279 11.8745 14.3561 12.5849C15.1394 13.2567 15.8158 13.8369 17.2267 13.8369C18.6375 13.8369 19.3139 13.2567 20.097 12.5849C20.3263 12.3883 20.6715 12.4147 20.8682 12.644C21.0649 12.8732 21.0384 13.2185 20.8092 13.4151Z" fill="#777777"/>
<path d="M20.8092 10.4239C19.981 11.1343 19.0423 11.9394 17.2267 11.9394C15.411 11.9394 14.4722 11.1343 13.644 10.4239C12.8608 9.75208 12.1844 9.17187 10.7735 9.17187C9.36263 9.17187 8.6862 9.75205 7.90294 10.4239C7.67366 10.6205 7.32845 10.5941 7.13182 10.3648C6.93516 10.1355 6.96166 9.79023 7.19091 9.59362C8.01912 8.88323 8.95783 8.07812 10.7735 8.07812C12.5892 8.07812 13.5279 8.88329 14.3561 9.59368C15.1394 10.2655 15.8158 10.8457 17.2267 10.8457C18.6375 10.8457 19.3139 10.2655 20.097 9.59368C20.3263 9.39702 20.6716 9.42344 20.8682 9.65271C21.0649 9.88196 21.0384 10.2272 20.8092 10.4239Z" fill="#777777"/>
<path d="M7.19088 15.5761C8.01909 14.8658 8.9578 14.0606 10.7735 14.0606C12.5892 14.0606 13.5279 14.8657 14.3561 15.5761C15.1394 16.2479 15.8158 16.8281 17.2267 16.8281C18.6375 16.8281 19.3139 16.2479 20.097 15.5762L20.0971 15.5761C20.3263 15.3796 20.6716 15.406 20.8682 15.6352C21.0648 15.8644 21.0384 16.2097 20.8092 16.4063C19.981 17.1167 19.0423 17.9219 17.2267 17.9219C15.411 17.9219 14.4723 17.1167 13.6441 16.4063C12.8608 15.7345 12.1844 15.1543 10.7735 15.1543C9.3626 15.1543 8.68617 15.7345 7.90296 16.4063C7.67369 16.6029 7.32844 16.5765 7.13181 16.3473C6.93518 16.118 6.9616 15.7728 7.19088 15.5761Z" fill="#777777"/>
</g>
<path d="M26 12.5L28.5 15L31 12.5" stroke="#777777"/>
<defs>
<clipPath id="clip0">
<rect width="14" height="14" fill="white" transform="matrix(-1 0 0 1 21 6)"/>
</clipPath>
</defs>
</svg>
