<svg width="48" height="54" viewBox="0 0 48 54" fill="none" xmlns="http://www.w3.org/2000/svg">
<mask id="mask0" mask-type="alpha" maskUnits="userSpaceOnUse" x="0" y="0" width="48" height="48">
<rect x="0.5" y="0.5" width="47" height="47" rx="7.5" fill="white" stroke="#F4F4F4"/>
</mask>
<g mask="url(#mask0)">
<path d="M13.4713 22.5757L13.3765 20.6934L24.634 18.1866C28.111 17.7091 31.9951 21.0913 32.3257 24.5897C32.693 28.4738 32.9868 33.2333 32.6134 36.1502C31.8696 42.0208 27.4101 42.9023 27.4101 42.9023L27.5692 46.6517C27.6348 48.269 27.0572 49.8464 25.9628 51.0389C24.8684 52.2314 23.3462 52.9419 21.7293 53.015C20.1454 53.0817 18.5975 52.5313 17.4112 51.4798C16.2249 50.4282 15.4929 48.9575 15.369 47.3771L13.4713 22.5757Z" fill="#FFBE9D"/>
<path d="M30.7706 29.1381C30.7782 29.3335 30.7092 29.5241 30.5783 29.6693C30.4473 29.8145 30.2648 29.9029 30.0697 29.9155C29.9741 29.9265 29.8773 29.9181 29.7851 29.8909C29.6928 29.8636 29.607 29.8181 29.5327 29.757C29.4585 29.6958 29.3973 29.6204 29.3528 29.5351C29.3083 29.4498 29.2815 29.3564 29.2739 29.2605C29.267 29.0655 29.3358 28.8754 29.4659 28.7299C29.5959 28.5844 29.7772 28.4949 29.9718 28.48C30.0677 28.469 30.1649 28.4775 30.2576 28.5049C30.3502 28.5323 30.4363 28.578 30.5109 28.6394C30.5855 28.7009 30.6469 28.7767 30.6915 28.8623C30.7361 28.948 30.763 29.0418 30.7706 29.1381Z" fill="#263238"/>
<path d="M31.1687 27.118C31.0769 27.219 30.4984 26.8119 29.6903 26.8425C28.8823 26.8732 28.3069 27.2925 28.2181 27.1945C28.1722 27.1517 28.2609 26.9742 28.5242 26.7783C28.866 26.5256 29.2776 26.3845 29.7026 26.3742C30.1219 26.3596 30.5349 26.4797 30.881 26.7171C31.1105 26.8885 31.2115 27.0629 31.1687 27.118Z" fill="#263238"/>
<path d="M23.2656 29.2606C23.274 29.4557 23.2057 29.6463 23.0752 29.7916C22.9448 29.9369 22.7626 30.0254 22.5677 30.038C22.4729 30.0486 22.3769 30.0401 22.2854 30.013C22.1938 29.9859 22.1086 29.9409 22.0348 29.8804C21.9609 29.82 21.8999 29.7454 21.8553 29.661C21.8107 29.5766 21.7834 29.4842 21.775 29.3891C21.7673 29.1939 21.8358 29.0034 21.9661 28.8577C22.0963 28.7121 22.278 28.6228 22.4728 28.6086C22.5679 28.5981 22.6642 28.6067 22.7559 28.6339C22.8476 28.6612 22.9329 28.7065 23.0068 28.7673C23.0807 28.8281 23.1417 28.903 23.1861 28.9877C23.2306 29.0725 23.2576 29.1652 23.2656 29.2606Z" fill="#263238"/>
<path d="M23.2503 27.5035C23.1585 27.6045 22.5769 27.1975 21.772 27.2311C20.967 27.2648 20.3885 27.678 20.2967 27.5831C20.2538 27.5403 20.3426 27.3597 20.6028 27.1638C20.945 26.9122 21.3565 26.7722 21.7811 26.7628C22.2 26.7488 22.6125 26.8677 22.9595 27.1026C23.2044 27.2862 23.2932 27.4607 23.2503 27.5035Z" fill="#263238"/>
<path d="M26.3601 33.3925C26.3601 33.3466 26.8529 33.2425 27.6609 33.114C27.866 33.0864 28.0619 33.0405 28.0894 32.8997C28.1027 32.6844 28.0481 32.4703 27.9333 32.2876C27.7293 31.7958 27.5109 31.2796 27.2783 30.7388C26.3601 28.532 25.6928 26.717 25.7816 26.6803C25.8704 26.6435 26.6998 28.4035 27.5997 30.6072L28.2333 32.1682C28.3688 32.4121 28.4154 32.6956 28.3649 32.9701C28.3362 33.0426 28.2917 33.1078 28.2344 33.1608C28.1772 33.2138 28.1088 33.2532 28.0343 33.2762C27.9213 33.3121 27.8039 33.3326 27.6854 33.3374C26.8712 33.417 26.3632 33.4384 26.3601 33.3925Z" fill="#263238"/>
<path d="M27.413 42.9178C24.6005 43.0531 21.8045 42.4181 19.3264 41.0813C19.3264 41.0813 21.4261 45.1093 27.4527 44.3869L27.413 42.9178Z" fill="#EB996E"/>
<path d="M26.0785 35.3453C25.9196 35.1564 25.7149 35.0113 25.4839 34.924C25.253 34.8366 25.0035 34.8099 24.7593 34.8464C24.5823 34.8678 24.4114 34.9247 24.2568 35.0135C24.1022 35.1024 23.967 35.2215 23.8594 35.3637C23.7561 35.5018 23.6975 35.6681 23.6914 35.8405C23.6854 36.0129 23.7323 36.1829 23.8258 36.3278C23.9597 36.4687 24.1326 36.5663 24.3224 36.6083C24.5121 36.6503 24.7101 36.6347 24.8909 36.5635C25.2674 36.4166 25.6108 36.196 25.901 35.9146C25.9908 35.8485 26.0667 35.7653 26.1244 35.6698C26.1551 35.6246 26.1715 35.5713 26.1715 35.5167C26.1715 35.4622 26.1551 35.4089 26.1244 35.3637" fill="#EB996E"/>
<path d="M24.0066 34.023C24.1351 34.023 24.1657 34.8861 24.9248 35.483C25.6839 36.0798 26.6204 35.9574 26.6296 36.0798C26.6449 36.1318 26.4276 36.2543 26.0358 36.2788C25.5237 36.3011 25.02 36.1429 24.6126 35.8319C24.2223 35.5328 23.9633 35.0939 23.8902 34.6076C23.8535 34.2403 23.9453 34.0199 24.0066 34.023Z" fill="#263238"/>
<path d="M23.3606 25.2234C23.2871 25.4437 22.4791 25.3642 21.5241 25.508C20.5692 25.6519 19.8254 25.9335 19.6877 25.7406C19.6295 25.6488 19.755 25.4346 20.058 25.2172C20.4615 24.9422 20.9227 24.7635 21.4062 24.695C21.8897 24.6266 22.3824 24.6702 22.8464 24.8224C23.2106 24.951 23.3912 25.1162 23.3606 25.2234Z" fill="#263238"/>
<path d="M31.0584 24.345C30.9207 24.5317 30.3606 24.3603 29.6933 24.3725C29.0261 24.3847 28.469 24.5317 28.3282 24.345C28.267 24.2531 28.3497 24.0664 28.5915 23.8858C28.9171 23.6682 29.3001 23.552 29.6918 23.552C30.0835 23.552 30.4665 23.6682 30.7921 23.8858C31.0339 24.0572 31.1105 24.2531 31.0584 24.345Z" fill="#263238"/>
<path d="M34.2142 19.2947C34.7778 18.8597 35.201 18.2685 35.4312 17.5947C35.6614 16.921 35.6884 16.1944 35.5089 15.5055C35.31 14.8218 34.9382 14.2009 34.4294 13.7028C33.9206 13.2048 33.292 12.8463 32.6042 12.662C31.9134 12.4918 31.1937 12.4756 30.4959 12.6147C29.7982 12.7539 29.1397 13.0448 28.567 13.467C28.5493 13.1404 28.4274 12.828 28.2192 12.5757C28.011 12.3234 27.7274 12.1445 27.4101 12.0652C26.7666 11.9244 26.0942 12.0132 25.5093 12.3161C24.4514 12.8056 23.5973 13.6488 23.0944 14.7005C22.7961 14.2276 22.375 13.8446 21.8759 13.5925C21.3769 13.3404 20.8187 13.2287 20.2611 13.2692C19.7034 13.3098 19.1673 13.5011 18.71 13.8227C18.2526 14.1444 17.8913 14.5842 17.6646 15.0953C17.5261 15.5142 17.3594 15.9232 17.1657 16.3196C17.0192 16.5152 16.8279 16.6728 16.608 16.7793C16.3881 16.8858 16.1459 16.9381 15.9016 16.9318C15.2068 16.9318 14.4845 17.3419 13.857 17.7459C13.2281 18.2127 12.7126 18.8154 12.349 19.5091C11.9855 20.2028 11.7832 20.9697 11.7573 21.7525C11.7971 25.7009 13.0306 27.721 13.1439 31.5041C13.127 31.7561 13.1822 32.0077 13.303 32.2295C13.6703 32.7651 14.5273 32.4988 15.017 32.0795C16.2199 31.0603 16.8351 29.4993 17.1382 27.9536C17.4412 26.4079 17.4779 24.8132 17.7656 23.2645C17.7656 23.2278 17.7809 23.191 17.787 23.1543C17.9097 22.5106 18.1777 21.9034 18.5706 21.3791C19.0239 21.7001 19.5006 21.9866 19.9969 22.2361C20.9079 22.6292 21.9208 22.721 22.8876 22.498C23.8545 22.275 24.7248 21.7489 25.3716 20.9965C26.6207 21.975 28.1715 22.4879 29.7577 22.4473C31.3309 22.3983 32.8766 22.0586 34.0428 21.0148C34.3497 20.7471 34.5764 20.3996 34.6978 20.0109C34.7146 19.8537 34.6753 19.6955 34.5868 19.5645C34.4983 19.4334 34.3663 19.3378 34.2142 19.2947Z" fill="#263238"/>
<path d="M14.6527 30.1206C14.5732 30.0808 11.4787 29.0157 11.4298 32.2234C11.3808 35.431 14.6099 34.8158 14.616 34.724C14.6221 34.6322 14.6527 30.1206 14.6527 30.1206Z" fill="#FFBE9D"/>
<path d="M13.664 33.4967C13.664 33.4967 13.6089 33.5334 13.514 33.5763C13.3796 33.6309 13.2292 33.6309 13.0947 33.5763C12.758 33.4477 12.4826 32.906 12.4826 32.3275C12.4771 32.0528 12.5347 31.7806 12.6509 31.5317C12.6776 31.4322 12.728 31.3407 12.7979 31.265C12.8677 31.1893 12.9549 31.1316 13.0519 31.097C13.1161 31.0809 13.1839 31.0877 13.2437 31.1162C13.3035 31.1446 13.3515 31.1931 13.3794 31.2531C13.4222 31.345 13.4008 31.4092 13.4161 31.4123C13.4314 31.4154 13.4865 31.3603 13.462 31.2287C13.4457 31.1492 13.4024 31.0779 13.3396 31.0266C13.2528 30.9588 13.1431 30.927 13.0335 30.9379C12.9012 30.9626 12.7773 31.0205 12.6735 31.1062C12.5696 31.1918 12.4892 31.3024 12.4397 31.4276C12.2999 31.7034 12.2295 32.0091 12.2346 32.3183C12.2346 32.9641 12.5652 33.5732 13.0274 33.714C13.1127 33.7415 13.2032 33.7489 13.2919 33.7356C13.3806 33.7224 13.465 33.6888 13.5385 33.6375C13.664 33.5732 13.664 33.5028 13.664 33.4967Z" fill="#EB996E"/>
<path d="M33.1429 15.9737C32.7657 15.8606 32.3761 15.7937 31.9828 15.7747C31.5226 15.7612 31.0634 15.8243 30.6239 15.9614C30.3503 16.0437 30.0857 16.1535 29.8342 16.2889C29.5539 16.445 29.2912 16.6307 29.0506 16.8429C28.7897 17.0793 28.5621 17.3501 28.3742 17.6479C28.1742 17.9663 28.074 18.3373 28.0865 18.7131C28.0951 18.9034 28.1711 19.0846 28.3007 19.2242C28.3668 19.2933 28.4477 19.3465 28.5373 19.3799C28.6268 19.4133 28.7228 19.426 28.818 19.417C29.0222 19.3938 29.2138 19.3062 29.3651 19.1671C29.5164 19.0279 29.6195 18.8443 29.6597 18.6427C29.7231 18.1987 29.6219 17.7469 29.3751 17.3724C29.1307 16.9688 28.7939 16.6289 28.3926 16.3808C27.97 16.1192 27.4978 15.948 27.0058 15.878C26.5138 15.8079 26.0126 15.8405 25.5338 15.9737C25.051 16.1111 24.615 16.3778 24.2728 16.745C24.1031 16.9116 23.9772 17.1175 23.9062 17.3444C23.8352 17.5713 23.8212 17.8122 23.8657 18.0458C23.94 18.2588 24.0819 18.4417 24.2698 18.5666C24.4576 18.6914 24.6812 18.7515 24.9063 18.7375C25.1242 18.7455 25.34 18.6925 25.5293 18.5843C25.7186 18.4761 25.8739 18.3172 25.9776 18.1254C26.1573 17.7407 26.1771 17.3004 26.0327 16.9011C25.9037 16.5216 25.6488 16.1976 25.3104 15.9829C24.6772 15.6076 23.9215 15.4976 23.2076 15.6768C22.612 15.8052 22.0577 16.0797 21.5946 16.4756C21.2439 16.7728 20.9468 17.1279 20.7162 17.5255C20.5253 17.8704 20.3802 18.2388 20.2846 18.6212C20.2805 18.5949 20.2805 18.568 20.2846 18.5417C20.2846 18.4927 20.306 18.4162 20.3274 18.3182C20.4034 18.0321 20.5122 17.7559 20.6519 17.4949C20.8783 17.0846 21.1745 16.7169 21.5273 16.4083C21.9976 15.9952 22.5636 15.7059 23.174 15.5666C23.9191 15.3736 24.7104 15.4837 25.3746 15.8727C25.7415 16.104 26.018 16.454 26.1582 16.8644C26.2369 17.0803 26.272 17.3097 26.2615 17.5393C26.251 17.7689 26.1951 17.9941 26.097 18.2019C25.9887 18.4207 25.8184 18.6027 25.6073 18.7253C25.3903 18.8469 25.1459 18.9111 24.8972 18.912C24.6432 18.9123 24.3938 18.8447 24.1748 18.7161C23.9459 18.5798 23.7782 18.3606 23.7065 18.104C23.642 17.8443 23.6624 17.5707 23.7647 17.3235C23.8529 17.0758 23.9891 16.848 24.1656 16.6532C24.3429 16.4565 24.5494 16.2882 24.7778 16.1543C24.8919 16.087 25.0094 16.0257 25.1298 15.9706C25.2522 15.9216 25.3777 15.8757 25.5032 15.8329C26.0036 15.6929 26.5276 15.6587 27.042 15.7325C27.5563 15.8062 28.0496 15.9864 28.4905 16.2614C28.9127 16.5233 29.2663 16.8821 29.522 17.3082C29.7894 17.7142 29.8983 18.2044 29.8281 18.6855C29.7805 18.9176 29.6602 19.1285 29.4846 19.2876C29.309 19.4467 29.0873 19.5456 28.8517 19.5701C28.7385 19.5768 28.6251 19.5589 28.5195 19.5177C28.4138 19.4765 28.3183 19.4129 28.2395 19.3313C28.0893 19.1689 28.0015 18.9585 27.9916 18.7375C27.9746 18.3347 28.0814 17.9362 28.2977 17.5959C28.4935 17.2905 28.7304 17.0134 29.0016 16.7725C29.2506 16.5566 29.5226 16.3687 29.8128 16.2124C30.0727 16.0776 30.3455 15.9689 30.6269 15.888C31.0766 15.7559 31.5454 15.7011 32.0134 15.7258C32.1838 15.7349 32.3535 15.7544 32.5215 15.7839C32.6654 15.8206 32.7878 15.8451 32.8827 15.8757L33.1 15.9553C33.1214 15.9614 33.1459 15.9706 33.1429 15.9737Z" fill="#455A64"/>
</g>
</svg>
