<svg width="20" height="20" viewBox="0 0 20 20" fill="none" xmlns="http://www.w3.org/2000/svg">
<path d="M17.4997 3.3335H2.49967C1.5792 3.3335 0.833008 4.07969 0.833008 5.00016V15.0002C0.833008 15.9206 1.5792 16.6668 2.49967 16.6668H17.4997C18.4201 16.6668 19.1663 15.9206 19.1663 15.0002V5.00016C19.1663 4.07969 18.4201 3.3335 17.4997 3.3335Z" stroke="#96AABD" stroke-width="1.5" stroke-linecap="round" stroke-linejoin="round"/>
<path d="M6.73785 7H3.85015C3.67295 7 3.5293 7.19752 3.5293 7.44118V10.0882C3.5293 10.3319 3.67295 10.5294 3.85015 10.5294H6.73785C6.91506 10.5294 7.05871 10.3319 7.05871 10.0882V7.44118C7.05871 7.19752 6.91506 7 6.73785 7Z" stroke="#96AABD" stroke-width="1.5" stroke-linecap="round" stroke-linejoin="round"/>
<path d="M9 7H16" stroke="#96AABD" stroke-width="1.5" stroke-linecap="round" stroke-linejoin="round"/>
<path d="M9 10H12" stroke="#96AABD" stroke-width="1.5" stroke-linecap="round" stroke-linejoin="round"/>
</svg>
