<svg width="18" height="18" viewBox="0 0 18 18" fill="none" xmlns="http://www.w3.org/2000/svg">
<path d="M12.375 15.75V14.25C12.375 13.4544 12.0905 12.6913 11.5842 12.1287C11.0778 11.5661 10.3911 11.25 9.675 11.25H4.95C4.23392 11.25 3.54716 11.5661 3.04081 12.1287C2.53446 12.6913 2.25 13.4544 2.25 14.25V15.75" stroke="#96AABD" stroke-width="1.5" stroke-linecap="round" stroke-linejoin="round"/>
<path d="M7.3125 7.875C8.8658 7.875 10.125 6.6158 10.125 5.0625C10.125 3.5092 8.8658 2.25 7.3125 2.25C5.7592 2.25 4.5 3.5092 4.5 5.0625C4.5 6.6158 5.7592 7.875 7.3125 7.875Z" stroke="#96AABD" stroke-width="1.5" stroke-linecap="round" stroke-linejoin="round"/>
<path d="M12.5 8.4375L14 10.125L17 6.75" stroke="#96AABD" stroke-width="1.5" stroke-linecap="round" stroke-linejoin="round"/>
</svg>
