<svg width="476" height="556" viewBox="0 0 476 556" fill="none" xmlns="http://www.w3.org/2000/svg">
<path d="M489.708 1C462.286 26.5917 390.845 45.7344 362.839 165.51C334.833 285.285 373.281 324.101 231.228 362.164C109.112 394.885 140.374 501.586 115.78 564.312" stroke="#E9C8C1"/>
<path d="M563.835 68.1479C536.413 93.7396 464.972 112.882 436.966 232.658C408.96 352.433 447.408 391.249 305.355 429.312C183.24 462.033 214.501 568.734 189.907 631.46" stroke="#E9C8C1"/>
<path d="M628.516 120.986C600.923 146.624 529.099 165.869 500.794 285.724C472.488 405.58 511.075 444.359 368.263 482.626C245.495 515.521 276.769 622.219 251.968 685" stroke="#E9C8C1"/>
<path d="M292.028 257.543C291.787 267.733 278.751 293.818 278.751 293.818C278.751 293.818 264.278 267.086 264.519 256.895C264.759 246.705 280.541 218 280.541 218C280.541 218 292.266 247.352 292.028 257.543Z" fill="#FFC368"/>
<path d="M218.648 276.505C225.525 284.031 234.154 311.884 234.154 311.884C234.154 311.884 205.21 302.591 198.334 295.065C191.459 287.54 183 255.895 183 255.895C183 255.895 211.774 268.982 218.648 276.505Z" fill="#FFC368"/>
<path d="M335.998 276.505C329.122 284.031 320.493 311.884 320.493 311.884C320.493 311.884 349.436 302.591 356.313 295.065C363.188 287.54 371.647 255.895 371.647 255.895C371.647 255.895 342.873 268.982 335.998 276.505Z" fill="#FFC368"/>
<path d="M279.195 491.326H278.186V252.971H279.195V491.326Z" fill="#FF7B52"/>
<path d="M260.661 489.243C260.621 488.232 256.585 387.694 250.854 353.301C243.957 311.926 204.475 281.716 204.078 281.415L204.683 280.61C205.084 280.912 244.884 311.359 251.847 353.136C257.589 387.59 261.628 488.19 261.67 489.203L260.661 489.243Z" fill="#FF7B52"/>
<path d="M295.669 489.243L294.661 489.203C294.703 488.19 298.741 387.59 304.484 353.136C311.447 311.359 351.246 280.912 351.648 280.61L352.252 281.415C351.855 281.716 312.373 311.926 305.477 353.301C299.745 387.694 295.709 488.232 295.669 489.243Z" fill="#FF7B52"/>
<path d="M294.317 478.212H257.534C257.534 478.212 249.413 482.026 248.45 494.382C246.694 516.902 260.798 556.522 260.798 556.522H295.504C295.504 556.522 307.035 509.242 304.488 494.382C302.443 482.456 294.317 478.212 294.317 478.212Z" fill="#303030"/>
<path d="M207.667 281.976C207.667 283.21 206.665 284.209 205.431 284.209C204.197 284.209 203.198 283.21 203.198 281.976C203.198 280.742 204.197 279.74 205.431 279.74C206.665 279.74 207.667 280.742 207.667 281.976Z" fill="#FF7B52"/>
<path d="M281.013 252.531C281.013 253.767 280.013 254.767 278.778 254.767C277.544 254.767 276.544 253.767 276.544 252.531C276.544 251.298 277.544 250.298 278.778 250.298C280.013 250.298 281.013 251.298 281.013 252.531Z" fill="#FF7B52"/>
</svg>
