<svg width="208" height="33" viewBox="0 0 208 33" fill="none" xmlns="http://www.w3.org/2000/svg">
<path d="M0 11.5756L23.6141 0V9.26044L0 20.836V11.5756Z" fill="#0F547E"/>
<path d="M0 21.0675L23.6141 32.6431V23.3826L0 11.8071V21.0675Z" fill="#28B2B6"/>
<path d="M179.208 15.5699H170.665V31.9637H164.853V15.5699H161.297V10.6257H164.853V8.19694C164.853 5.79713 165.547 3.87439 166.935 2.42872C168.351 0.983055 170.245 0.260222 172.616 0.260222C173.888 0.260222 174.842 0.404788 175.479 0.693922V5.55137C174.987 5.4068 174.38 5.33452 173.657 5.33452C172.876 5.33452 172.182 5.56583 171.575 6.02844C170.968 6.46214 170.665 7.21389 170.665 8.28368V10.6257H184.933V31.9637H179.208V15.5699ZM179.555 6.11518C178.861 5.42126 178.514 4.58277 178.514 3.59971C178.514 2.61666 178.861 1.77817 179.555 1.08425C180.249 0.361418 181.088 0 182.071 0C183.054 0 183.892 0.361418 184.586 1.08425C185.28 1.77817 185.627 2.61666 185.627 3.59971C185.627 4.58277 185.28 5.42126 184.586 6.11518C183.892 6.78019 183.054 7.11269 182.071 7.11269C181.088 7.11269 180.249 6.78019 179.555 6.11518Z" fill="#28B2B6"/>
<path d="M194.295 19.69V31.9637H188.527V10.6257H194.122V13.2712C194.729 12.2304 195.596 11.4352 196.724 10.8859C197.851 10.3365 199.037 10.0619 200.28 10.0619C202.796 10.0619 204.704 10.857 206.005 12.4472C207.335 14.0085 208 16.0325 208 18.519V31.9637H202.232V19.5165C202.232 18.2443 201.899 17.2179 201.234 16.4373C200.598 15.6566 199.615 15.2663 198.285 15.2663C197.071 15.2663 196.102 15.6855 195.379 16.524C194.657 17.3625 194.295 18.4178 194.295 19.69Z" fill="#28B2B6"/>
<path d="M54.3458 10.6257L45.8019 19.6033L54.5193 31.9638H47.4499L41.8118 23.8102L39.4265 26.3257V31.9638H33.6583V0.563868H39.4265V18.5624L46.7994 10.6257H54.3458Z" fill="#0F547E"/>
<path d="M53.473 26.1522C53.473 24.3307 54.0657 22.8705 55.2511 21.7718C56.4366 20.6731 57.969 19.9792 59.8484 19.6901L65.0961 18.9094C66.1659 18.7648 66.7008 18.2589 66.7008 17.3914C66.7008 16.5819 66.3828 15.9169 65.7467 15.3964C65.1395 14.876 64.2576 14.6158 63.1011 14.6158C61.8868 14.6158 60.9182 14.9483 60.1953 15.6133C59.5014 16.2783 59.1111 17.1023 59.0243 18.0854L53.9067 17.0011C54.1091 15.1507 55.0198 13.5171 56.639 12.1003C58.2581 10.6835 60.3977 9.97517 63.0577 9.97517C66.2382 9.97517 68.5802 10.7414 70.0837 12.2738C71.5872 13.7773 72.3389 15.7145 72.3389 18.0854V28.5809C72.3389 29.8531 72.4257 30.9807 72.5992 31.9638H67.308C67.1634 31.3277 67.0912 30.4748 67.0912 29.405C65.7322 31.5156 63.636 32.571 60.8025 32.571C58.6051 32.571 56.8269 31.9349 55.468 30.6627C54.138 29.3905 53.473 27.887 53.473 26.1522ZM62.0169 28.2773C63.3758 28.2773 64.489 27.9015 65.3564 27.1497C66.2527 26.369 66.7008 25.0969 66.7008 23.3331V22.379L61.8867 23.1163C60.123 23.3765 59.2412 24.2728 59.2412 25.8052C59.2412 26.4992 59.4869 27.0919 59.9785 27.5834C60.47 28.046 61.1495 28.2773 62.0169 28.2773Z" fill="#0F547E"/>
<path d="M81.3192 31.9638H75.551V0.563868H81.3192V31.9638Z" fill="#0F547E"/>
<path d="M89.0994 18.866H98.6408C98.583 17.6806 98.1493 16.6831 97.3397 15.8735C96.5591 15.0639 95.4025 14.6591 93.8701 14.6591C92.4823 14.6591 91.3547 15.0928 90.4873 15.9602C89.6199 16.8276 89.1573 17.7962 89.0994 18.866ZM99.2047 24.4174L104.019 25.8486C103.44 27.8147 102.298 29.4339 100.592 30.7061C98.9155 31.9782 96.8193 32.6143 94.3038 32.6143C91.239 32.6143 88.6368 31.5879 86.4972 29.5351C84.3576 27.4533 83.2878 24.6776 83.2878 21.208C83.2878 17.9119 84.3287 15.2229 86.4105 13.1412C88.4922 11.0305 90.9499 9.97517 93.7834 9.97517C97.0795 9.97517 99.6528 10.9582 101.503 12.9243C103.383 14.8904 104.322 17.5938 104.322 21.0345C104.322 21.2658 104.308 21.5261 104.279 21.8152C104.279 22.1043 104.279 22.3356 104.279 22.5091L104.236 22.8127H88.9693C89.0271 24.2006 89.5765 25.3571 90.6174 26.2823C91.6583 27.2075 92.9015 27.6702 94.3472 27.6702C96.8048 27.6702 98.424 26.5859 99.2047 24.4174Z" fill="#0F547E"/>
<path d="M112.031 31.9638H106.262V10.6257H112.031V31.9638ZM105.569 3.64314C105.569 2.66009 105.915 1.8216 106.609 1.12768C107.303 0.404844 108.142 0.0434265 109.125 0.0434265C110.108 0.0434265 110.946 0.390388 111.64 1.08431C112.334 1.77823 112.681 2.63117 112.681 3.64314C112.681 4.59728 112.334 5.42132 111.64 6.11524C110.946 6.80916 110.108 7.15612 109.125 7.15612C108.142 7.15612 107.303 6.80916 106.609 6.11524C105.915 5.42132 105.569 4.59728 105.569 3.64314Z" fill="#0F547E"/>
<path d="M135.945 0.563868V28.1039C135.945 29.5206 136.002 30.8073 136.118 31.9638H130.61C130.465 31.241 130.393 30.4169 130.393 29.4917C129.902 30.388 129.121 31.1108 128.051 31.6602C127.01 32.2096 125.796 32.4842 124.408 32.4842C121.372 32.4842 118.871 31.4289 116.905 29.3182C114.968 27.1786 113.999 24.4897 113.999 21.2514C113.999 18.0998 114.953 15.4543 116.862 13.3147C118.799 11.1751 121.257 10.1053 124.235 10.1053C127.299 10.1053 129.309 10.9871 130.263 12.7509V0.563868H135.945ZM119.811 21.2514C119.811 23.1308 120.302 24.6198 121.285 25.7185C122.268 26.7883 123.541 27.3232 125.102 27.3232C126.634 27.3232 127.892 26.7738 128.875 25.6751C129.858 24.5764 130.35 23.0874 130.35 21.208C130.35 19.3576 129.858 17.9119 128.875 16.871C127.892 15.8012 126.634 15.2663 125.102 15.2663C123.57 15.2663 122.297 15.8012 121.285 16.871C120.302 17.9408 119.811 19.4009 119.811 21.2514Z" fill="#0F547E"/>
<path d="M145.325 25.7619C146.394 26.8317 147.681 27.3666 149.185 27.3666C150.688 27.3666 151.96 26.8317 153.001 25.7619C154.071 24.6921 154.606 23.203 154.606 21.2948C154.606 19.3865 154.071 17.8974 153.001 16.8276C151.96 15.7578 150.688 15.2229 149.185 15.2229C147.681 15.2229 146.394 15.7578 145.325 16.8276C144.284 17.8974 143.763 19.3865 143.763 21.2948C143.763 23.203 144.284 24.6921 145.325 25.7619ZM141.161 13.1846C143.301 11.045 145.975 9.97517 149.185 9.97517C152.394 9.97517 155.054 11.045 157.165 13.1846C159.304 15.3241 160.374 18.0275 160.374 21.2948C160.374 24.562 159.304 27.2654 157.165 29.405C155.054 31.5445 152.394 32.6143 149.185 32.6143C145.975 32.6143 143.301 31.5445 141.161 29.405C139.05 27.2654 137.995 24.562 137.995 21.2948C137.995 18.0275 139.05 15.3241 141.161 13.1846Z" fill="#0F547E"/>
</svg>
