<svg width="56" height="56" viewBox="0 0 56 56" fill="none" xmlns="http://www.w3.org/2000/svg">
<path d="M27.9814 37.3334H28.0024M28.0001 30.3334V21M12.4181 22.5937C18.0484 12.628 20.8647 7.64635 24.7287 6.36302C26.8526 5.65796 29.1475 5.65796 31.2714 6.36302C35.1354 7.64635 37.9517 12.628 43.5821 22.5937C49.2147 32.557 52.0287 37.541 51.1864 41.601C50.7197 43.8364 49.5764 45.8617 47.9151 47.3877C44.8957 50.1667 39.2631 50.1667 28.0001 50.1667C16.7371 50.1667 11.1044 50.1667 8.08508 47.39C6.41731 45.8499 5.27339 43.8264 4.81374 41.6034C3.96908 37.5434 6.78541 32.5594 12.4181 22.5937Z" stroke="#FFAC30" stroke-width="4" stroke-linecap="round" stroke-linejoin="round"/>
</svg>
