<svg width="28" height="28" viewBox="0 0 28 28" fill="none" xmlns="http://www.w3.org/2000/svg">
<path d="M18.4683 12.005L15.995 9.53166C15.7769 9.31352 15.6543 9.01766 15.6543 8.70916C15.6543 8.55641 15.6844 8.40516 15.7429 8.26403C15.8013 8.12291 15.887 7.99468 15.995 7.88667C16.103 7.77865 16.2313 7.69297 16.3724 7.63452C16.5135 7.57606 16.6648 7.54597 16.8175 7.54597C17.126 7.54597 17.4219 7.66852 17.64 7.88667L19.285 9.53166L23.415 5.40167C23.6332 5.18352 23.929 5.06097 24.2375 5.06097C24.546 5.06097 24.8419 5.18352 25.06 5.40167C25.2781 5.61981 25.4007 5.91567 25.4007 6.22416C25.4007 6.53266 25.2781 6.82852 25.06 7.04666L20.1133 11.9933C19.6583 12.46 18.9233 12.46 18.4683 12.005ZM11.6667 8.16666H3.50001C2.85834 8.16666 2.33334 8.69166 2.33334 9.33333C2.33334 9.975 2.85834 10.5 3.50001 10.5H11.6667C12.3083 10.5 12.8333 9.975 12.8333 9.33333C12.8333 8.69166 12.3083 8.16666 11.6667 8.16666ZM23.6717 14.8283C23.5637 14.7202 23.4355 14.6344 23.2944 14.5758C23.1533 14.5173 23.002 14.4871 22.8492 14.4871C22.6964 14.4871 22.5451 14.5173 22.4039 14.5758C22.2628 14.6344 22.1346 14.7202 22.0267 14.8283L19.8333 17.0217L17.64 14.8283C17.4219 14.6102 17.126 14.4876 16.8175 14.4876C16.509 14.4876 16.2132 14.6102 15.995 14.8283C15.7769 15.0465 15.6543 15.3423 15.6543 15.6508C15.6543 15.9593 15.7769 16.2552 15.995 16.4733L18.1883 18.6667L15.995 20.86C15.887 20.968 15.8013 21.0962 15.7429 21.2374C15.6844 21.3785 15.6543 21.5297 15.6543 21.6825C15.6543 21.8352 15.6844 21.9865 15.7429 22.1276C15.8013 22.2688 15.887 22.397 15.995 22.505C16.2132 22.7231 16.509 22.8457 16.8175 22.8457C16.9703 22.8457 17.1215 22.8156 17.2626 22.7571C17.4038 22.6987 17.532 22.613 17.64 22.505L19.8333 20.3117L22.0267 22.505C22.2448 22.7231 22.5407 22.8457 22.8492 22.8457C23.1577 22.8457 23.4535 22.7231 23.6717 22.505C23.8898 22.2869 24.0124 21.991 24.0124 21.6825C24.0124 21.374 23.8898 21.0781 23.6717 20.86L21.4783 18.6667L23.6717 16.4733C23.7798 16.3654 23.8656 16.2372 23.9242 16.0961C23.9827 15.9549 24.0129 15.8036 24.0129 15.6508C24.0129 15.498 23.9827 15.3467 23.9242 15.2056C23.8656 15.0645 23.7798 14.9363 23.6717 14.8283ZM11.6667 17.5H3.50001C2.85834 17.5 2.33334 18.025 2.33334 18.6667C2.33334 19.3083 2.85834 19.8333 3.50001 19.8333H11.6667C12.3083 19.8333 12.8333 19.3083 12.8333 18.6667C12.8333 18.025 12.3083 17.5 11.6667 17.5Z" fill="#496684"/>
</svg>
