<svg width="302" height="186" viewBox="0 0 302 186" fill="none" xmlns="http://www.w3.org/2000/svg">
<path d="M155.815 74.2733L42.5933 115.967L47.9788 130.881L161.201 89.1871L155.815 74.2733Z" fill="#FFC127"/>
<path d="M156.488 90.7883L52.3071 129.152L72.4749 185.001L176.656 146.637L156.488 90.7883Z" fill="#FF7F29"/>
<path d="M54.7486 132.9C54.6569 132.649 54.4602 132.424 54.2242 132.318C53.9751 132.198 53.6998 132.198 53.4507 132.291L54.1455 134.211C54.3946 134.118 54.6044 133.933 54.7224 133.681C54.8142 133.443 54.8404 133.152 54.7486 132.9Z" fill="#F6D397"/>
<path d="M62.9035 128.797C62.3791 128.995 62.1038 129.591 62.3005 130.12C62.4971 130.663 63.0871 130.928 63.6115 130.743C64.1491 130.544 64.4113 129.962 64.2146 129.419C64.0179 128.876 63.4411 128.598 62.9035 128.797Z" fill="#F6D397"/>
<path d="M81.8484 121.82C81.3239 122.019 81.0486 122.614 81.2322 123.144C81.4288 123.687 82.0188 123.952 82.5432 123.753C83.0676 123.554 83.343 122.972 83.1594 122.429C82.9628 121.9 82.3728 121.622 81.8484 121.82Z" fill="#F6D397"/>
<path d="M100.793 114.843C100.256 115.042 99.9935 115.638 100.19 116.167C100.387 116.71 100.964 116.975 101.501 116.79C102.026 116.591 102.301 116.008 102.104 115.466C101.908 114.923 101.318 114.645 100.793 114.843Z" fill="#F6D397"/>
<path d="M91.3273 118.325C90.7898 118.524 90.5276 119.119 90.7111 119.649C90.9078 120.192 91.4846 120.457 92.0222 120.271C92.5466 120.073 92.8219 119.49 92.6252 118.947C92.4286 118.418 91.8517 118.14 91.3273 118.325Z" fill="#F6D397"/>
<path d="M72.3694 125.299C71.8449 125.498 71.5696 126.093 71.7663 126.623C71.9629 127.166 72.5529 127.431 73.0773 127.232C73.6149 127.033 73.8771 126.451 73.6804 125.908C73.4969 125.392 72.9069 125.101 72.3694 125.299Z" fill="#F6D397"/>
<path d="M119.738 107.863C119.214 108.062 118.938 108.657 119.135 109.187C119.332 109.73 119.922 109.995 120.446 109.809C120.97 109.611 121.246 109.028 121.049 108.485C120.852 107.942 120.262 107.664 119.738 107.863Z" fill="#F6D397"/>
<path d="M148.149 97.4059C147.624 97.6045 147.349 98.2003 147.546 98.7299C147.742 99.2727 148.332 99.5375 148.857 99.3521C149.381 99.1535 149.656 98.571 149.473 98.0282C149.263 97.4854 148.673 97.2073 148.149 97.4059Z" fill="#F6D397"/>
<path d="M129.204 104.381C128.679 104.579 128.404 105.175 128.588 105.705C128.784 106.247 129.374 106.512 129.899 106.314C130.423 106.115 130.698 105.533 130.502 104.99C130.318 104.46 129.728 104.182 129.204 104.381Z" fill="#F6D397"/>
<path d="M138.67 100.887C138.145 101.085 137.87 101.681 138.053 102.21C138.25 102.753 138.84 103.018 139.365 102.819C139.889 102.621 140.164 102.038 139.981 101.496C139.784 100.966 139.194 100.688 138.67 100.887Z" fill="#F6D397"/>
<path d="M110.259 111.347C109.722 111.545 109.459 112.141 109.656 112.671C109.853 113.213 110.429 113.478 110.967 113.28C111.491 113.081 111.767 112.498 111.57 111.956C111.387 111.439 110.797 111.161 110.259 111.347Z" fill="#F6D397"/>
<path d="M157.038 94.4534C156.985 94.5726 156.959 94.705 156.946 94.8374C156.946 94.9697 156.959 95.1021 156.998 95.2345C157.09 95.4993 157.287 95.7112 157.523 95.8171C157.588 95.8436 157.654 95.87 157.719 95.8833C157.785 95.9097 157.85 95.9097 157.916 95.923C157.982 95.923 158.047 95.923 158.113 95.9097C158.178 95.9097 158.244 95.8833 158.296 95.8568L157.614 93.9238C157.365 94.0165 157.142 94.2151 157.038 94.4534Z" fill="#F6D397"/>
<path d="M107.834 118.324C107.296 118.522 107.021 119.105 107.217 119.634C107.414 120.177 108.004 120.455 108.541 120.257C109.066 120.058 109.328 119.475 109.145 118.933C108.935 118.39 108.358 118.125 107.834 118.324Z" fill="#F6D397"/>
<path d="M69.9436 132.266C69.4192 132.465 69.1438 133.047 69.3274 133.577C69.524 134.12 70.114 134.398 70.6384 134.199C71.1629 134 71.4382 133.405 71.2415 132.862C71.058 132.346 70.468 132.081 69.9436 132.266Z" fill="#F6D397"/>
<path d="M145.71 104.369C145.173 104.567 144.91 105.15 145.094 105.679C145.291 106.222 145.867 106.5 146.405 106.302C146.929 106.103 147.205 105.507 147.008 104.964C146.825 104.435 146.235 104.17 145.71 104.369Z" fill="#F6D397"/>
<path d="M60.4778 135.759C59.9533 135.958 59.678 136.54 59.8616 137.07C60.0582 137.613 60.6482 137.891 61.1726 137.692C61.697 137.494 61.9724 136.898 61.7757 136.355C61.5922 135.825 61.0022 135.561 60.4778 135.759Z" fill="#F6D397"/>
<path d="M98.3542 121.807C97.8298 122.005 97.5545 122.588 97.738 123.117C97.9347 123.66 98.5247 123.938 99.0491 123.74C99.5866 123.541 99.8488 122.945 99.6522 122.402C99.4686 121.886 98.8918 121.608 98.3542 121.807Z" fill="#F6D397"/>
<path d="M117.299 114.828C116.761 115.027 116.499 115.609 116.683 116.139C116.879 116.682 117.456 116.96 117.994 116.761C118.518 116.562 118.794 115.967 118.597 115.424C118.413 114.908 117.823 114.629 117.299 114.828Z" fill="#F6D397"/>
<path d="M126.778 111.347C126.241 111.546 125.979 112.128 126.162 112.658C126.359 113.201 126.936 113.479 127.473 113.28C127.998 113.082 128.273 112.486 128.076 111.943C127.893 111.413 127.303 111.149 126.778 111.347Z" fill="#F6D397"/>
<path d="M88.8889 125.3C88.3645 125.499 88.0891 126.081 88.2727 126.611C88.4693 127.154 89.0593 127.432 89.5838 127.233C90.1082 127.035 90.3835 126.439 90.1868 125.896C90.0033 125.367 89.4133 125.102 88.8889 125.3Z" fill="#F6D397"/>
<path d="M79.4099 128.783C78.8855 128.982 78.6101 129.564 78.7937 130.094C78.9903 130.637 79.5803 130.915 80.1047 130.716C80.6292 130.518 80.9045 129.922 80.7078 129.379C80.5243 128.863 79.9474 128.585 79.4099 128.783Z" fill="#F6D397"/>
<path d="M136.244 107.85C135.72 108.049 135.445 108.631 135.628 109.161C135.825 109.704 136.415 109.982 136.939 109.783C137.464 109.584 137.739 108.989 137.542 108.446C137.359 107.93 136.769 107.665 136.244 107.85Z" fill="#F6D397"/>
<path d="M155.963 100.913C155.897 100.887 155.831 100.86 155.766 100.847C155.713 100.834 155.635 100.834 155.569 100.82C155.504 100.82 155.438 100.82 155.373 100.834C155.045 100.873 154.743 101.112 154.599 101.416C154.547 101.535 154.52 101.668 154.507 101.8C154.494 101.946 154.52 102.065 154.573 102.21C154.665 102.462 154.861 102.674 155.097 102.78C155.346 102.899 155.635 102.912 155.884 102.819C155.936 102.793 156.002 102.767 156.054 102.727C156.12 102.687 156.159 102.647 156.212 102.608C156.264 102.555 156.303 102.502 156.343 102.462C156.382 102.396 156.421 102.343 156.448 102.277C156.474 102.224 156.487 102.157 156.513 102.091C156.539 102.025 156.539 101.959 156.539 101.893C156.553 101.827 156.539 101.747 156.526 101.694C156.513 101.628 156.5 101.562 156.474 101.509C156.421 101.376 156.356 101.27 156.264 101.165C156.185 101.045 156.081 100.966 155.963 100.913Z" fill="#F6D397"/>
<path d="M58.6163 143.596C58.5245 143.332 58.3279 143.133 58.0919 143.014C57.8428 142.895 57.5675 142.908 57.3184 143.001L58.0132 144.92C58.2623 144.828 58.4721 144.629 58.5901 144.377C58.6819 144.139 58.695 143.848 58.6163 143.596Z" fill="#F6D397"/>
<path d="M76.237 136.011C75.7126 136.21 75.4373 136.792 75.6339 137.335C75.8306 137.865 76.4206 138.143 76.945 137.944C77.4825 137.745 77.7448 137.15 77.5481 136.62C77.3514 136.077 76.7746 135.813 76.237 136.011Z" fill="#F6D397"/>
<path d="M85.716 132.529C85.1916 132.727 84.9163 133.31 85.113 133.852C85.3096 134.382 85.8996 134.66 86.424 134.475C86.9484 134.276 87.2238 133.68 87.0271 133.151C86.8304 132.595 86.2405 132.33 85.716 132.529Z" fill="#F6D397"/>
<path d="M133.072 115.08C132.547 115.279 132.272 115.862 132.468 116.404C132.665 116.934 133.255 117.212 133.779 117.013C134.304 116.815 134.579 116.219 134.383 115.689C134.186 115.16 133.596 114.895 133.072 115.08Z" fill="#F6D397"/>
<path d="M123.606 118.576C123.081 118.774 122.806 119.357 122.989 119.899C123.186 120.429 123.776 120.707 124.301 120.509C124.825 120.31 125.1 119.714 124.917 119.185C124.707 118.642 124.13 118.377 123.606 118.576Z" fill="#F6D397"/>
<path d="M95.1951 129.033C94.6576 129.232 94.3953 129.814 94.592 130.357C94.7887 130.887 95.3655 131.165 95.9031 130.966C96.4275 130.767 96.6897 130.185 96.5061 129.642C96.2964 129.112 95.7195 128.834 95.1951 129.033Z" fill="#F6D397"/>
<path d="M142.537 111.597C142.013 111.795 141.738 112.378 141.934 112.921C142.131 113.45 142.721 113.728 143.245 113.543C143.77 113.344 144.045 112.749 143.848 112.219C143.652 111.663 143.062 111.398 142.537 111.597Z" fill="#F6D397"/>
<path d="M104.661 125.539C104.123 125.738 103.861 126.321 104.045 126.863C104.241 127.393 104.818 127.671 105.356 127.472C105.88 127.274 106.155 126.678 105.972 126.148C105.775 125.619 105.185 125.354 104.661 125.539Z" fill="#F6D397"/>
<path d="M114.127 122.056C113.589 122.255 113.327 122.837 113.51 123.38C113.707 123.91 114.284 124.188 114.821 124.003C115.346 123.804 115.621 123.208 115.438 122.679C115.241 122.136 114.664 121.858 114.127 122.056Z" fill="#F6D397"/>
<path d="M152.003 108.104C151.479 108.302 151.203 108.885 151.4 109.428C151.597 109.957 152.187 110.235 152.711 110.037C153.236 109.838 153.511 109.242 153.314 108.713C153.118 108.183 152.541 107.919 152.003 108.104Z" fill="#F6D397"/>
<path d="M66.7712 139.494C66.2468 139.693 65.9715 140.275 66.155 140.818C66.3517 141.347 66.9417 141.626 67.4661 141.427C68.0036 141.228 68.2658 140.633 68.0823 140.103C67.8856 139.573 67.3087 139.295 66.7712 139.494Z" fill="#F6D397"/>
<path d="M161.141 104.818C161.089 104.871 161.05 104.924 161.01 104.977C160.958 105.03 160.932 105.083 160.892 105.149C160.787 105.401 160.774 105.679 160.866 105.944C160.958 106.195 161.154 106.407 161.39 106.526C161.456 106.553 161.522 106.579 161.587 106.592C161.64 106.605 161.718 106.619 161.784 106.619C161.849 106.632 161.915 106.619 161.98 106.605C162.046 106.592 162.112 106.579 162.164 106.553L161.469 104.633C161.404 104.659 161.338 104.659 161.286 104.699C161.246 104.739 161.194 104.778 161.141 104.818Z" fill="#F6D397"/>
<path d="M140.112 118.549C139.588 118.748 139.312 119.343 139.509 119.873C139.706 120.403 140.296 120.681 140.82 120.495C141.344 120.297 141.62 119.701 141.436 119.171C141.226 118.629 140.636 118.364 140.112 118.549Z" fill="#F6D397"/>
<path d="M121.167 125.525C120.629 125.724 120.367 126.32 120.564 126.849C120.76 127.379 121.337 127.657 121.875 127.458C122.399 127.26 122.674 126.664 122.478 126.134C122.281 125.605 121.691 125.327 121.167 125.525Z" fill="#F6D397"/>
<path d="M83.2771 139.48C82.7527 139.679 82.4773 140.275 82.674 140.804C82.8706 141.334 83.4606 141.612 83.985 141.413C84.5095 141.215 84.7848 140.619 84.5881 140.089C84.3915 139.56 83.8015 139.282 83.2771 139.48Z" fill="#F6D397"/>
<path d="M130.633 122.045C130.096 122.243 129.833 122.839 130.03 123.369C130.227 123.898 130.804 124.176 131.341 123.991C131.865 123.792 132.141 123.196 131.944 122.667C131.747 122.124 131.157 121.846 130.633 122.045Z" fill="#F6D397"/>
<path d="M111.701 129.009C111.163 129.207 110.888 129.803 111.084 130.333C111.281 130.862 111.871 131.14 112.409 130.942C112.933 130.743 113.195 130.161 113.012 129.618C112.802 129.101 112.225 128.823 111.701 129.009Z" fill="#F6D397"/>
<path d="M73.8113 142.964C73.2868 143.162 73.0115 143.758 73.1951 144.288C73.3917 144.817 73.9817 145.095 74.5061 144.897C75.0305 144.698 75.3059 144.102 75.1092 143.573C74.9257 143.056 74.3357 142.778 73.8113 142.964Z" fill="#F6D397"/>
<path d="M64.3323 146.459C63.8078 146.657 63.5325 147.253 63.7292 147.783C63.9258 148.312 64.5158 148.59 65.0402 148.392C65.5647 148.193 65.84 147.597 65.6433 147.068C65.4598 146.538 64.8698 146.26 64.3323 146.459Z" fill="#F6D397"/>
<path d="M149.577 115.066C149.04 115.265 148.778 115.861 148.974 116.39C149.171 116.92 149.748 117.198 150.285 116.999C150.81 116.801 151.085 116.205 150.902 115.675C150.692 115.146 150.102 114.868 149.577 115.066Z" fill="#F6D397"/>
<path d="M102.222 132.502C101.697 132.7 101.422 133.296 101.606 133.826C101.802 134.355 102.392 134.633 102.917 134.448C103.454 134.249 103.717 133.653 103.52 133.124C103.336 132.581 102.759 132.303 102.222 132.502Z" fill="#F6D397"/>
<path d="M92.7434 135.998C92.219 136.196 91.9436 136.792 92.1272 137.322C92.3238 137.851 92.9138 138.129 93.4382 137.944C93.9627 137.745 94.238 137.15 94.0544 136.62C93.8578 136.077 93.2809 135.799 92.7434 135.998Z" fill="#F6D397"/>
<path d="M159.83 111.612C159.765 111.586 159.699 111.559 159.634 111.559C159.568 111.533 159.502 111.533 159.437 111.533C159.371 111.52 159.306 111.533 159.227 111.546C159.03 111.573 158.847 111.665 158.703 111.811C158.598 111.904 158.519 112.009 158.454 112.129C158.401 112.248 158.375 112.38 158.362 112.526C158.349 112.658 158.375 112.791 158.414 112.923C158.506 113.175 158.703 113.386 158.939 113.506C159.188 113.611 159.476 113.625 159.725 113.532C159.778 113.506 159.843 113.479 159.896 113.439C159.961 113.4 160.014 113.36 160.053 113.32C160.106 113.28 160.145 113.227 160.184 113.175C160.224 113.108 160.263 113.055 160.302 113.002C160.328 112.936 160.342 112.883 160.368 112.804C160.394 112.738 160.394 112.671 160.394 112.605C160.407 112.539 160.394 112.473 160.381 112.407C160.368 112.34 160.355 112.274 160.328 112.221C160.289 112.089 160.21 111.983 160.119 111.877C160.053 111.745 159.948 111.665 159.83 111.612Z" fill="#F6D397"/>
<path d="M62.4708 154.296C62.379 154.044 62.1824 153.832 61.9464 153.713C61.6973 153.594 61.422 153.607 61.1729 153.7L61.8677 155.619C62.1168 155.527 62.3266 155.328 62.4446 155.09C62.5495 154.838 62.5626 154.547 62.4708 154.296Z" fill="#F6D397"/>
<path d="M99.049 139.732C98.5114 139.931 98.2492 140.527 98.4328 141.056C98.6294 141.586 99.2063 141.864 99.7438 141.665C100.268 141.467 100.53 140.884 100.347 140.341C100.163 139.812 99.5865 139.534 99.049 139.732Z" fill="#F6D397"/>
<path d="M108.528 136.235C107.991 136.434 107.728 137.03 107.925 137.559C108.122 138.089 108.699 138.367 109.236 138.168C109.76 137.97 110.036 137.374 109.839 136.844C109.643 136.328 109.053 136.05 108.528 136.235Z" fill="#F6D397"/>
<path d="M117.994 132.756C117.457 132.954 117.195 133.55 117.391 134.079C117.588 134.609 118.165 134.887 118.702 134.702C119.227 134.503 119.502 133.907 119.305 133.378C119.109 132.835 118.519 132.557 117.994 132.756Z" fill="#F6D397"/>
<path d="M146.405 122.295C145.881 122.493 145.605 123.089 145.789 123.619C145.985 124.148 146.575 124.426 147.1 124.241C147.624 124.042 147.9 123.446 147.703 122.917C147.519 122.374 146.929 122.096 146.405 122.295Z" fill="#F6D397"/>
<path d="M136.926 125.779C136.402 125.978 136.126 126.573 136.31 127.103C136.506 127.632 137.096 127.911 137.621 127.725C138.145 127.527 138.421 126.931 138.224 126.401C138.054 125.858 137.464 125.58 136.926 125.779Z" fill="#F6D397"/>
<path d="M155.871 118.802C155.346 119 155.071 119.596 155.255 120.126C155.451 120.655 156.041 120.933 156.566 120.735C157.09 120.536 157.365 119.94 157.169 119.411C156.985 118.894 156.395 118.616 155.871 118.802Z" fill="#F6D397"/>
<path d="M70.6389 150.19C70.1145 150.388 69.8391 150.984 70.0358 151.514C70.2325 152.043 70.8224 152.321 71.3469 152.123C71.8844 151.924 72.1466 151.328 71.95 150.799C71.7533 150.282 71.1764 149.991 70.6389 150.19Z" fill="#F6D397"/>
<path d="M89.5705 143.214C89.0461 143.412 88.7708 144.008 88.9543 144.538C89.151 145.067 89.741 145.345 90.2654 145.16C90.7898 144.961 91.0652 144.366 90.8816 143.836C90.6849 143.306 90.1081 143.028 89.5705 143.214Z" fill="#F6D397"/>
<path d="M127.46 129.271C126.935 129.47 126.66 130.066 126.857 130.595C127.053 131.125 127.643 131.403 128.168 131.204C128.692 131.006 128.967 130.41 128.771 129.88C128.574 129.351 127.984 129.073 127.46 129.271Z" fill="#F6D397"/>
<path d="M80.1047 146.709C79.5803 146.907 79.305 147.503 79.4885 148.033C79.6852 148.562 80.2751 148.84 80.7996 148.642C81.3371 148.443 81.5993 147.847 81.4158 147.318C81.2191 146.788 80.6422 146.51 80.1047 146.709Z" fill="#F6D397"/>
<path d="M165.009 115.529C164.956 115.569 164.917 115.622 164.878 115.675C164.838 115.741 164.799 115.794 164.76 115.847C164.733 115.913 164.72 115.966 164.694 116.032C164.681 116.098 164.668 116.178 164.668 116.244C164.655 116.31 164.668 116.376 164.668 116.443C164.681 116.509 164.694 116.575 164.72 116.641C164.76 116.774 164.838 116.88 164.93 116.985C165.022 117.091 165.127 117.171 165.245 117.237C165.494 117.343 165.782 117.356 166.031 117.263L165.337 115.344C165.271 115.37 165.205 115.37 165.153 115.41C165.101 115.436 165.048 115.476 165.009 115.529Z" fill="#F6D397"/>
<path d="M153.432 125.763C152.895 125.962 152.633 126.558 152.829 127.087C153.026 127.617 153.603 127.895 154.14 127.696C154.665 127.498 154.94 126.902 154.743 126.372C154.56 125.843 153.97 125.565 153.432 125.763Z" fill="#F6D397"/>
<path d="M134.5 132.74C133.963 132.938 133.701 133.534 133.897 134.064C134.094 134.593 134.671 134.871 135.208 134.686C135.733 134.488 136.008 133.892 135.811 133.362C135.615 132.819 135.025 132.541 134.5 132.74Z" fill="#F6D397"/>
<path d="M125.035 136.222C124.497 136.421 124.235 137.017 124.419 137.546C124.615 138.076 125.192 138.354 125.73 138.155C126.254 137.957 126.529 137.361 126.346 136.831C126.149 136.302 125.559 136.024 125.035 136.222Z" fill="#F6D397"/>
<path d="M115.556 139.706C115.018 139.905 114.743 140.5 114.939 141.03C115.136 141.56 115.726 141.838 116.264 141.639C116.788 141.44 117.05 140.858 116.867 140.315C116.67 139.799 116.093 139.521 115.556 139.706Z" fill="#F6D397"/>
<path d="M143.967 129.246C143.442 129.444 143.167 130.04 143.363 130.57C143.56 131.099 144.15 131.377 144.674 131.179C145.199 130.98 145.474 130.384 145.278 129.855C145.081 129.325 144.491 129.047 143.967 129.246Z" fill="#F6D397"/>
<path d="M106.076 143.203C105.552 143.401 105.277 143.997 105.473 144.527C105.67 145.056 106.26 145.334 106.784 145.149C107.322 144.95 107.584 144.355 107.387 143.825C107.191 143.282 106.614 143.004 106.076 143.203Z" fill="#F6D397"/>
<path d="M77.6657 153.659C77.1413 153.858 76.866 154.453 77.0627 154.983C77.2593 155.513 77.8493 155.791 78.3737 155.605C78.8981 155.407 79.1735 154.811 78.9768 154.281C78.7801 153.752 78.2033 153.474 77.6657 153.659Z" fill="#F6D397"/>
<path d="M68.1999 157.154C67.6755 157.353 67.4002 157.948 67.5837 158.478C67.7804 159.008 68.3704 159.286 68.8948 159.087C69.4192 158.888 69.6945 158.293 69.511 157.763C69.3143 157.234 68.7243 156.956 68.1999 157.154Z" fill="#F6D397"/>
<path d="M96.6111 146.682C96.0866 146.881 95.8113 147.477 96.008 148.006C96.2046 148.536 96.7946 148.814 97.319 148.629C97.8435 148.43 98.1188 147.834 97.9221 147.305C97.7255 146.775 97.1355 146.497 96.6111 146.682Z" fill="#F6D397"/>
<path d="M87.1448 150.179C86.6203 150.378 86.345 150.974 86.5417 151.503C86.7383 152.033 87.3283 152.311 87.8527 152.112C88.3772 151.914 88.6525 151.318 88.4689 150.789C88.2592 150.259 87.6692 149.981 87.1448 150.179Z" fill="#F6D397"/>
<path d="M163.501 122.245C163.436 122.218 163.37 122.218 163.305 122.218C163.239 122.205 163.174 122.218 163.095 122.232C162.898 122.258 162.715 122.351 162.57 122.496C162.466 122.589 162.387 122.695 162.334 122.827C162.282 122.947 162.256 123.079 162.243 123.211C162.23 123.344 162.256 123.476 162.295 123.609C162.387 123.873 162.584 124.072 162.82 124.191C163.069 124.31 163.357 124.31 163.606 124.218C163.659 124.191 163.737 124.178 163.777 124.125C163.842 124.085 163.895 124.045 163.934 124.006C163.986 123.966 164.026 123.913 164.065 123.86C164.118 123.807 164.144 123.741 164.183 123.688C164.209 123.622 164.222 123.569 164.249 123.503C164.262 123.436 164.275 123.357 164.275 123.291C164.288 123.225 164.275 123.158 164.275 123.092C164.262 123.026 164.249 122.96 164.222 122.894C164.131 122.642 163.934 122.43 163.698 122.324C163.632 122.285 163.567 122.258 163.501 122.245Z" fill="#F6D397"/>
<path d="M65.9845 164.027C65.8927 163.776 65.696 163.564 65.46 163.445C65.2109 163.325 64.9356 163.325 64.6865 163.418L65.3814 165.338C65.6305 165.245 65.8403 165.06 65.9583 164.808C66.0631 164.57 66.0762 164.279 65.9845 164.027Z" fill="#F6D397"/>
<path d="M74.1526 159.92C73.6281 160.118 73.3528 160.714 73.5364 161.244C73.733 161.786 74.323 162.051 74.8474 161.853C75.385 161.654 75.6472 161.072 75.4636 160.529C75.267 159.999 74.677 159.721 74.1526 159.92Z" fill="#F6D397"/>
<path d="M93.0842 152.943C92.5598 153.142 92.2845 153.738 92.4811 154.267C92.6778 154.81 93.2678 155.075 93.7922 154.876C94.3166 154.678 94.5919 154.095 94.3953 153.552C94.1986 153.023 93.6086 152.745 93.0842 152.943Z" fill="#F6D397"/>
<path d="M112.029 145.968C111.491 146.167 111.229 146.763 111.413 147.292C111.609 147.835 112.186 148.1 112.724 147.915C113.248 147.716 113.524 147.133 113.327 146.591C113.156 146.048 112.566 145.77 112.029 145.968Z" fill="#F6D397"/>
<path d="M102.563 149.452C102.026 149.651 101.764 150.246 101.96 150.776C102.157 151.319 102.734 151.584 103.271 151.385C103.796 151.186 104.071 150.604 103.874 150.061C103.678 149.545 103.088 149.267 102.563 149.452Z" fill="#F6D397"/>
<path d="M83.6184 156.426C83.094 156.625 82.8186 157.22 83.0022 157.75C83.1988 158.293 83.7888 158.558 84.3132 158.372C84.8508 158.174 85.113 157.591 84.9294 157.048C84.7328 156.519 84.1559 156.227 83.6184 156.426Z" fill="#F6D397"/>
<path d="M130.974 138.992C130.449 139.19 130.174 139.786 130.358 140.316C130.554 140.859 131.144 141.123 131.669 140.938C132.193 140.739 132.468 140.157 132.272 139.614C132.088 139.071 131.498 138.793 130.974 138.992Z" fill="#F6D397"/>
<path d="M159.384 128.531C158.86 128.73 158.585 129.325 158.781 129.855C158.978 130.398 159.568 130.662 160.092 130.477C160.617 130.279 160.892 129.696 160.696 129.153C160.499 128.61 159.909 128.332 159.384 128.531Z" fill="#F6D397"/>
<path d="M140.44 135.507C139.915 135.706 139.64 136.302 139.837 136.831C140.033 137.374 140.623 137.639 141.148 137.454C141.672 137.255 141.947 136.673 141.764 136.13C141.567 135.587 140.977 135.309 140.44 135.507Z" fill="#F6D397"/>
<path d="M149.919 132.011C149.394 132.209 149.119 132.805 149.316 133.335C149.512 133.877 150.102 134.142 150.627 133.944C151.151 133.745 151.426 133.163 151.23 132.62C151.033 132.103 150.443 131.825 149.919 132.011Z" fill="#F6D397"/>
<path d="M121.508 142.47C120.97 142.668 120.708 143.264 120.892 143.794C121.088 144.336 121.665 144.601 122.203 144.403C122.727 144.204 123.003 143.621 122.819 143.079C122.622 142.562 122.032 142.284 121.508 142.47Z" fill="#F6D397"/>
<path d="M168.273 125.578C168.221 125.698 168.195 125.83 168.195 125.962C168.195 126.095 168.208 126.227 168.247 126.36C168.339 126.624 168.536 126.836 168.772 126.942C168.837 126.969 168.903 126.995 168.968 127.008C169.034 127.035 169.099 127.035 169.165 127.048C169.231 127.048 169.296 127.048 169.362 127.035C169.427 127.035 169.493 127.008 169.545 126.982L168.85 125.049C168.601 125.142 168.391 125.34 168.273 125.578Z" fill="#F6D397"/>
<path d="M119.069 149.449C118.532 149.647 118.256 150.23 118.453 150.759C118.65 151.302 119.24 151.58 119.777 151.382C120.302 151.183 120.564 150.6 120.38 150.058C120.184 149.515 119.607 149.25 119.069 149.449Z" fill="#F6D397"/>
<path d="M81.1799 163.404C80.6555 163.602 80.3802 164.185 80.5637 164.715C80.7604 165.257 81.3503 165.535 81.8748 165.337C82.3992 165.138 82.6745 164.542 82.4779 164C82.2943 163.47 81.7174 163.205 81.1799 163.404Z" fill="#F6D397"/>
<path d="M156.959 135.494C156.422 135.692 156.159 136.275 156.343 136.804C156.54 137.347 157.116 137.625 157.654 137.427C158.178 137.228 158.454 136.632 158.257 136.089C158.074 135.56 157.484 135.295 156.959 135.494Z" fill="#F6D397"/>
<path d="M71.7136 166.884C71.1892 167.083 70.9138 167.665 71.0974 168.195C71.2941 168.738 71.884 169.016 72.4085 168.817C72.9329 168.619 73.2082 168.023 73.0115 167.48C72.828 166.95 72.238 166.686 71.7136 166.884Z" fill="#F6D397"/>
<path d="M109.591 152.93C109.066 153.128 108.791 153.711 108.974 154.24C109.171 154.783 109.761 155.061 110.285 154.863C110.823 154.664 111.085 154.068 110.889 153.525C110.705 153.009 110.128 152.731 109.591 152.93Z" fill="#F6D397"/>
<path d="M128.548 145.956C128.011 146.154 127.749 146.737 127.932 147.266C128.129 147.809 128.706 148.087 129.243 147.889C129.768 147.69 130.043 147.094 129.846 146.551C129.663 146.035 129.073 145.77 128.548 145.956Z" fill="#F6D397"/>
<path d="M138.014 142.47C137.477 142.669 137.215 143.251 137.398 143.781C137.595 144.324 138.172 144.602 138.709 144.403C139.234 144.205 139.509 143.609 139.312 143.066C139.129 142.536 138.539 142.272 138.014 142.47Z" fill="#F6D397"/>
<path d="M100.124 156.427C99.5998 156.626 99.3245 157.208 99.508 157.738C99.7047 158.281 100.295 158.559 100.819 158.36C101.344 158.162 101.619 157.566 101.422 157.023C101.239 156.493 100.649 156.229 100.124 156.427Z" fill="#F6D397"/>
<path d="M90.6589 159.906C90.1345 160.105 89.8592 160.687 90.0427 161.217C90.2394 161.76 90.8293 162.038 91.3538 161.839C91.8782 161.641 92.1535 161.045 91.9569 160.502C91.7733 159.986 91.1833 159.708 90.6589 159.906Z" fill="#F6D397"/>
<path d="M147.48 138.977C146.956 139.176 146.68 139.758 146.864 140.288C147.061 140.831 147.651 141.109 148.175 140.91C148.699 140.711 148.975 140.116 148.778 139.573C148.595 139.057 148.018 138.792 147.48 138.977Z" fill="#F6D397"/>
<path d="M167.212 132.04C167.146 132.013 167.08 131.987 167.015 131.974C166.962 131.961 166.884 131.961 166.818 131.947C166.753 131.947 166.687 131.947 166.622 131.961C166.294 132 165.992 132.239 165.848 132.543C165.796 132.662 165.769 132.795 165.756 132.927C165.743 133.073 165.769 133.192 165.822 133.337C165.914 133.589 166.11 133.801 166.346 133.907C166.595 134.026 166.884 134.039 167.133 133.946C167.185 133.92 167.251 133.893 167.303 133.854C167.369 133.814 167.408 133.774 167.461 133.735C167.513 133.682 167.552 133.629 167.592 133.589C167.631 133.523 167.67 133.47 167.697 133.404C167.723 133.351 167.736 133.284 167.762 133.218C167.788 133.152 167.788 133.086 167.788 133.02C167.802 132.953 167.788 132.874 167.775 132.821C167.762 132.755 167.749 132.689 167.723 132.636C167.67 132.503 167.605 132.397 167.513 132.291C167.434 132.172 167.33 132.093 167.212 132.04Z" fill="#F6D397"/>
<path d="M69.8522 174.725C69.7604 174.46 69.5637 174.262 69.3277 174.143C69.0786 174.024 68.8033 174.037 68.5542 174.129L69.2491 176.049C69.4982 175.956 69.7079 175.758 69.8259 175.506C69.9308 175.268 69.9439 174.977 69.8522 174.725Z" fill="#F6D397"/>
<path d="M87.4861 167.137C86.9616 167.335 86.6863 167.918 86.883 168.46C87.0796 168.99 87.6696 169.268 88.194 169.069C88.7316 168.871 88.9938 168.275 88.7971 167.746C88.6005 167.216 88.0236 166.938 87.4861 167.137Z" fill="#F6D397"/>
<path d="M96.9519 163.656C96.4274 163.854 96.1521 164.437 96.3357 164.98C96.5323 165.509 97.1223 165.787 97.6467 165.589C98.1712 165.39 98.4465 164.794 98.2629 164.265C98.0663 163.722 97.4763 163.457 96.9519 163.656Z" fill="#F6D397"/>
<path d="M144.307 146.207C143.783 146.406 143.508 146.989 143.704 147.531C143.901 148.061 144.491 148.339 145.015 148.14C145.54 147.942 145.815 147.346 145.618 146.816C145.422 146.287 144.832 146.022 144.307 146.207Z" fill="#F6D397"/>
<path d="M134.842 149.701C134.317 149.899 134.042 150.482 134.238 151.024C134.435 151.554 135.025 151.832 135.55 151.634C136.074 151.435 136.349 150.839 136.153 150.31C135.956 149.767 135.366 149.502 134.842 149.701Z" fill="#F6D397"/>
<path d="M106.431 160.16C105.893 160.358 105.631 160.941 105.815 161.484C106.011 162.013 106.588 162.291 107.126 162.106C107.65 161.907 107.912 161.325 107.729 160.782C107.532 160.239 106.955 159.961 106.431 160.16Z" fill="#F6D397"/>
<path d="M153.786 142.722C153.262 142.921 152.987 143.503 153.183 144.046C153.38 144.576 153.97 144.854 154.494 144.655C155.019 144.456 155.294 143.861 155.111 143.331C154.888 142.788 154.311 142.523 153.786 142.722Z" fill="#F6D397"/>
<path d="M115.897 156.677C115.359 156.876 115.097 157.458 115.294 158.001C115.49 158.531 116.067 158.809 116.605 158.61C117.129 158.411 117.404 157.816 117.208 157.286C117.011 156.743 116.434 156.479 115.897 156.677Z" fill="#F6D397"/>
<path d="M125.376 153.183C124.838 153.382 124.576 153.965 124.773 154.507C124.969 155.037 125.546 155.315 126.084 155.116C126.608 154.918 126.883 154.322 126.687 153.792C126.49 153.263 125.9 152.985 125.376 153.183Z" fill="#F6D397"/>
<path d="M163.252 139.227C162.728 139.426 162.452 140.008 162.649 140.551C162.846 141.08 163.436 141.358 163.96 141.16C164.485 140.961 164.76 140.366 164.563 139.836C164.367 139.306 163.777 139.042 163.252 139.227Z" fill="#F6D397"/>
<path d="M78.0071 170.62C77.4826 170.818 77.2073 171.401 77.404 171.943C77.6006 172.473 78.1906 172.751 78.715 172.552C79.2526 172.354 79.5148 171.758 79.3181 171.229C79.1215 170.699 78.5446 170.434 78.0071 170.62Z" fill="#F6D397"/>
<path d="M172.377 135.945C172.325 135.998 172.285 136.051 172.246 136.104C172.194 136.157 172.167 136.209 172.128 136.276C172.023 136.527 172.01 136.805 172.102 137.07C172.194 137.322 172.39 137.533 172.626 137.639C172.692 137.666 172.757 137.692 172.823 137.706C172.875 137.719 172.954 137.732 173.02 137.732C173.085 137.745 173.151 137.732 173.216 137.719C173.282 137.706 173.347 137.692 173.4 137.666L172.705 135.746C172.639 135.773 172.574 135.773 172.521 135.812C172.482 135.865 172.43 135.905 172.377 135.945Z" fill="#F6D397"/>
<path d="M151.348 149.675C150.823 149.873 150.548 150.469 150.745 150.999C150.941 151.528 151.531 151.806 152.056 151.621C152.58 151.422 152.856 150.826 152.659 150.297C152.462 149.767 151.872 149.489 151.348 149.675Z" fill="#F6D397"/>
<path d="M132.403 156.65C131.866 156.849 131.603 157.445 131.8 157.974C131.997 158.504 132.574 158.782 133.111 158.583C133.635 158.385 133.911 157.789 133.727 157.259C133.517 156.73 132.941 156.452 132.403 156.65Z" fill="#F6D397"/>
<path d="M94.5134 170.607C93.989 170.806 93.7137 171.402 93.8972 171.931C94.0939 172.461 94.6838 172.739 95.2083 172.54C95.7327 172.342 96.008 171.746 95.8245 171.216C95.6409 170.687 95.0509 170.409 94.5134 170.607Z" fill="#F6D397"/>
<path d="M141.882 153.17C141.345 153.368 141.082 153.964 141.279 154.494C141.476 155.023 142.053 155.301 142.59 155.103C143.115 154.904 143.39 154.308 143.206 153.779C142.997 153.249 142.407 152.971 141.882 153.17Z" fill="#F6D397"/>
<path d="M122.937 160.148C122.399 160.347 122.124 160.943 122.321 161.472C122.517 162.002 123.107 162.28 123.645 162.081C124.169 161.883 124.432 161.3 124.248 160.757C124.038 160.228 123.461 159.95 122.937 160.148Z" fill="#F6D397"/>
<path d="M85.0476 174.089C84.5232 174.287 84.2478 174.883 84.4314 175.413C84.628 175.942 85.218 176.22 85.7424 176.022C86.2669 175.823 86.5422 175.227 86.3586 174.698C86.162 174.181 85.572 173.903 85.0476 174.089Z" fill="#F6D397"/>
<path d="M75.5813 177.586C75.0568 177.784 74.7815 178.38 74.9651 178.91C75.1617 179.439 75.7517 179.717 76.2761 179.519C76.8006 179.32 77.0759 178.724 76.8923 178.195C76.6957 177.665 76.1057 177.387 75.5813 177.586Z" fill="#F6D397"/>
<path d="M160.814 146.191C160.276 146.39 160.014 146.986 160.211 147.515C160.407 148.045 160.984 148.323 161.522 148.124C162.046 147.926 162.321 147.33 162.125 146.8C161.928 146.271 161.338 145.993 160.814 146.191Z" fill="#F6D397"/>
<path d="M113.458 163.629C112.934 163.827 112.658 164.423 112.855 164.953C113.052 165.482 113.642 165.76 114.166 165.562C114.704 165.363 114.966 164.767 114.769 164.238C114.573 163.708 113.996 163.43 113.458 163.629Z" fill="#F6D397"/>
<path d="M103.992 167.125C103.467 167.323 103.192 167.919 103.389 168.449C103.585 168.978 104.175 169.256 104.7 169.058C105.224 168.859 105.5 168.263 105.303 167.734C105.106 167.204 104.516 166.926 103.992 167.125Z" fill="#F6D397"/>
<path d="M171.066 142.737C171 142.711 170.935 142.684 170.869 142.684C170.804 142.658 170.738 142.658 170.673 142.658C170.607 142.645 170.542 142.658 170.463 142.671C170.266 142.698 170.083 142.79 169.939 142.936C169.834 143.029 169.755 143.134 169.689 143.254C169.637 143.373 169.611 143.505 169.598 143.651C169.585 143.783 169.611 143.916 169.65 144.048C169.742 144.3 169.939 144.511 170.175 144.631C170.424 144.736 170.712 144.75 170.961 144.657C171.014 144.631 171.079 144.604 171.132 144.564C171.197 144.525 171.25 144.485 171.289 144.445C171.341 144.405 171.381 144.352 171.42 144.3C171.459 144.233 171.499 144.18 171.538 144.127C171.564 144.061 171.577 144.008 171.604 143.929C171.63 143.863 171.63 143.796 171.63 143.73C171.643 143.664 171.63 143.598 171.617 143.532C171.604 143.465 171.59 143.399 171.564 143.346C171.525 143.214 171.446 143.108 171.354 143.002C171.289 142.87 171.184 142.79 171.066 142.737Z" fill="#F6D397"/>
<path d="M133.347 162.582L117.995 168.235L95.3657 96.5306L104.006 93.3398L133.347 162.582Z" fill="#FF5252"/>
<path d="M100.82 96.5838C97.2796 87.0514 86.7256 79.1872 76.1978 81.8483C71.2682 83.0928 69.4458 88.4416 72.9857 92.6252C76.1846 96.3985 86.0832 97.4576 90.685 98.6624C92.4549 99.1258 97.0043 100.873 98.2498 98.9802C99.6395 96.8751 97.4239 96.5706 96.3357 95.9616C90.5801 92.7179 82.8842 95.2334 80.7078 87.9252C87.8138 84.3373 94.2904 95.3526 100.82 96.5838Z" fill="#FF5252"/>
<path d="M96.5981 98.1335C93.2286 88.5481 96.2965 75.6529 106.051 70.8602C110.613 68.6095 115.425 71.5089 115.372 77.0298C115.333 81.9946 108.437 89.2498 105.684 93.1555C104.622 94.6515 102.262 98.9543 100.099 98.3189C97.6994 97.6172 99.194 95.949 99.6397 94.7574C101.973 88.5349 109.473 85.4501 106.47 78.4464C98.7482 80.3132 100.807 92.9436 96.5981 98.1335Z" fill="#FF5252"/>
<path d="M97.6206 93.2745C94.2774 92.1359 89.3085 96.73 87.237 98.7159C84.7853 101.073 79.1084 107.48 80.0261 111.24C81.075 109.85 83.0416 108.897 84.7853 108.487C85.3622 109.586 85.9915 111.333 87.1452 111.849C88.6923 106.435 94.0021 100.622 98.0008 96.8492C98.2499 96.6109 100.335 95.3002 100.413 94.9692C100.688 93.7379 98.6039 93.1554 97.6206 93.2745Z" fill="#FF5252"/>
<path d="M98.1058 93.103C99.9413 90.0579 106.667 90.336 109.525 90.5213C112.908 90.7331 121.325 91.9512 123.029 95.4199C121.338 95.0492 119.227 95.5788 117.628 96.4129C117.89 97.6177 118.519 99.3785 117.955 100.517C113.314 97.3793 105.553 96.3864 100.086 96.0951C99.7315 96.0819 97.3061 96.4261 97.0439 96.2275C96.0343 95.4464 97.2667 93.6458 98.1058 93.103Z" fill="#FF5252"/>
<path d="M262.605 42.0004C256.988 38.8029 247.47 38.2974 242.977 33.1663C240.667 30.5375 243.873 26.6323 245.451 23.7382C249.793 25.7097 253.58 30.0194 257.379 32.7366C257.758 28.5281 256.041 23.9151 256.697 19.8203C259.222 20.3764 261.91 19.9846 264.435 20.1363C264.498 23.1568 265.583 26.1268 266.126 29.1094C266.505 31.1568 266.593 34.0383 267.729 35.7192C269.749 32.6987 271.857 29.7666 273.687 26.645C274.747 24.8377 275.113 23.814 277.448 24.1426C278.572 24.3069 283.065 26.329 283.444 27.4664C284.214 29.7287 278.875 36.4649 277.852 38.5628C280.579 36.4649 284.668 35.9088 287.622 34.013C289.402 35.5549 289.705 38.3227 291.989 39.3843C291.257 41.457 289.743 43.062 287.862 44.2247C286.41 45.1347 284.555 45.2232 283.394 45.9183C285.451 47.1189 287.559 48.8124 289.781 49.6718C289.503 51.656 288.077 53.8045 287.142 55.6244C278.774 54.0699 265.798 50.0889 262.605 42.0004Z" fill="#235587"/>
<path d="M301.343 61.7798L228.431 26.252L191.23 102.79L264.142 138.318L301.343 61.7798Z" fill="#FFC217"/>
<path d="M237.562 45.7438L242.901 44.2272L244.681 38.957L247.774 43.57L253.315 43.6332L249.894 48.006L251.548 53.3141L246.335 51.3931L241.816 54.6158L242.018 49.055L237.562 45.7438Z" fill="#FFEAC5"/>
<path d="M242.459 76.9062L237.928 76.0595L234.659 79.3201L234.053 74.7324L229.951 72.6345L234.116 70.6503L234.848 66.0879L238.016 69.437L242.586 68.7293L240.377 72.7862L242.459 76.9062Z" fill="#FFEAC5"/>
<path d="M272.753 77.0445L275.884 75.4647L276.351 71.9766L278.825 74.4663L282.271 73.8344L280.68 76.9687L282.346 80.0524L278.875 79.4963L276.452 82.0366L275.909 78.5737L272.753 77.0445Z" fill="#FFEAC5"/>
<path d="M265.066 57.4181L264.536 56.129L263.186 55.8383L264.246 54.941L264.094 53.5508L265.281 54.2838L266.556 53.7151L266.228 55.0674L267.149 56.1037L265.773 56.2175L265.066 57.4181Z" fill="#FFEAC5"/>
<path d="M248.379 90.3141L252.431 86.1055L251.27 80.3678L256.521 82.9333L261.608 80.0645L260.8 85.8528L265.104 89.8085L259.348 90.8196L256.925 96.1403L254.186 90.9712L248.379 90.3141Z" fill="#FFEAC5"/>
<path d="M227.363 58.1131L226.82 54.8272L223.804 53.399L226.77 51.8698L227.187 48.5586L229.56 50.9093L232.829 50.2774L231.327 53.26L232.942 56.1921L229.648 55.6866L227.363 58.1131Z" fill="#FFEAC5"/>
<path d="M214.059 69.2751L216.318 67.6574L216.255 64.877L218.502 66.5199L221.128 65.61L220.257 68.2514L221.935 70.463L219.146 70.4504L217.568 72.7379L216.722 70.0839L214.059 69.2751Z" fill="#FFEAC5"/>
<path d="M214.425 93.3473L211.547 89.6949L206.902 89.9982L209.49 86.1309L207.761 81.8086L212.229 83.0725L215.801 80.0898L215.99 84.7407L219.916 87.2178L215.561 88.8355L214.425 93.3473Z" fill="#FFEAC5"/>
<path d="M228.688 95.1435L229.547 92.3504L227.729 90.0503L230.645 89.9997L232.26 87.5605L233.207 90.3283L236.022 91.1119L233.699 92.8812L233.813 95.8007L231.427 94.1198L228.688 95.1435Z" fill="#FFEAC5"/>
<path d="M239.001 109.601L237.84 107.238L235.24 106.872L237.108 105.026L236.666 102.436L238.989 103.661L241.311 102.436L240.869 105.026L242.763 106.859L240.162 107.238L239.001 109.601Z" fill="#FFEAC5"/>
<path d="M259.5 108.516L264.865 106.266L266.051 100.566L269.85 104.977L275.631 104.345L272.615 109.325L275 114.633L269.345 113.306L265.029 117.211L264.549 111.41L259.5 108.516Z" fill="#FFEAC5"/>
<path d="M278.976 90.8226L277.234 90.7594L276.199 92.1749L275.719 90.494L274.066 89.9506L275.505 88.9648L275.517 87.2207L276.893 88.2823L278.559 87.7515L277.966 89.3945L278.976 90.8226Z" fill="#FFEAC5"/>
<path d="M255.322 61.2496L256.142 60.921L256.332 60.0742L256.887 60.744L257.758 60.6556L257.291 61.4012L257.644 62.1974L256.799 61.9826L256.142 62.5639L256.079 61.6919L255.322 61.2496Z" fill="#FFEAC5"/>
<path d="M280.642 65.0144L276.111 63.7126L272.475 66.7205L272.299 62.0065L268.31 59.4662L272.741 57.8485L273.927 53.2734L276.83 56.9891L281.538 56.6984L278.913 60.6163L280.642 65.0144Z" fill="#FFEAC5"/>
<path d="M286.297 69.2725L288.733 67.9455L289.011 65.1777L291.03 67.0861L293.744 66.5047L292.558 69.0071L293.946 71.421L291.194 71.0545L289.351 73.1272L288.834 70.3973L286.297 69.2725Z" fill="#FFEAC5"/>
<path d="M232.766 39.4737L231.453 36.9713L228.651 36.6554L230.607 34.6206L230.052 31.8528L232.589 33.0914L235.05 31.7012L234.647 34.5069L236.729 36.4152L233.952 36.8955L232.766 39.4737Z" fill="#FFEAC5"/>
<path d="M200.528 97.1031L199.216 95.7129L197.322 96.0162L198.231 94.3227L197.36 92.6165L199.241 92.9704L200.591 91.6055L200.844 93.5138L202.561 94.3732L200.831 95.2074L200.528 97.1031Z" fill="#FFEAC5"/>
<path d="M216.154 105.192L219.891 103.385L220.509 99.2773L223.387 102.273L227.477 101.59L225.52 105.255L227.426 108.946L223.349 108.213L220.433 111.17L219.865 107.062L216.154 105.192Z" fill="#FFEAC5"/>
<path d="M208.101 106.341L205.943 104.786L203.431 105.684L204.239 103.144L202.598 101.033L205.274 101.02L206.776 98.8086L207.609 101.349L210.172 102.095L208.026 103.674L208.101 106.341Z" fill="#FFEAC5"/>
<path d="M250.601 124.429L252.621 121.168L251.081 117.642L254.804 118.565L257.67 116.012L257.947 119.841L261.254 121.775L257.707 123.228L256.887 126.982L254.413 124.05L250.601 124.429Z" fill="#FFEAC5"/>
<path d="M260.876 133.69L259.891 132.01L257.947 131.883L259.235 130.43L258.755 128.547L260.535 129.305L262.188 128.281L261.999 130.215L263.488 131.453L261.595 131.883L260.876 133.69Z" fill="#FFEAC5"/>
<path d="M234.823 118.182L237.764 116.236L237.827 112.697L240.592 114.896L243.962 113.873L242.737 117.184L244.757 120.065L241.235 119.914L239.102 122.732L238.168 119.332L234.823 118.182Z" fill="#FFEAC5"/>
<path d="M254.615 103.118L252.999 103.131L252.09 104.458L251.585 102.929L250.033 102.474L251.333 101.513L251.282 99.9082L252.595 100.843L254.11 100.3L253.617 101.842L254.615 103.118Z" fill="#FFEAC5"/>
<path d="M286.766 91.7563L213.854 56.2285L208.761 66.7064L281.673 102.234L286.766 91.7563Z" fill="#235587"/>
<path d="M234.495 123.872L222.92 118.223L256.521 39.9414L274.116 48.5228L234.495 123.872Z" fill="#3369AA"/>
<path d="M259.563 42.6445C255.271 40.7993 244.227 32.2938 247.042 26.5307C247.572 25.4438 251.775 22.8404 252.999 23.2701C254.022 23.6366 254.83 27.466 255.208 28.3506C256.092 30.4865 257.834 32.7993 257.909 35.011C259.273 32.1674 258.111 28.4138 259.727 25.684C260.548 24.2938 259.891 24.8751 261.418 24.635C263.388 24.3317 266.329 25.1532 268.285 25.545C268.601 28.9826 268.02 32.7614 267.477 36.1484C268.967 33.9747 270.696 31.1058 272.488 29.1216C274.432 26.9478 275.227 28.5276 277.676 30.2843C279.759 31.763 280.213 32.1168 278.661 34.7456C277.361 36.9194 275.429 39.1942 273.94 41.1153C277.739 39.9778 281.602 39.2448 284.782 36.7172C285.729 37.8167 287.9 42.3032 287.623 43.7061C286.928 47.2195 280.226 47.8135 277.714 47.9652C273.574 48.2053 269.724 47.3712 265.975 45.7788C264.486 45.1469 259.184 43.2006 259.563 42.6445Z" fill="#3369AA"/>
<path d="M12.1439 85.8926L8.11137 93.2521L0.749023 97.2832L8.11137 101.314L12.1439 108.674L16.2136 101.314L23.5388 97.2832L16.2136 93.2521L12.1439 85.8926Z" fill="#DFBE00"/>
<path d="M195.655 0L192.147 6.43535L185.744 9.91044L192.147 13.4177L195.655 19.8209L199.162 13.4177L205.565 9.91044L199.162 6.43535L195.655 0Z" fill="#DFBE00"/>
<path d="M216.577 138.746L212.672 145.872L205.565 149.758L212.672 153.663L216.577 160.769L220.462 153.663L227.588 149.758L220.462 145.872L216.577 138.746Z" fill="#DFBE00"/>
<path d="M74.2172 12.6977L76.092 22.5955L72.3479 31.9145L82.2131 30.0329L91.5654 33.7766L89.672 23.8942L93.4347 14.5598L83.5509 16.4568L74.2172 12.6977Z" fill="#DFBE00"/>
</svg>
