<svg width="40" height="40" viewBox="0 0 40 40" fill="none" xmlns="http://www.w3.org/2000/svg">
<path d="M26.0472 15.963H23.8339C23.641 15.2337 23.3001 14.5519 22.8324 13.96H26.0472C26.3128 13.96 26.5676 13.8545 26.7554 13.6667C26.9432 13.4789 27.0487 13.2241 27.0487 12.9585C27.0487 12.6929 26.9432 12.4382 26.7554 12.2504C26.5676 12.0625 26.3128 11.957 26.0472 11.957H15.0307C14.7651 11.957 14.5104 12.0625 14.3226 12.2504C14.1347 12.4382 14.0292 12.6929 14.0292 12.9585C14.0292 13.2241 14.1347 13.4789 14.3226 13.6667C14.5104 13.8545 14.7651 13.96 15.0307 13.96H18.536C19.1972 13.9624 19.8443 14.1517 20.4025 14.5061C20.9607 14.8605 21.4073 15.3656 21.6907 15.963H15.0307C14.7651 15.963 14.5104 16.0685 14.3226 16.2564C14.1347 16.4442 14.0292 16.6989 14.0292 16.9645C14.0292 17.2301 14.1347 17.4849 14.3226 17.6727C14.5104 17.8605 14.7651 17.966 15.0307 17.966H22.0412C21.9212 18.7979 21.5062 19.5589 20.872 20.1104C20.2378 20.6619 19.4265 20.9671 18.5861 20.9705H15.0307C14.9841 20.9658 14.9371 20.9658 14.8905 20.9705C14.8242 20.9602 14.7566 20.9602 14.6902 20.9705C14.622 20.9938 14.5578 21.0276 14.4999 21.0707L14.3798 21.1408C14.3249 21.1903 14.2777 21.2477 14.2395 21.311C14.206 21.3554 14.1759 21.4023 14.1494 21.4512C14.1405 21.511 14.1405 21.5718 14.1494 21.6315C14.078 21.7314 14.0364 21.8495 14.0292 21.972C14.0245 22.0186 14.0245 22.0656 14.0292 22.1122C14.0189 22.1786 14.0189 22.2462 14.0292 22.3125C14.0525 22.3808 14.0863 22.445 14.1294 22.5028C14.1294 22.5028 14.1294 22.5829 14.1995 22.623L20.2085 29.6335C20.3811 29.8354 20.6269 29.9604 20.8917 29.981C21.1565 30.0017 21.4187 29.9163 21.6206 29.7437C21.8225 29.571 21.9475 29.3252 21.9681 29.0604C21.9888 28.7956 21.9034 28.5334 21.7308 28.3315L17.214 22.9735H18.536C19.9141 22.9792 21.2443 22.4681 22.264 21.5411C23.2838 20.6141 23.919 19.3385 24.0442 17.966H26.0472C26.3128 17.966 26.5676 17.8605 26.7554 17.6727C26.9432 17.4849 27.0487 17.2301 27.0487 16.9645C27.0487 16.6989 26.9432 16.4442 26.7554 16.2564C26.5676 16.0685 26.3128 15.963 26.0472 15.963Z" fill="#2CAA89"/>
<path d="M21.9329 0V4.04607C30.7261 5.12769 36.9554 13.1197 35.8738 21.9129C34.9524 29.2038 29.2238 34.9925 21.9329 35.8538V39.8598C32.9494 38.7581 40.9614 28.9835 39.8598 17.967C38.9584 8.45268 31.4071 0.941412 21.9329 0ZM17.9269 0.0600901C14.021 0.440661 10.2954 1.94291 7.25088 4.4667L10.1152 7.43115C12.3585 5.62844 15.0626 4.4667 17.9269 4.0661V0.0600901ZM4.42664 7.29094C1.92219 10.3302 0.380975 14.0472 0 17.967H4.00601C4.38658 15.1227 5.50826 12.4186 7.29094 10.1552L4.42664 7.29094ZM0.02003 21.973C0.420631 25.8988 1.96294 29.6044 4.44667 32.649L7.29094 29.7847C5.52214 27.5205 4.3945 24.8224 4.02604 21.973H0.02003ZM10.1152 32.7291L7.25088 35.4732C10.285 38.0024 13.9995 39.5774 17.9269 40V35.994C15.0774 35.6255 12.3794 34.4979 10.1152 32.7291Z" fill="#28B1B5"/>
</svg>
