<svg width="44" height="39" viewBox="0 0 44 39" fill="none" xmlns="http://www.w3.org/2000/svg">
<path d="M18.7267 3.84292L2.51305 30.9102C2.17876 31.4892 2.00189 32.1455 2.00002 32.814C1.99814 33.4825 2.17134 34.1398 2.50238 34.7206C2.83342 35.3014 3.31076 35.7853 3.88692 36.1243C4.46307 36.4634 5.11795 36.6456 5.7864 36.653H38.2136C38.8821 36.6456 39.5369 36.4634 40.1131 36.1243C40.6892 35.7853 41.1666 35.3014 41.4976 34.7206C41.8287 34.1398 42.0019 33.4825 42 32.814C41.9981 32.1455 41.8212 31.4892 41.4869 30.9102L25.2733 3.84292C24.9321 3.28034 24.4516 2.8152 23.8782 2.4924C23.3049 2.16959 22.658 2 22 2C21.342 2 20.6951 2.16959 20.1218 2.4924C19.5484 2.8152 19.0679 3.28034 18.7267 3.84292V3.84292Z" stroke="#FE1D39" stroke-width="4" stroke-linecap="round" stroke-linejoin="round"/>
<path d="M22 13.6868V21.3437" stroke="#FE1D39" stroke-width="4" stroke-linecap="round" stroke-linejoin="round"/>
<path d="M22 28.9993H22.0191" stroke="#FE1D39" stroke-width="4" stroke-linecap="round" stroke-linejoin="round"/>
</svg>
