<svg width="27" height="31" viewBox="0 0 27 31" fill="none" xmlns="http://www.w3.org/2000/svg">
<g clip-path="url(#clip0)">
<path d="M13.5004 3.79883C6.04402 3.79883 0 9.88845 0 17.3993C0 24.9102 6.04402 30.9998 13.5004 30.9998C20.9568 30.9998 27.0008 24.911 27.0008 17.3993C27.0008 9.88766 20.956 3.79883 13.5004 3.79883ZM13.5004 28.0504C7.66152 28.0504 2.92769 23.2815 2.92769 17.3993C2.92769 11.5172 7.66073 6.74823 13.5004 6.74823C19.3401 6.74823 24.0731 11.5172 24.0731 17.3993C24.0731 23.2815 19.3393 28.0504 13.5004 28.0504Z" fill="#28B1B5"/>
<path d="M13.5007 8.30469C13.4527 8.30469 13.4056 8.30548 13.3584 8.30627V17.3983L18.9733 24.6305C21.1339 22.9686 22.5282 20.3477 22.5282 17.3983C22.5274 12.3768 18.486 8.30469 13.5007 8.30469Z" fill="#2CAA89"/>
<path d="M24.969 8.78428L22.0657 5.85942C21.9156 5.70819 21.9156 5.46115 22.0657 5.30992L23.2902 4.07631C23.4404 3.92508 23.6856 3.92508 23.8357 4.07631L26.739 7.00117C26.8891 7.15241 26.8891 7.39944 26.739 7.55067L25.5145 8.78428C25.3636 8.93472 25.1184 8.93472 24.969 8.78428Z" fill="#28B1B5"/>
<path d="M16.4871 2.52184H10.4164C10.2042 2.52184 10.0312 2.34685 10.0312 2.13386V0.387975C10.0312 0.174193 10.2049 0 10.4164 0H16.4871C16.6993 0 16.8722 0.174985 16.8722 0.387975V2.13307C16.8722 2.34685 16.6993 2.52184 16.4871 2.52184Z" fill="#28B1B5"/>
<path d="M14.717 1.40234H12.2451V5.15857H14.717V1.40234Z" fill="#28B1B5"/>
</g>
<defs>
<clipPath id="clip0">
<rect width="27" height="31" fill="white"/>
</clipPath>
</defs>
</svg>
