<svg width="40" height="40" viewBox="0 0 40 40" fill="none" xmlns="http://www.w3.org/2000/svg">
<path d="M21.9543 0V4.04607C30.756 5.12769 36.9914 13.1197 35.9088 21.9129C34.9865 29.2038 29.2523 34.9925 21.9543 35.8538V39.8598C32.9815 38.7581 41.0014 28.9835 39.8986 17.967C38.9964 8.45268 31.4377 0.941412 21.9543 0ZM17.9444 0.0600901C14.0347 0.440661 10.3055 1.94291 7.25794 4.4667L10.125 7.43115C12.3706 5.62844 15.0773 4.4667 17.9444 4.0661V0.0600901ZM4.43095 7.29094C1.92407 10.3302 0.381347 14.0472 0 17.967H4.00991C4.39086 15.1227 5.51363 12.4186 7.29804 10.1552L4.43095 7.29094ZM0.0200495 21.973C0.421041 25.8988 1.96486 29.6044 4.451 32.649L7.29804 29.7847C5.52752 27.5205 4.39878 24.8224 4.02996 21.973H0.0200495ZM10.125 32.7291L7.25794 35.4732C10.295 38.0024 14.0132 39.5774 17.9444 40V35.994C15.0921 35.6255 12.3914 34.4979 10.125 32.7291Z" fill="#28B1B5"/>
<path d="M18.75 9V19.9016L27 25.4459L25.625 28L16 21.459V9H18.75Z" fill="#2CAA89"/>
</svg>
