<svg width="38" height="31" viewBox="0 0 38 31" fill="none" xmlns="http://www.w3.org/2000/svg">
<path d="M11.7075 13.7436C15.4027 13.7436 18.3975 10.6674 18.3975 6.87178C18.3975 3.0762 15.4027 0 11.7075 0C8.01231 0 5.01749 3.0762 5.01749 6.87178C5.01749 10.6674 8.01231 13.7436 11.7075 13.7436ZM16.3905 15.4615H15.5176C14.3573 16.0091 13.0664 16.3205 11.7075 16.3205C10.3486 16.3205 9.06284 16.0091 7.89732 15.4615H7.02449C3.14638 15.4615 0 18.6934 0 22.6769V24.9102C0 26.3329 1.12371 27.4871 2.50875 27.4871H20.9062C22.2913 27.4871 23.415 26.3329 23.415 24.9102V22.6769C23.415 18.6934 20.2686 15.4615 16.3905 15.4615Z" fill="#28B1B5"/>
<circle cx="27.4871" cy="20.3601" r="9.02904" fill="#2CAA89" stroke="white" stroke-width="2.30275"/>
<path d="M30 18V17H25V18H26.5909C27.1827 18 27.6823 18.419 27.8705 19H25V20H27.8705C27.7771 20.2916 27.6041 20.5443 27.3749 20.7234C27.1458 20.9024 26.872 20.9991 26.5909 21H25V22.207L27.5391 25H28.8245L26.0973 22H26.5909C27.1145 21.9992 27.6219 21.7999 28.0275 21.4355C28.433 21.0712 28.712 20.5642 28.8173 20H30V19H28.8173C28.7476 18.6361 28.604 18.2942 28.3973 18H30Z" fill="white"/>
</svg>
