<svg width="35" height="33" viewBox="0 0 35 33" fill="none" xmlns="http://www.w3.org/2000/svg">
<path d="M13.8436 0L22.1628 8.45212V25.3564C22.1628 26.1047 21.892 26.7541 21.3504 27.3043C20.8088 27.8546 20.1697 28.1297 19.4331 28.1297H2.72973C1.99314 28.1297 1.35403 27.8546 0.81242 27.3043C0.270807 26.7541 0 26.1047 0 25.3564V2.77335C0 2.02499 0.270807 1.37567 0.81242 0.825402C1.35403 0.275134 2.0148 0 2.79472 0H13.8436ZM11.5239 19.1073V16.2679H3.81962V19.1073H11.5239ZM14.9335 13.4946V10.6552H3.81962V13.4946H14.9335Z" fill="#28B1B5"/>
<circle cx="25.1578" cy="22.6016" r="8.66313" fill="#2CAA89" stroke="white" stroke-width="2.30275"/>
<path d="M24.6996 17.9004C23.5333 17.9004 22.6689 18.2328 22.1201 18.7443C21.5712 19.2557 21.3792 19.895 21.3105 20.3809L22.6826 20.5471C22.7375 20.2275 22.8473 19.9078 23.108 19.6649C23.3687 19.422 23.7803 19.179 24.6996 19.179C25.6052 19.179 26.0992 19.3836 26.3736 19.6137C26.648 19.8439 26.7578 20.1252 26.7578 20.4576C26.7578 21.5189 26.2913 21.813 25.6052 22.3756C24.9192 22.9382 24.0136 23.7565 24.0136 25.2525V25.5721H25.3857V25.2525C25.3857 24.1912 25.811 23.8971 26.4971 23.3345C27.1831 22.7719 28.1299 21.9536 28.1299 20.4576C28.1299 19.8439 27.8966 19.1534 27.3203 18.6548C26.7303 18.1561 25.8522 17.9004 24.6996 17.9004ZM24.0136 26.8508V28.1294H25.3857V26.8508H24.0136Z" fill="white" stroke="white" stroke-width="0.2" stroke-linecap="round" stroke-linejoin="round"/>
<path d="M30.4736 28.293L19.1821 17.513" stroke="white" stroke-width="1.5"/>
</svg>
