<svg width="42" height="42" viewBox="0 0 42 42" fill="none" xmlns="http://www.w3.org/2000/svg">
<path d="M21 41C17.3802 41 14.0339 40.1081 10.9609 38.3242C7.88802 36.5404 5.45964 34.112 3.67578 31.0391C1.89193 27.9661 1 24.6198 1 21C1 17.3802 1.89193 14.0339 3.67578 10.9609C5.45964 7.88802 7.88802 5.45964 10.9609 3.67578C14.0339 1.89193 17.3802 1 21 1C24.6198 1 27.9661 1.89193 31.0391 3.67578C34.112 5.45964 36.5404 7.88802 38.3242 10.9609C40.1081 14.0339 41 17.3802 41 21C41 24.6198 40.1081 27.9661 38.3242 31.0391C36.5404 34.112 34.112 36.5404 31.0391 38.3242C27.9661 40.1081 24.6198 41 21 41ZM3.5 21C3.5 23.3698 3.96224 25.6354 4.88672 27.7969C5.8112 29.9583 7.05469 31.8203 8.61719 33.3828C10.1797 34.9453 12.0417 36.1888 14.2031 37.1133C16.3646 38.0378 18.6302 38.5 21 38.5C23.3698 38.5 25.6354 38.0378 27.7969 37.1133C29.9583 36.1888 31.8203 34.9453 33.3828 33.3828C34.9453 31.8203 36.1888 29.9583 37.1133 27.7969C38.0378 25.6354 38.5 23.3698 38.5 21H21V3.5C18.6302 3.5 16.3646 3.96224 14.2031 4.88672C12.0417 5.8112 10.1797 7.05469 8.61719 8.61719C7.05469 10.1797 5.8112 12.0417 4.88672 14.2031C3.96224 16.3646 3.5 18.6302 3.5 21Z" fill="#015C8C" stroke="#015C8C"/>
</svg>
