<svg width="102" height="33" viewBox="0 0 102 33" fill="none" xmlns="http://www.w3.org/2000/svg">
<g clip-path="url(#clip0_395_901)">
<path d="M0 3.05599C0 1.36756 1.36756 0 3.05599 0H55.7719V32.4699H3.05599C1.36756 32.4699 0 31.1024 0 29.4139V3.05599Z" fill="#26358F"/>
<path d="M55.7717 0H98.5556C100.244 0 101.612 1.36756 101.612 3.05599V29.4139C101.612 31.1024 100.244 32.4699 98.5556 32.4699H55.7717V0Z" fill="#FF5D24"/>
<path d="M69.0004 10.5393C68.9699 10.4973 68.9202 10.4706 68.9049 10.5393C68.8858 10.6272 69.0501 10.6157 69.1341 10.6501C69.2487 10.696 69.3595 10.7418 69.4741 10.78C70.1044 10.9939 70.5437 11.4218 70.8951 11.968C71.1702 12.392 71.2657 12.8581 71.323 13.3547C71.4299 14.2409 71.2045 15.0087 70.6315 15.6849C70.2381 16.1509 69.6842 16.3801 69.1685 16.6666C69.1303 16.6857 69.1265 16.7354 69.1685 16.7163C69.1685 16.7163 69.1723 16.7163 69.1761 16.7163C69.1838 16.7124 69.1952 16.7124 69.2029 16.7124C70.9983 16.7163 72.7975 16.7201 74.5929 16.7277C74.8221 16.7277 74.8221 16.5978 74.8221 16.4336C74.8221 14.5618 74.8183 12.69 74.8221 10.8144C74.8221 10.6005 74.761 10.5393 74.5509 10.5393C72.6982 10.547 70.8455 10.547 68.9928 10.547L69.0004 10.5393ZM89.7277 24.3868C89.0592 23.6763 87.8062 23.8214 87.3287 24.6733C87.1798 24.9407 87.0575 24.6962 86.9353 24.6733C86.7481 24.6466 86.8474 24.532 86.8971 24.4288C87.1339 23.9208 87.5312 23.5808 88.024 23.3478C88.2035 23.2637 88.2684 23.1606 88.2684 22.9581C88.2608 20.0626 88.2608 17.167 88.2684 14.2753C88.2684 14.0499 88.2112 13.9888 87.982 13.9888C87.3173 13.9888 86.6717 13.9964 86.0605 14.3517C85.3423 14.7681 84.968 15.3869 84.7999 16.1662C84.5172 17.4917 84.6089 18.8325 84.6242 20.1695C84.628 20.6814 84.7197 21.2048 84.8801 21.6937C85.1437 22.4883 85.6709 22.8053 86.6564 22.7977C86.878 22.7977 87.0384 22.8168 86.9849 23.088C86.9849 23.0956 86.9849 23.1033 86.9849 23.1109C86.9849 23.1682 86.9467 23.2179 86.8894 23.237C86.1866 23.4394 85.4837 23.4165 84.7655 23.2981C83.9862 23.1682 83.2757 22.9161 82.634 22.4386C82.0189 21.9802 81.614 21.3805 81.4077 20.67C81.0181 19.3253 81.0143 17.9616 81.423 16.6169C81.8318 15.2685 82.8059 14.4701 84.0894 14.0117C84.8648 13.7367 85.667 13.603 86.4883 13.5571C87.0193 13.5266 87.5465 13.4616 88.0774 13.5648C88.1959 13.5877 88.2646 13.5457 88.2646 13.4043C88.2646 12.5028 88.2646 11.6013 88.2646 10.7036C88.2646 10.5775 88.2226 10.5126 88.0889 10.5279C88.0392 10.5317 87.9896 10.5279 87.9361 10.5279C84.7693 10.5279 81.5987 10.5279 78.432 10.5279C78.2295 10.5279 78.0194 10.4973 78.1607 10.8182C78.1837 10.8679 78.1607 10.9366 78.1607 10.9977C78.1607 15.0164 78.1608 19.0312 78.1684 23.0498C78.1684 23.3287 78.0996 23.4051 77.817 23.4012C76.9154 23.3821 76.0139 23.386 75.1162 23.4012C74.8717 23.4012 74.8106 23.3325 74.8144 23.0956C74.8221 21.2239 74.8144 19.3521 74.8221 17.4803C74.8221 17.274 74.7877 17.167 74.5432 17.1708C71.9112 17.1785 69.2793 17.1747 66.6473 17.1747C66.5327 17.1747 66.5098 17.3007 66.6167 17.3427C66.7084 17.3771 66.8154 17.3771 66.9071 17.3924C68.2784 17.6445 69.3595 18.7905 69.6918 20.1237C69.8752 20.861 70.0815 21.6364 70.5704 22.2705C70.9792 22.8015 71.514 22.9619 72.2627 22.6869C72.3811 22.6449 72.4766 22.5799 72.5492 22.7518C72.6179 22.9123 72.5645 23.0078 72.4231 23.0651C72.129 23.1873 71.8463 23.3287 71.5178 23.363C71.2886 23.3898 71.0632 23.4662 70.8225 23.4815C69.9478 23.5464 69.0997 23.4624 68.2975 23.1033C67.396 22.6984 66.7466 22.0451 66.3455 21.1245C66.0399 20.4178 65.8413 19.6806 65.551 18.9701C65.2606 18.2519 64.8901 17.5949 64.1337 17.2549C63.9427 17.1708 64.0191 16.9913 64.0268 16.8538C64.0344 16.6972 64.1758 16.7468 64.2636 16.7468C64.9856 16.7468 65.719 16.7812 66.4028 16.4871C67.1172 16.1815 67.629 15.7192 67.8468 14.9209C68.0913 14.0194 68.0722 13.1446 67.8277 12.266C67.5794 11.3721 66.972 10.8564 66.0743 10.6578C65.2148 10.4668 64.3438 10.5508 63.4805 10.5393C63.4347 10.5393 63.3965 10.5011 63.3965 10.4553C63.3965 10.4324 63.4079 10.4095 63.4232 10.3904C63.4423 10.3636 63.4538 10.3331 63.4576 10.3025C63.4767 10.1612 63.5607 10.0542 63.7021 10.0542C63.7135 10.0542 63.725 10.0542 63.7326 10.0542H93.6164C93.6164 10.0542 93.6394 10.0542 93.6508 10.0542C93.7922 10.0542 93.8724 10.165 93.8915 10.3025C93.8953 10.3331 93.9068 10.3636 93.9259 10.3904C93.9411 10.4095 93.9526 10.4324 93.9526 10.4553C93.9526 10.5011 93.9144 10.5393 93.8686 10.5393C93.2001 10.5393 92.5316 10.5432 91.8592 10.5317C91.6453 10.5279 91.588 10.589 91.588 10.8029C91.5957 14.8865 91.5918 18.9701 91.588 23.0574C91.588 23.2484 91.6491 23.3478 91.8249 23.4165C92.1878 23.5655 92.4513 23.8444 92.6767 24.1576C93.0549 24.6886 93.116 25.296 93.1084 25.9301C93.1007 26.8583 92.7111 27.5612 91.9777 28.0884C91.9586 28.1037 91.928 28.096 91.9089 28.1113C91.886 28.1266 91.886 28.161 91.8631 28.1762C91.6988 28.2794 91.5345 28.3825 91.355 28.4666C90.7514 28.7416 90.1135 28.8371 89.4603 28.8944C89.1547 28.8944 88.8491 28.8944 88.5435 28.8944C87.1606 28.8142 86.0758 28.1801 85.2163 27.1143C84.5745 26.3159 84.1696 25.4258 84.1085 24.3906C84.1008 24.2913 84.0474 24.192 84.0588 24.0965C84.0703 23.9819 83.9519 23.7985 84.2078 23.7794C84.4064 23.7641 84.5554 23.7794 84.5745 24.0315C84.6165 24.6466 84.7999 25.2196 85.0788 25.7696C85.5754 26.7552 86.2973 27.4848 87.3937 27.7446C88.0049 27.8897 88.6275 27.9623 89.2273 27.6147C89.7659 27.3015 90.1211 26.866 90.1823 26.2548C90.2434 25.613 90.2472 24.9636 89.7659 24.4365C89.7506 24.4212 89.7391 24.4059 89.7239 24.3944L89.7277 24.3868Z" fill="white"/>
<path d="M75.6319 8.90063C74.9901 8.70581 74.3942 8.3964 73.7677 8.15574C73.2253 7.94946 72.6828 7.73936 72.1633 7.48724C71.6209 7.22366 71.0708 6.97918 70.7002 6.44438C70.2762 5.83318 70.6353 4.77504 71.4222 4.63371C71.4795 4.62607 71.5215 4.58405 71.5788 4.58405H71.8577C72.0181 4.58405 72.1786 4.61843 72.3199 4.69483C73.2253 5.1876 73.8594 6.00126 74.5584 6.72324C75.1391 7.32298 75.7503 7.89216 76.2813 8.53774C76.3997 8.6829 76.5601 8.79749 76.7129 8.91209C76.8619 9.02287 76.797 9.12219 76.7244 9.24061C76.648 9.36285 76.5678 9.39723 76.4379 9.31319C76.1972 9.15657 75.9031 9.09927 75.6815 8.90445C75.6815 8.90445 75.6815 8.90446 75.6777 8.89681C75.6739 8.88535 75.6662 8.87771 75.6624 8.86625C75.6624 8.86243 75.6548 8.86243 75.651 8.86625C75.6471 8.87771 75.6395 8.88917 75.6357 8.90063H75.6319Z" fill="white"/>
<path d="M89.4451 28.8868C89.4451 28.8868 89.4718 28.8983 89.4718 28.9136C89.4718 28.9288 89.4604 28.9365 89.4451 28.9365H88.5818C88.5818 28.9365 88.5588 28.925 88.5588 28.9136C88.5588 28.8983 88.5703 28.8868 88.5856 28.8868C88.8721 28.8868 89.1586 28.8868 89.4451 28.8868Z" fill="#D4DEE9"/>
<path d="M63.4116 10.0849C63.4116 10.0849 63.4269 10.0543 63.446 10.0582C63.4613 10.0582 63.4727 10.0773 63.4727 10.0925C63.4727 10.1269 63.4727 10.1575 63.4727 10.1919C63.4804 10.2835 63.4116 10.2683 63.4116 10.1728V10.0849Z" fill="white"/>
<path d="M93.9068 10.0886C93.9068 10.0886 93.9183 10.058 93.9336 10.0542C93.9527 10.0542 93.968 10.0657 93.968 10.0809V10.1688C93.968 10.2605 93.8992 10.2796 93.9068 10.1879C93.9068 10.1535 93.9107 10.1191 93.9068 10.0886Z" fill="white"/>
<path d="M87.0235 23.1835C87.0235 23.1835 86.9814 23.1835 86.9814 23.1606C86.9814 23.1339 87.012 23.1186 87.0273 23.1415C87.0387 23.1568 87.0387 23.1721 87.0273 23.1873L87.0235 23.1835Z" fill="#5F85AE"/>
<path d="M89.7317 24.4183C89.7317 24.4183 89.7441 24.3977 89.7565 24.4101C89.7647 24.4183 89.7565 24.439 89.7482 24.4307C89.74 24.4307 89.7358 24.4225 89.7358 24.4183H89.7317Z" fill="#5F85AE"/>
<path d="M68.9928 10.528C68.9928 10.528 69.0005 10.5394 69.0005 10.5471C69.0005 10.57 68.9852 10.5891 68.9623 10.5891C68.9279 10.5853 68.8974 10.5738 68.905 10.5318C68.9203 10.4707 68.9623 10.4898 68.9928 10.5242V10.528Z" fill="white"/>
<path d="M69.1762 16.659C69.1801 16.6629 69.1839 16.6667 69.1877 16.6705C69.1953 16.6858 69.1877 16.7049 69.1686 16.7087C69.1571 16.7163 69.1419 16.7202 69.1304 16.7125C69.1151 16.7049 69.1228 16.6858 69.138 16.6781C69.1533 16.6705 69.1648 16.6629 69.1801 16.6552L69.1762 16.659Z" fill="#D4DEE9"/>
<path d="M91.9332 28.1036C91.9332 28.1036 91.9497 28.1202 91.9414 28.1284C91.929 28.1367 91.9125 28.1284 91.9167 28.116C91.9167 28.1078 91.9249 28.1036 91.9332 28.1036Z" fill="#FDFDFE"/>
<path d="M75.6561 8.89905C75.6561 8.89905 75.6396 8.88666 75.6437 8.8784C75.6479 8.86601 75.6644 8.86601 75.6685 8.8784C75.6726 8.88666 75.6685 8.89905 75.6561 8.89905Z" fill="#FDFDFE"/>
<path d="M38.2573 17.3427V20.9984H40.8128C41.806 20.9984 42.4401 20.9717 42.7075 20.9144C43.1163 20.838 43.4524 20.6584 43.7046 20.3719C43.9643 20.0816 44.098 19.692 44.098 19.2068C44.098 18.7981 43.9987 18.4467 43.8001 18.164C43.6014 17.8813 43.3111 17.6712 42.9329 17.5375C42.5586 17.4076 41.7449 17.3427 40.4881 17.3427H38.2611H38.2573ZM38.2573 11.9068V15.0698H40.0679C41.1452 15.0698 41.8137 15.0545 42.0734 15.0239C42.5471 14.9666 42.9176 14.8062 43.185 14.5388C43.4601 14.2638 43.5938 13.9085 43.5938 13.4654C43.5938 13.0223 43.4754 12.7014 43.2385 12.4378C43.0093 12.1704 42.6617 12.01 42.2033 11.9527C41.9283 11.9221 41.1413 11.9068 39.8426 11.9068H38.2573ZM35.4954 9.63012H40.9618C42.0429 9.63012 42.8489 9.67596 43.376 9.77146C43.9108 9.85932 44.3845 10.0465 44.8047 10.3292C45.2287 10.6157 45.5802 10.9977 45.859 11.4752C46.1379 11.9489 46.2792 12.4798 46.2792 13.0681C46.2792 13.7099 46.1035 14.2943 45.7559 14.8291C45.4121 15.3639 44.9461 15.765 44.3578 16.0324C45.1905 16.2731 45.8323 16.6895 46.2792 17.2739C46.7262 17.8584 46.9516 18.546 46.9516 19.3367C46.9516 19.9594 46.8064 20.5629 46.5123 21.155C46.2258 21.7395 45.8323 22.2094 45.3281 22.5646C44.8315 22.9122 44.2164 23.1261 43.483 23.2064C43.0246 23.256 41.913 23.2866 40.152 23.298H35.4992V9.63012H35.4954ZM30.4301 18.2748L33.1079 19.1228C32.6992 20.6164 32.0154 21.7242 31.0566 22.4538C30.1054 23.1758 28.8945 23.5349 27.4276 23.5349C25.6131 23.5349 24.1195 22.916 22.9506 21.6784C21.7816 20.4331 21.1972 18.737 21.1972 16.5863C21.1972 14.3096 21.7855 12.5448 22.9582 11.288C24.1347 10.0274 25.678 9.39328 27.5918 9.39328C29.265 9.39328 30.6211 9.88606 31.6678 10.8754C32.2904 11.4599 32.7565 12.3003 33.0659 13.3928L30.3346 14.046C30.1742 13.3355 29.8342 12.7778 29.3185 12.3691C28.8104 11.9603 28.1878 11.754 27.4543 11.754C26.442 11.754 25.6169 12.1169 24.9828 12.8466C24.3563 13.5724 24.0392 14.7527 24.0392 16.38C24.0392 18.1067 24.3487 19.3405 24.9713 20.074C25.594 20.8074 26.4 21.1741 27.397 21.1741C28.1305 21.1741 28.7608 20.9411 29.2917 20.4751C29.8227 20.009 30.2009 19.2756 30.4301 18.2748ZM10.6349 11.9412V20.9984H12.6977C13.4693 20.9984 14.0232 20.9564 14.367 20.8685C14.814 20.7578 15.1845 20.5668 15.4786 20.2994C15.7766 20.032 16.0211 19.5927 16.2044 18.9853C16.3916 18.3703 16.4833 17.5337 16.4833 16.4755C16.4833 15.4174 16.3916 14.6076 16.2044 14.0422C16.0173 13.4769 15.7575 13.0337 15.4213 12.7167C15.0852 12.3996 14.6612 12.1857 14.1455 12.0749C13.7597 11.9871 13.0033 11.945 11.8802 11.945H10.6387L10.6349 11.9412ZM7.87305 9.63012H12.9193C14.0576 9.63012 14.9248 9.71798 15.5207 9.88988C16.3229 10.1267 17.0105 10.5469 17.5835 11.1505C18.1565 11.754 18.5919 12.4951 18.8899 13.3699C19.1879 14.2408 19.3368 15.3143 19.3368 16.5978C19.3368 17.7247 19.1955 18.695 18.9166 19.5086C18.5728 20.5018 18.0877 21.3078 17.4536 21.9229C16.9761 22.3889 16.3267 22.7518 15.513 23.0154C14.9018 23.2064 14.0882 23.3057 13.0682 23.3057H7.87305V9.63012Z" fill="white"/>
</g>
<defs>
<clipPath id="clip0_395_901">
<rect width="101.612" height="32.4699" fill="white"/>
</clipPath>
</defs>
</svg>
