<svg width="20" height="24" viewBox="0 0 20 24" fill="none" xmlns="http://www.w3.org/2000/svg">
<path d="M2 19.9222V21.8182H18V19.9331L14.894 20.7545L10.034 19.6593L5.057 20.7545L2 19.9222ZM2 17.6727L5.104 18.5182L10.04 17.4316L14.859 18.5182L18 17.688V16.3636C18 16.0743 17.8946 15.7968 17.7071 15.5922C17.5196 15.3877 17.2652 15.2727 17 15.2727H3C2.73478 15.2727 2.48043 15.3877 2.29289 15.5922C2.10536 15.7968 2 16.0743 2 16.3636V17.6727ZM13 13.0909H17C17.7956 13.0909 18.5587 13.4357 19.1213 14.0495C19.6839 14.6632 20 15.4957 20 16.3636V24H0V16.3636C0 15.4957 0.316071 14.6632 0.87868 14.0495C1.44129 13.4357 2.20435 13.0909 3 13.0909H7V9.81818H13V13.0909ZM11 13.0909V12H9V13.0909H11ZM10 9.16364C9.20435 9.16364 8.44129 8.81883 7.87868 8.20508C7.31607 7.59132 7 6.75889 7 5.89091C7 4.68545 8 2.72182 10 0C12 2.72182 13 4.68545 13 5.89091C13 6.75889 12.6839 7.59132 12.1213 8.20508C11.5587 8.81883 10.7956 9.16364 10 9.16364ZM9.998 7.00255C10.55 7.00255 10.998 6.47891 10.998 5.83309C10.998 5.40327 10.664 4.70182 9.998 3.72982C9.331 4.70182 8.998 5.40327 8.998 5.83309C8.998 6.47891 9.446 7.00255 9.998 7.00255Z" fill="#4A4A4A" fill-opacity="0.5"/>
</svg>
