<svg width="24" height="24" viewBox="0 0 24 24" fill="none" xmlns="http://www.w3.org/2000/svg">
<path opacity="0.5" d="M20.3575 2.27019L20.2702 2.18291V2.18182V2.05682H20.2691H20.2173H15.3977V0.125H23.875V8.60227H21.9432V3.72V3.41822L21.7298 3.63161L16.4607 8.9007L16.3885 8.97289L16.4448 9.05805C16.926 9.78559 17.2214 10.6201 17.305 11.4884C17.3886 12.3566 17.2579 13.2321 16.9243 14.0381C16.5908 14.8441 16.0646 15.556 15.3919 16.1112C14.7191 16.6665 13.9205 17.0482 13.0659 17.223L12.9659 17.2434V17.3455V19.6364V19.7614H13.0909H15.1477V21.6932H13.0909H12.9659V21.8182V23.875H11.0341V21.8182V21.6932H10.9091H8.85227V19.7614H10.9091H11.0341V19.6364V17.3455V17.2435L10.9342 17.223C10.0815 17.0485 9.28447 16.6678 8.61276 16.1143C7.94105 15.5608 7.41506 14.8513 7.08071 14.0477C6.74636 13.2441 6.61383 12.3709 6.69468 11.5043C6.77553 10.6377 7.06731 9.80405 7.54454 9.07617L7.60021 8.99125L7.5285 8.91936L6.23686 7.62445L6.14863 7.536L6.06013 7.62418L4.62583 9.05335L3.26405 7.6848L4.69944 6.25661L4.78809 6.1684L4.69984 6.07979L2.27038 3.64052L2.05682 3.42609V3.72873V7.51136H0.125V0.125H7.51136V2.05682H3.72H3.41908L3.63143 2.27003L6.06853 4.71694L6.15667 4.80543L6.24523 4.71736L7.72535 3.24548L9.08723 4.61411L7.60819 6.08594L7.51948 6.17422L7.60786 6.26282L8.88968 7.54791L8.9622 7.62062L9.0476 7.56359C9.92149 6.98003 10.949 6.66917 11.9998 6.67045H12C13.0853 6.67045 14.0945 6.99447 14.9365 7.55187L15.0216 7.60826L15.0939 7.53601L20.3575 2.27019ZM12 8.60227C11.0989 8.60227 10.2346 8.96025 9.59744 9.59744C8.96025 10.2346 8.60227 11.0989 8.60227 12C8.60227 12.9011 8.96025 13.7654 9.59744 14.4026C10.2346 15.0398 11.0989 15.3977 12 15.3977C12.9011 15.3977 13.7654 15.0398 14.4026 14.4026C15.0398 13.7654 15.3977 12.9011 15.3977 12C15.3977 11.0989 15.0398 10.2346 14.4026 9.59744C13.7654 8.96025 12.9011 8.60227 12 8.60227Z" fill="#4A4A4A" stroke="#F6F6F6" stroke-width="0.25"/>
</svg>
