<svg width="24" height="22" viewBox="0 0 24 22" fill="none" xmlns="http://www.w3.org/2000/svg">
<path d="M21.4875 2.01314C18.7781 -0.264988 14.5922 0.0771992 12 2.71626C9.40782 0.0771992 5.22188 -0.269676 2.51251 2.01314C-1.01249 4.98032 -0.49687 9.81782 2.01563 12.3819L10.2375 20.7584C10.7063 21.2366 11.3344 21.5038 12 21.5038C12.6703 21.5038 13.2938 21.2413 13.7625 20.7631L21.9844 12.3866C24.4922 9.82251 25.0172 4.98501 21.4875 2.01314ZM20.3813 10.8022L12.1594 19.1788C12.0469 19.2913 11.9531 19.2913 11.8406 19.1788L3.61876 10.8022C1.90782 9.05845 1.56094 5.75845 3.96094 3.73814C5.78438 2.20532 8.59688 2.43501 10.3594 4.23032L12 5.90376L13.6406 4.23032C15.4125 2.42564 18.225 2.20532 20.0391 3.73345C22.4344 5.75376 22.0781 9.07251 20.3813 10.8022Z" fill="#4A4A4A"/>
</svg>
