<svg width="150" height="150" viewBox="0 0 150 150" fill="none" xmlns="http://www.w3.org/2000/svg">
<path d="M75.283 81.6636C89.2683 81.6636 100.615 70.3171 100.615 56.3318C100.615 42.3465 89.2683 31 75.283 31C61.2977 31 49.9512 42.3465 49.9512 56.3318C49.9512 70.3171 61.2977 81.6636 75.283 81.6636Z" fill="#2CAA89"/>
<path d="M90.482 84.8301C85.6135 84.8301 83.2726 87.5094 75.2829 87.5094C67.2932 87.5094 64.9692 84.8301 60.0838 84.8301C47.497 84.8301 37.2852 94.911 37.2852 107.336V111.623C37.2852 116.061 40.9323 119.661 45.4275 119.661H105.138C109.633 119.661 113.281 116.061 113.281 111.623V107.336C113.281 94.911 103.069 84.8301 90.482 84.8301Z" fill="#28B1B5"/>
</svg>
