<svg width="335" height="45" viewBox="0 0 335 45" fill="none" xmlns="http://www.w3.org/2000/svg">
<path d="M72.7321 8.4787H68.4117V13.1838H72.7321V8.4787Z" fill="#005D8D"/>
<path d="M18.6505 16.8733H13.3774L7.15246 23.903V8.23169H2.86823V34.2659H7.15246V28.2612L8.69041 26.7225L13.8534 34.2659H18.9432L11.8033 24.1965L18.6505 16.8733Z" fill="#005D8D"/>
<path d="M33.4794 18.2775C32.8689 17.7733 32.1483 17.4075 31.3191 17.1785C30.4892 16.9512 29.5617 16.8363 28.5367 16.8363C27.2182 16.8363 26.0099 17.0015 24.9117 17.3312C23.8135 17.6608 22.7263 18.1186 21.6525 18.7039L23.1904 21.4565C24.1179 20.9978 24.9659 20.6745 25.7353 20.4865C26.5047 20.2993 27.23 20.2049 27.9144 20.2049C28.8663 20.2049 29.6231 20.3732 30.1848 20.7107C30.7464 21.0482 31.0273 21.617 31.0273 22.4139V23.4263H28.4643C27.2929 23.4263 26.2057 23.5427 25.2051 23.774C24.2037 24.0061 23.343 24.3538 22.6232 24.8172C21.9026 25.2813 21.3354 25.8674 20.9209 26.5746C20.5055 27.2826 20.2986 28.1251 20.2986 29.1014C20.2986 30.6393 20.8115 31.8909 21.8365 32.8546C22.8616 33.8191 24.2902 34.3005 26.1208 34.3005C28.4147 34.3005 30.1855 33.6114 31.4301 32.2332H31.5402L31.9799 34.2643H35.3855V23.1746C35.3855 22.0221 35.2211 21.0443 34.8914 20.2395C34.5595 19.4347 34.0898 18.781 33.4794 18.2775ZM31.0627 29.1761C30.6473 29.811 30.1163 30.3058 29.4697 30.659C28.8222 31.013 28.1449 31.19 27.4377 31.19C26.7297 31.19 26.1066 31.0295 25.5701 30.707C25.0328 30.3853 24.7646 29.7654 24.7646 28.8481C24.7646 28.1299 25.0816 27.5162 25.7164 27.0088C26.3513 26.5006 27.4739 26.2465 29.085 26.2465H31.0627V29.1761Z" fill="#005D8D"/>
<path d="M44.4275 8.23169H40.1802V34.2659H44.4275V8.23169Z" fill="#005D8D"/>
<path d="M56.8404 16.8363C55.5464 16.8363 54.3624 17.0487 53.2886 17.4735C52.214 17.8976 51.2991 18.4986 50.5423 19.2766C49.7855 20.0546 49.1995 20.9853 48.7849 22.0701C48.3695 23.1549 48.1626 24.3569 48.1626 25.6762C48.1626 27.185 48.4128 28.4815 48.9131 29.5655C49.4134 30.6504 50.0908 31.5456 50.9451 32.2528C51.7994 32.96 52.7946 33.4792 53.9297 33.8081C55.0649 34.1385 56.2788 34.3029 57.5728 34.3029C58.8661 34.3029 60.0013 34.1935 60.9784 33.9741C61.9546 33.7546 62.7964 33.4863 63.5052 33.1685L62.6626 30.1288C61.979 30.4214 61.2647 30.6543 60.5205 30.8242C59.7755 30.9949 58.9275 31.0807 57.9756 31.0807C56.3645 31.0807 55.0649 30.6905 54.0761 29.9093C53.0872 29.1281 52.5932 27.945 52.5932 26.3575V26.2111H64.4201V24.3569C64.4201 22.0001 63.7365 20.1569 62.3692 18.829C61.0028 17.5011 59.1596 16.8363 56.8404 16.8363ZM52.6663 23.2446C52.8127 22.2463 53.2398 21.4407 53.9478 20.8295C54.6559 20.219 55.559 19.9122 56.6572 19.9122C57.2432 19.9122 57.7491 20.0011 58.177 20.1773C58.6034 20.3536 58.9519 20.5974 59.2209 20.909C59.4892 21.2205 59.6843 21.5784 59.807 21.9836C59.9289 22.3887 59.9903 22.8088 59.9903 23.2446H52.6663Z" fill="#005D8D"/>
<path d="M72.7321 16.8733H68.4117V34.2659H72.7321V16.8733Z" fill="#005D8D"/>
<path d="M89.0627 18.3011C88.5498 17.8378 87.9094 17.4775 87.14 17.221C86.3715 16.9646 85.5596 16.8363 84.7053 16.8363C83.46 16.8363 82.3437 17.0432 81.3548 17.4555C80.366 17.8685 79.5297 18.4577 78.8469 19.2231C78.1633 19.9893 77.6441 20.9082 77.2909 21.9804C76.9369 23.0527 76.7599 24.2492 76.7599 25.5692C76.7599 26.9837 76.9613 28.2329 77.364 29.3177C77.7668 30.4018 78.3159 31.3151 79.0121 32.0577C79.7075 32.8004 80.5194 33.3597 81.4469 33.7365C82.3744 34.1141 83.3506 34.3021 84.3764 34.3021C85.6453 34.3021 86.683 34.0999 87.4885 33.6956C88.2941 33.292 88.9769 32.7775 89.5394 32.1529H89.6857L90.1617 34.2651H93.3839V8.23169H89.0635V18.3011H89.0627ZM89.0627 29.158C88.6717 29.73 88.1714 30.1941 87.5617 30.5481C86.9512 30.9029 86.2432 31.0799 85.4377 31.0799C84.8516 31.0799 84.2962 30.9705 83.7715 30.7511C83.246 30.5316 82.7882 30.1965 82.398 29.7457C82.007 29.2949 81.6963 28.7112 81.4642 27.9946C81.2321 27.2787 81.1165 26.4346 81.1165 25.4638C81.1165 24.4931 81.2447 23.6608 81.5012 22.9677C81.7576 22.2738 82.099 21.7082 82.5262 21.2685C82.9526 20.8295 83.4411 20.5117 83.991 20.3158C84.5401 20.1191 85.1199 20.0208 85.7303 20.0208C86.4132 20.0208 87.0362 20.1687 87.5979 20.4621C88.1596 20.7564 88.6473 21.1489 89.0627 21.6382V29.158Z" fill="#005D8D"/>
<path d="M113.962 21.7161C113.523 20.6556 112.912 19.7596 112.131 19.0296C111.35 18.2987 110.429 17.7512 109.367 17.3854C108.305 17.0204 107.151 16.8371 105.906 16.8371C104.661 16.8371 103.501 17.0385 102.428 17.4389C101.353 17.8393 100.414 18.4167 99.6081 19.1712C98.8025 19.9256 98.1739 20.8625 97.7224 21.982C97.2701 23.1022 97.0451 24.3687 97.0451 25.7824C97.0451 27.1496 97.2645 28.3635 97.7043 29.4239C98.1433 30.4843 98.7537 31.3749 99.5349 32.0939C100.316 32.8121 101.237 33.3604 102.299 33.7372C103.361 34.1148 104.515 34.3029 105.759 34.3029C107.004 34.3029 108.163 34.1023 109.238 33.7018C110.312 33.3014 111.252 32.724 112.057 31.9696C112.863 31.2152 113.491 30.2837 113.943 29.1761C114.394 28.0685 114.62 26.8192 114.62 25.4276C114.621 24.0139 114.401 22.7765 113.962 21.7161ZM109.788 28.2211C109.543 28.9259 109.226 29.486 108.836 29.9022C108.445 30.3184 107.988 30.6181 107.462 30.8029C106.938 30.9878 106.406 31.0799 105.869 31.0799C105.308 31.0799 104.765 30.9768 104.24 30.7683C103.715 30.5606 103.251 30.2318 102.848 29.7811C102.446 29.3303 102.121 28.7647 101.878 28.0818C101.633 27.4006 101.512 26.5746 101.512 25.6038C101.512 24.541 101.634 23.6513 101.878 22.9346C102.121 22.2187 102.439 21.6468 102.829 21.2197C103.22 20.7925 103.672 20.492 104.184 20.3181C104.697 20.1451 105.234 20.0577 105.795 20.0577C106.356 20.0577 106.899 20.1616 107.424 20.3693C107.949 20.5777 108.413 20.9011 108.816 21.34C109.219 21.779 109.542 22.3509 109.787 23.0558C110.031 23.7606 110.153 24.6102 110.153 25.6038C110.153 26.6446 110.032 27.5162 109.788 28.2211Z" fill="#005D8D"/>
<path d="M134.178 8.4787H129.858V13.1838H134.178V8.4787Z" fill="#F47C38"/>
<path d="M124.47 12.5269C125.153 11.9094 126.167 11.6002 127.509 11.6002C127.766 11.6002 127.688 11.6152 127.946 11.6459L127.979 8.34969C127.445 8.27102 126.922 8.23169 126.41 8.23169C124.213 8.23169 122.455 8.84372 121.137 10.0678C119.819 11.2926 119.16 12.9958 119.16 15.1804V16.8725H116.56V20.0216H119.16V34.2659H123.444V20.0224H127.972V16.8733H123.444V15.6972C123.445 14.201 123.787 13.1445 124.47 12.5269Z" fill="#F47C38"/>
<path d="M129.846 21.79H129.816V34.2659H134.137V16.8733H129.846V21.79Z" fill="#F47C38"/>
<path d="M152.921 18.3672C151.896 17.3469 150.443 16.8363 148.564 16.8363C147.392 16.8363 146.33 17.0621 145.378 17.5144C144.427 17.966 143.534 18.5961 142.705 19.404L142.156 16.8725H138.788V34.2651H143.109V22.3832C143.719 21.7208 144.39 21.1929 145.123 20.798C145.855 20.4031 146.575 20.2057 147.283 20.2057C148.235 20.2057 148.949 20.4873 149.425 21.049C149.901 21.6107 150.139 22.3462 150.139 23.2548V34.2667H154.461V22.7065C154.459 20.8342 153.946 19.3875 152.921 18.3672Z" fill="#F47C38"/>
<path d="M174.404 17.4407C171.262 17.4407 168.713 18.6625 166.654 21.1411L169.691 23.6894C170.948 22.0138 172.588 21.1062 174.334 21.1062C176.324 21.1062 177.58 22.2582 177.58 24.1433V24.632H173.287C171.332 24.632 169.865 24.8763 168.713 25.4C167.038 26.168 166.13 27.704 166.13 29.7287C166.13 33.0102 168.713 35.3491 172.344 35.3491C174.613 35.3491 176.568 34.3716 177.58 32.7658L177.929 35H181.769V24.1433C181.769 19.9891 178.942 17.4407 174.404 17.4407ZM173.007 31.7884C171.332 31.7884 170.319 31.0204 170.319 29.7985C170.319 29.1702 170.564 28.6814 171.017 28.3673C171.576 27.9484 172.414 27.7738 173.845 27.7738H177.58C177.58 30.008 175.521 31.7884 173.007 31.7884ZM197.319 10.6683V19.5352C196.237 18.2436 194.317 17.4407 192.362 17.4407C188.138 17.4407 185.101 20.7571 185.101 26.3774C185.101 31.544 187.684 35.3491 192.362 35.3491C194.212 35.3491 196.132 34.7556 197.319 33.2895V35H201.509V10.6683H197.319ZM193.375 31.4742C190.582 31.4742 189.29 29.5891 189.29 26.4123C189.29 23.2007 190.617 21.2458 193.41 21.2458C196.412 21.2458 197.703 23.5498 197.703 26.4123C197.703 29.2749 196.412 31.4742 193.375 31.4742ZM225.991 17.4407C223.757 17.4407 221.767 18.2436 220.44 20.8269C219.393 18.1738 217.298 17.4407 215.413 17.4407C213.703 17.4407 211.922 18.0342 210.805 19.9542V17.7898H206.756L206.791 35H210.98V28.4371C210.98 24.9811 210.875 21.1062 214.401 21.1062C217.124 21.1062 217.298 23.9338 217.298 25.2953V35H221.488V28.4371C221.488 24.9811 221.348 21.1062 224.874 21.1062C227.632 21.1062 227.806 23.9338 227.806 25.2953V35H231.995V24.0385C231.995 20.5825 230.145 17.4407 225.991 17.4407ZM236.661 14.5432H241.06V10.6683H236.661V14.5432ZM236.766 35H240.955V17.7898H236.766V35ZM255.541 17.4407C253.447 17.4407 251.562 18.1389 250.34 19.7796V17.7898H246.151V35H250.34V28.1229C250.34 25.0509 250.34 21.1062 254.25 21.1062C257.426 21.1062 257.426 23.7593 257.426 24.9462V35H261.615V23.8989C261.615 19.8145 259.416 17.4407 255.541 17.4407ZM284.431 21.1062V17.7898H280.137V11.3665L275.948 14.4734V17.7898H273.156V21.1062H275.948V30.1825C275.948 33.848 278.392 35.3491 281.289 35.3491C282.337 35.3491 283.384 35.1745 284.431 34.8255V31.4742C283.663 31.7185 282.93 31.8582 282.337 31.8582C280.975 31.8582 280.137 31.2298 280.137 29.8684V21.1062H284.431ZM295.335 35.3491C300.641 35.3491 303.958 31.2298 303.958 26.3774C303.958 21.4902 300.641 17.4407 295.335 17.4407C289.994 17.4407 286.713 21.4902 286.713 26.3774C286.713 31.2298 289.994 35.3491 295.335 35.3491ZM295.335 31.6836C292.159 31.6836 290.902 29.1702 290.902 26.3774C290.902 23.5498 292.159 21.1062 295.335 21.1062C298.512 21.1062 299.769 23.5498 299.769 26.3774C299.769 29.1702 298.512 31.6836 295.335 31.6836ZM314.709 35.3491C320.015 35.3491 323.331 31.2298 323.331 26.3774C323.331 21.4902 320.015 17.4407 314.709 17.4407C309.368 17.4407 306.086 21.4902 306.086 26.3774C306.086 31.2298 309.368 35.3491 314.709 35.3491ZM314.709 31.6836C311.532 31.6836 310.275 29.1702 310.275 26.3774C310.275 23.5498 311.532 21.1062 314.709 21.1062C317.886 21.1062 319.142 23.5498 319.142 26.3774C319.142 29.1702 317.886 31.6836 314.709 31.6836ZM330.871 35.3491C331.674 35.3491 332.616 35.1745 333.559 34.8255V31.4742C333.07 31.6138 332.616 31.6836 332.232 31.6836C331.464 31.6836 331.01 31.3694 331.01 30.6014V10.6683H326.821V30.8807C326.821 33.9527 328.532 35.3491 330.871 35.3491Z" fill="black"/>
</svg>
