<svg width="111" height="36" viewBox="0 0 111 36" fill="none" xmlns="http://www.w3.org/2000/svg">
<g clip-path="url(#clip0_2581_13054)">
<path d="M0 3.33835C0 1.49391 1.49391 0 3.33835 0H60.9248V35.4699H3.33835C1.49391 35.4699 0 33.976 0 32.1316V3.33835Z" fill="#26358F"/>
<path d="M60.9248 0H107.662C109.506 0 111 1.49391 111 3.33835V32.1316C111 33.976 109.506 35.4699 107.662 35.4699H60.9248V0Z" fill="#FF5D24"/>
<path d="M75.3756 11.5134C75.3422 11.4675 75.288 11.4382 75.2713 11.5134C75.2504 11.6093 75.4298 11.5968 75.5216 11.6344C75.6468 11.6845 75.7678 11.7345 75.893 11.7763C76.5816 12.0099 77.0615 12.4773 77.4454 13.074C77.7458 13.5372 77.8501 14.0463 77.9127 14.5888C78.0296 15.5569 77.7834 16.3957 77.1574 17.1343C76.7276 17.6434 76.1226 17.8938 75.5592 18.2067C75.5175 18.2276 75.5133 18.2819 75.5592 18.261C75.5592 18.261 75.5634 18.261 75.5675 18.261C75.5759 18.2568 75.5884 18.2568 75.5968 18.2568C77.558 18.261 79.5235 18.2652 81.4848 18.2735C81.7351 18.2735 81.7351 18.1316 81.7351 17.9522C81.7351 15.9075 81.731 13.8627 81.7351 11.8138C81.7351 11.5801 81.6684 11.5134 81.4389 11.5134C79.415 11.5217 77.3911 11.5217 75.3672 11.5217L75.3756 11.5134ZM98.0179 26.6402C97.2877 25.8641 95.9189 26.0226 95.3973 26.9532C95.2346 27.2453 95.101 26.9782 94.9675 26.9532C94.763 26.924 94.8715 26.7988 94.9258 26.6861C95.1845 26.1311 95.6185 25.7598 96.1568 25.5052C96.3529 25.4134 96.4239 25.3007 96.4239 25.0796C96.4155 21.9165 96.4155 18.7534 96.4239 15.5945C96.4239 15.3483 96.3613 15.2815 96.1109 15.2815C95.3848 15.2815 94.6796 15.2899 94.0119 15.6779C93.2274 16.1328 92.8185 16.8088 92.6348 17.6601C92.326 19.1081 92.4262 20.5728 92.4429 22.0333C92.4471 22.5925 92.5472 23.1642 92.7225 23.6983C93.0104 24.5663 93.5863 24.9126 94.6629 24.9043C94.9049 24.9043 95.0802 24.9252 95.0218 25.2214C95.0218 25.2298 95.0218 25.2381 95.0218 25.2465C95.0218 25.3091 94.98 25.3633 94.9174 25.3842C94.1496 25.6054 93.3818 25.5803 92.5973 25.451C91.746 25.3091 90.9698 25.0337 90.2688 24.512C89.597 24.0113 89.1546 23.3561 88.9293 22.58C88.5036 21.1111 88.4995 19.6214 88.946 18.1525C89.3925 16.6795 90.4566 15.8073 91.8587 15.3066C92.7058 15.0061 93.5821 14.8601 94.4793 14.81C95.0593 14.7766 95.6352 14.7057 96.2152 14.8183C96.3446 14.8434 96.4197 14.7975 96.4197 14.6431C96.4197 13.6582 96.4197 12.6734 96.4197 11.6928C96.4197 11.5551 96.3738 11.4842 96.2277 11.5008C96.1735 11.505 96.1192 11.5008 96.0608 11.5008C92.6015 11.5008 89.1379 11.5008 85.6786 11.5008C85.4574 11.5008 85.2279 11.4675 85.3823 11.818C85.4073 11.8722 85.3823 11.9473 85.3823 12.0141C85.3823 16.404 85.3823 20.7898 85.3906 25.1797C85.3906 25.4843 85.3155 25.5678 85.0067 25.5636C84.0219 25.5428 83.0371 25.5469 82.0565 25.5636C81.7894 25.5636 81.7226 25.4885 81.7268 25.2298C81.7351 23.1851 81.7268 21.1403 81.7351 19.0956C81.7351 18.8702 81.6976 18.7534 81.4305 18.7576C78.5554 18.7659 75.6802 18.7617 72.8051 18.7617C72.6799 18.7617 72.6548 18.8995 72.7717 18.9454C72.8718 18.9829 72.9887 18.9829 73.0888 18.9996C74.5869 19.275 75.7679 20.5269 76.1309 21.9832C76.3312 22.7886 76.5565 23.6357 77.0907 24.3284C77.5372 24.9085 78.1214 25.0837 78.9393 24.7833C79.0686 24.7374 79.173 24.6664 79.2522 24.8542C79.3274 25.0295 79.2689 25.1338 79.1145 25.1964C78.7932 25.3299 78.4844 25.4843 78.1256 25.5219C77.8752 25.5511 77.629 25.6346 77.3661 25.6513C76.4105 25.7222 75.4841 25.6304 74.6078 25.2381C73.623 24.7958 72.9136 24.0822 72.4754 23.0766C72.1416 22.3046 71.9246 21.4992 71.6074 20.723C71.2903 19.9385 70.8855 19.2208 70.0593 18.8494C69.8506 18.7576 69.9341 18.5614 69.9424 18.4112C69.9508 18.2401 70.1052 18.2944 70.2012 18.2944C70.9898 18.2944 71.791 18.3319 72.538 18.0106C73.3183 17.6768 73.8775 17.1719 74.1154 16.2997C74.3824 15.3149 74.3616 14.3593 74.0945 13.3995C73.8233 12.4231 73.1598 11.8597 72.1791 11.6427C71.2402 11.4341 70.2888 11.5259 69.3457 11.5134C69.2956 11.5134 69.2539 11.4716 69.2539 11.4216C69.2539 11.3965 69.2664 11.3715 69.2831 11.3506C69.304 11.3214 69.3165 11.288 69.3207 11.2546C69.3415 11.1002 69.4333 10.9834 69.5877 10.9834C69.6003 10.9834 69.6128 10.9834 69.6211 10.9834H102.266C102.266 10.9834 102.291 10.9834 102.304 10.9834C102.458 10.9834 102.546 11.1044 102.566 11.2546C102.571 11.288 102.583 11.3214 102.604 11.3506C102.621 11.3715 102.633 11.3965 102.633 11.4216C102.633 11.4716 102.591 11.5134 102.541 11.5134C101.811 11.5134 101.081 11.5175 100.346 11.505C100.113 11.5008 100.05 11.5676 100.05 11.8013C100.058 16.2622 100.054 20.723 100.05 25.1881C100.05 25.3967 100.117 25.5052 100.309 25.5803C100.705 25.7431 100.993 26.0477 101.239 26.3899C101.653 26.9699 101.719 27.6334 101.711 28.3261C101.703 29.3401 101.277 30.1079 100.476 30.6838C100.455 30.7005 100.422 30.6922 100.401 30.7088C100.376 30.7255 100.376 30.7631 100.351 30.7798C100.171 30.8925 99.9917 31.0051 99.7956 31.0969C99.1363 31.3974 98.4394 31.5017 97.7258 31.5643C97.392 31.5643 97.0581 31.5643 96.7243 31.5643C95.2137 31.4767 94.0286 30.784 93.0897 29.6197C92.3886 28.7476 91.9463 27.7753 91.8795 26.6444C91.8712 26.5359 91.8128 26.4274 91.8253 26.3231C91.8378 26.1979 91.7085 25.9976 91.988 25.9767C92.205 25.9601 92.3678 25.9767 92.3886 26.2522C92.4345 26.924 92.6348 27.5499 92.9395 28.1508C93.482 29.2275 94.2706 30.0245 95.4683 30.3082C96.1359 30.4668 96.8161 30.5461 97.4713 30.1664C98.0597 29.8242 98.4477 29.3485 98.5145 28.6808C98.5813 27.9798 98.5854 27.2704 98.0597 26.6945C98.043 26.6778 98.0304 26.6611 98.0138 26.6486L98.0179 26.6402Z" fill="white"/>
<path d="M82.6198 9.72323C81.9187 9.51041 81.2677 9.1724 80.5834 8.9095C79.9908 8.68417 79.3983 8.45465 78.8307 8.17924C78.2382 7.89131 77.6373 7.62424 77.2325 7.04003C76.7693 6.37236 77.1616 5.21646 78.0212 5.06206C78.0838 5.05371 78.1297 5.00781 78.1923 5.00781H78.4969C78.6722 5.00781 78.8474 5.04537 79.0018 5.12883C79.9908 5.66714 80.6835 6.55597 81.4472 7.34465C82.0814 7.9998 82.7491 8.62157 83.3292 9.3268C83.4585 9.48537 83.6338 9.61056 83.8007 9.73574C83.9634 9.85676 83.8925 9.96526 83.8132 10.0946C83.7298 10.2282 83.6421 10.2657 83.5002 10.1739C83.2374 10.0028 82.916 9.94022 82.674 9.7274C82.674 9.7274 82.674 9.7274 82.6698 9.71905C82.6657 9.70653 82.6573 9.69819 82.6531 9.68567C82.6531 9.6815 82.6448 9.6815 82.6406 9.68567C82.6364 9.69819 82.6281 9.71071 82.6239 9.72323H82.6198Z" fill="white"/>
<path d="M97.7091 31.5557C97.7091 31.5557 97.7383 31.5682 97.7383 31.5849C97.7383 31.6016 97.7258 31.6099 97.7091 31.6099H96.766C96.766 31.6099 96.741 31.5974 96.741 31.5849C96.741 31.5682 96.7535 31.5557 96.7702 31.5557C97.0831 31.5557 97.3961 31.5557 97.7091 31.5557Z" fill="#D4DEE9"/>
<path d="M69.2705 11.0169C69.2705 11.0169 69.2872 10.9835 69.3081 10.9877C69.3248 10.9877 69.3373 11.0085 69.3373 11.0252C69.3373 11.0628 69.3373 11.0962 69.3373 11.1337C69.3456 11.2339 69.2705 11.2172 69.2705 11.1129V11.0169Z" fill="white"/>
<path d="M102.583 11.021C102.583 11.021 102.596 10.9876 102.612 10.9834C102.633 10.9834 102.65 10.9959 102.65 11.0126V11.1086C102.65 11.2087 102.575 11.2296 102.583 11.1295C102.583 11.0919 102.587 11.0543 102.583 11.021Z" fill="white"/>
<path d="M95.0637 25.3257C95.0637 25.3257 95.0178 25.3257 95.0178 25.3007C95.0178 25.2714 95.0512 25.2548 95.0679 25.2798C95.0804 25.2965 95.0804 25.3132 95.0679 25.3299L95.0637 25.3257Z" fill="#5F85AE"/>
<path d="M98.0222 26.6741C98.0222 26.6741 98.0353 26.6522 98.0485 26.6653C98.0572 26.6741 98.0485 26.696 98.0397 26.6872C98.031 26.6872 98.0266 26.6785 98.0266 26.6741H98.0222Z" fill="#5F85AE"/>
<path d="M75.3673 11.5002C75.3673 11.5002 75.3756 11.5127 75.3756 11.5211C75.3756 11.5461 75.3589 11.567 75.3339 11.567C75.2963 11.5628 75.263 11.5503 75.2713 11.5044C75.288 11.4376 75.3339 11.4585 75.3673 11.496V11.5002Z" fill="white"/>
<path d="M75.5675 18.1985C75.5716 18.2027 75.5758 18.2069 75.58 18.211C75.5883 18.2277 75.58 18.2486 75.5591 18.2528C75.5466 18.2611 75.5299 18.2653 75.5174 18.2569C75.5007 18.2486 75.5091 18.2277 75.5257 18.2194C75.5424 18.211 75.555 18.2027 75.5716 18.1943L75.5675 18.1985Z" fill="#D4DEE9"/>
<path d="M100.427 30.7002C100.427 30.7002 100.444 30.7177 100.435 30.7264C100.422 30.7352 100.405 30.7264 100.409 30.7133C100.409 30.7046 100.418 30.7002 100.427 30.7002Z" fill="#FDFDFE"/>
<path d="M82.6457 9.7202C82.6457 9.7202 82.6282 9.70707 82.6325 9.69832C82.6369 9.68519 82.6544 9.68519 82.6588 9.69832C82.6632 9.70707 82.6588 9.7202 82.6457 9.7202Z" fill="#FDFDFE"/>
<path d="M41.7918 18.9446V22.9381H44.5835C45.6685 22.9381 46.3612 22.9089 46.6533 22.8463C47.0998 22.7628 47.467 22.5667 47.7424 22.2538C48.0262 21.9366 48.1723 21.511 48.1723 20.981C48.1723 20.5345 48.0638 20.1506 47.8468 19.8418C47.6298 19.533 47.3126 19.3035 46.8995 19.1574C46.4906 19.0156 45.6017 18.9446 44.2288 18.9446H41.796H41.7918ZM41.7918 13.0065V16.4617H43.7698C44.9466 16.4617 45.6768 16.445 45.9606 16.4116C46.478 16.3491 46.8828 16.1738 47.1749 15.8817C47.4754 15.5812 47.6214 15.1931 47.6214 14.7091C47.6214 14.225 47.4921 13.8745 47.2333 13.5866C46.983 13.2945 46.6032 13.1192 46.1025 13.0566C45.802 13.0232 44.9424 13.0065 43.5236 13.0065H41.7918ZM38.7748 10.5195H44.7463C45.9272 10.5195 46.8077 10.5695 47.3836 10.6739C47.9678 10.7698 48.4852 10.9743 48.9443 11.2831C49.4074 11.5961 49.7914 12.0134 50.096 12.535C50.4006 13.0524 50.555 13.6325 50.555 14.2751C50.555 14.9762 50.363 15.6146 49.9833 16.1988C49.6077 16.783 49.0986 17.2212 48.456 17.5133C49.3657 17.7762 50.0668 18.231 50.555 18.8695C51.0432 19.508 51.2894 20.2591 51.2894 21.1229C51.2894 21.8031 51.1309 22.4624 50.8096 23.1092C50.4966 23.7477 50.0668 24.2609 49.5159 24.649C48.9735 25.0288 48.3016 25.2624 47.5004 25.3501C46.9997 25.4043 45.7853 25.4377 43.8616 25.4502H38.779V10.5195H38.7748ZM33.2415 19.9628L36.1667 20.8892C35.7202 22.5208 34.9733 23.731 33.9259 24.528C32.8868 25.3167 31.564 25.7089 29.9616 25.7089C27.9794 25.7089 26.3478 25.0329 25.0709 23.6809C23.794 22.3205 23.1555 20.4677 23.1555 18.1184C23.1555 15.6313 23.7982 13.7034 25.0793 12.3305C26.3645 10.9534 28.0504 10.2607 30.141 10.2607C31.9688 10.2607 33.4502 10.7991 34.5935 11.8798C35.2737 12.5183 35.7828 13.4363 36.1208 14.6298L33.1372 15.3434C32.9619 14.5672 32.5905 13.958 32.0272 13.5115C31.4722 13.065 30.792 12.8396 29.9908 12.8396C28.885 12.8396 27.9836 13.236 27.2909 14.0331C26.6065 14.8259 26.2602 16.1154 26.2602 17.893C26.2602 19.7792 26.5982 21.1271 27.2784 21.9283C27.9586 22.7295 28.8391 23.1301 29.9282 23.1301C30.7294 23.1301 31.4179 22.8755 31.998 22.3664C32.578 21.8573 32.9911 21.0561 33.2415 19.9628ZM11.6174 13.0441V22.9381H13.8708C14.7137 22.9381 15.3188 22.8922 15.6943 22.7962C16.1826 22.6752 16.5873 22.4666 16.9086 22.1745C17.2341 21.8824 17.5012 21.4025 17.7015 20.739C17.906 20.0671 18.0061 19.1533 18.0061 17.9974C18.0061 16.8415 17.906 15.9568 17.7015 15.3392C17.497 14.7216 17.2133 14.2375 16.8461 13.8912C16.4788 13.5448 16.0156 13.3112 15.4523 13.1901C15.0308 13.0942 14.2046 13.0483 12.9777 13.0483H11.6215L11.6174 13.0441ZM8.60034 10.5195H14.1128C15.3563 10.5195 16.3036 10.6154 16.9546 10.8032C17.8309 11.0619 18.582 11.521 19.2079 12.1803C19.8339 12.8396 20.3096 13.6492 20.6351 14.6048C20.9606 15.5562 21.1233 16.7288 21.1233 18.1309C21.1233 19.3619 20.9689 20.4218 20.6643 21.3107C20.2887 22.3956 19.7588 23.2761 19.0661 23.948C18.5444 24.4571 17.835 24.8535 16.9462 25.1414C16.2785 25.3501 15.3897 25.4586 14.2755 25.4586H8.60034V10.5195Z" fill="white"/>
</g>
<defs>
<clipPath id="clip0_2581_13054">
<rect width="111" height="35.4699" fill="white"/>
</clipPath>
</defs>
</svg>
