<svg width="141" height="22" viewBox="0 0 141 22" fill="none" xmlns="http://www.w3.org/2000/svg">
<path d="M0 7.80142L15.9149 0V6.24114L0 14.0426V7.80142Z" fill="#0F547E"/>
<path d="M0 14.1986L15.9149 22V15.7589L0 7.95745V14.1986Z" fill="#28B2B6"/>
<path d="M120.779 10.4934H115.021V21.5422H111.104V10.4934H108.707V7.16123H111.104V5.52438C111.104 3.90701 111.572 2.61117 112.507 1.63685C113.462 0.662536 114.738 0.175378 116.336 0.175378C117.193 0.175378 117.836 0.27281 118.265 0.467673V3.74138C117.934 3.64395 117.525 3.59523 117.037 3.59523C116.511 3.59523 116.044 3.75112 115.634 4.0629C115.225 4.3552 115.021 4.86185 115.021 5.58284V7.16123H124.637V21.5422H120.779V10.4934ZM121.013 4.12136C120.545 3.65369 120.311 3.08859 120.311 2.42605C120.311 1.76351 120.545 1.19841 121.013 0.730739C121.48 0.24358 122.045 0 122.708 0C123.371 0 123.936 0.24358 124.403 0.730739C124.871 1.19841 125.105 1.76351 125.105 2.42605C125.105 3.08859 124.871 3.65369 124.403 4.12136C123.936 4.56955 123.371 4.79364 122.708 4.79364C122.045 4.79364 121.48 4.56955 121.013 4.12136Z" fill="#28B2B6"/>
<path d="M130.947 13.2702V21.5422H127.059V7.16123H130.83V8.94424C131.239 8.24273 131.823 7.70685 132.583 7.33661C133.343 6.96637 134.142 6.78125 134.98 6.78125C136.676 6.78125 137.962 7.31713 138.839 8.38888C139.735 9.44114 140.183 10.8052 140.183 12.481V21.5422H136.296V13.1533C136.296 12.2959 136.072 11.6041 135.623 11.078C135.195 10.5519 134.532 10.2888 133.636 10.2888C132.817 10.2888 132.164 10.5713 131.677 11.1365C131.19 11.7016 130.947 12.4128 130.947 13.2702Z" fill="#28B2B6"/>
<path d="M36.6271 7.1613L30.8688 13.2118L36.744 21.5422H31.9796L28.1797 16.0471L26.5721 17.7424V21.5422H22.6846V0.380052H26.5721V12.5103L31.5411 7.1613H36.6271Z" fill="#0F547E"/>
<path d="M36.0388 17.6255C36.0388 16.3978 36.4383 15.4138 37.2372 14.6733C38.0362 13.9328 39.0689 13.4651 40.3355 13.2703L43.8723 12.7441C44.5933 12.6467 44.9538 12.3057 44.9538 11.7211C44.9538 11.1755 44.7395 10.7273 44.3108 10.3765C43.9016 10.0258 43.3072 9.85042 42.5278 9.85042C41.7093 9.85042 41.0565 10.0745 40.5694 10.5227C40.1017 10.9709 39.8386 11.5262 39.7802 12.1888L36.3311 11.458C36.4675 10.2109 37.0813 9.10994 38.1726 8.15511C39.2638 7.20027 40.7058 6.72286 42.4985 6.72286C44.642 6.72286 46.2204 7.23925 47.2337 8.27202C48.247 9.28531 48.7537 10.5909 48.7537 12.1888V19.2623C48.7537 20.1197 48.8121 20.8797 48.929 21.5422H45.363C45.2656 21.1135 45.2169 20.5387 45.2169 19.8177C44.301 21.2402 42.8883 21.9514 40.9786 21.9514C39.4976 21.9514 38.2992 21.5227 37.3834 20.6653C36.487 19.8079 36.0388 18.7947 36.0388 17.6255ZM41.797 19.0577C42.7129 19.0577 43.4631 18.8044 44.0477 18.2977C44.6518 17.7716 44.9538 16.9142 44.9538 15.7256V15.0825L41.7093 15.5794C40.5207 15.7548 39.9263 16.3589 39.9263 17.3916C39.9263 17.8593 40.092 18.2588 40.4232 18.59C40.7545 18.9018 41.2124 19.0577 41.797 19.0577Z" fill="#0F547E"/>
<path d="M54.806 21.5422H50.9185V0.380052H54.806V21.5422Z" fill="#0F547E"/>
<path d="M60.0495 12.7149H66.48C66.441 11.916 66.1487 11.2437 65.6031 10.6981C65.077 10.1525 64.2975 9.87965 63.2647 9.87965C62.3294 9.87965 61.5694 10.1719 60.9848 10.7565C60.4002 11.3411 60.0885 11.9939 60.0495 12.7149ZM66.86 16.4563L70.1045 17.4209C69.7147 18.7459 68.945 19.8372 67.7953 20.6946C66.6651 21.552 65.2523 21.9807 63.557 21.9807C61.4915 21.9807 59.7377 21.2889 58.2957 19.9054C56.8537 18.5024 56.1327 16.6317 56.1327 14.2933C56.1327 12.0719 56.8342 10.2596 58.2373 8.85661C59.6403 7.43411 61.2966 6.72286 63.2063 6.72286C65.4277 6.72286 67.162 7.38539 68.4091 8.71047C69.6758 10.0355 70.3091 11.8575 70.3091 14.1764C70.3091 14.3323 70.2993 14.5077 70.2798 14.7025C70.2798 14.8974 70.2798 15.0533 70.2798 15.1702L70.2506 15.3748H59.9618C60.0008 16.3101 60.371 17.0896 61.0725 17.7132C61.774 18.3367 62.6119 18.6485 63.5863 18.6485C65.2426 18.6485 66.3338 17.9178 66.86 16.4563Z" fill="#0F547E"/>
<path d="M75.5041 21.5422H71.6166V7.1613H75.5041V21.5422ZM71.1489 2.45535C71.1489 1.79281 71.3828 1.22771 71.8505 0.760036C72.3181 0.272877 72.8832 0.0292969 73.5458 0.0292969C74.2083 0.0292969 74.7734 0.263134 75.2411 0.730807C75.7088 1.19848 75.9426 1.77333 75.9426 2.45535C75.9426 3.0984 75.7088 3.65376 75.2411 4.12143C74.7734 4.5891 74.2083 4.82294 73.5458 4.82294C72.8832 4.82294 72.3181 4.5891 71.8505 4.12143C71.3828 3.65376 71.1489 3.0984 71.1489 2.45535Z" fill="#0F547E"/>
<path d="M91.621 0.380052V18.9408C91.621 19.8956 91.66 20.7628 91.738 21.5422H88.0258C87.9284 21.0551 87.8797 20.4997 87.8797 19.8761C87.5484 20.4802 87.0223 20.9674 86.3013 21.3376C85.5997 21.7079 84.7813 21.893 83.846 21.893C81.7999 21.893 80.1143 21.1817 78.7893 19.7592C77.4837 18.3172 76.8309 16.505 76.8309 14.3225C76.8309 12.1985 77.4739 10.4155 78.76 8.97353C80.0656 7.53154 81.722 6.81055 83.7291 6.81055C85.7946 6.81055 87.1489 7.40488 87.792 8.59355V0.380052H91.621ZM80.7476 14.3225C80.7476 15.5891 81.0789 16.5927 81.7415 17.3332C82.404 18.0542 83.2614 18.4147 84.3137 18.4147C85.3464 18.4147 86.1941 18.0444 86.8566 17.3039C87.5192 16.5635 87.8504 15.5599 87.8504 14.2933C87.8504 13.0462 87.5192 12.0719 86.8566 11.3704C86.1941 10.6494 85.3464 10.2889 84.3137 10.2889C83.2809 10.2889 82.4235 10.6494 81.7415 11.3704C81.0789 12.0913 80.7476 13.0754 80.7476 14.3225Z" fill="#0F547E"/>
<path d="M97.9428 17.3624C98.6638 18.0834 99.531 18.4439 100.544 18.4439C101.558 18.4439 102.415 18.0834 103.116 17.3624C103.837 16.6414 104.198 15.6379 104.198 14.3518C104.198 13.0657 103.837 12.0621 103.116 11.3411C102.415 10.6201 101.558 10.2596 100.544 10.2596C99.531 10.2596 98.6638 10.6201 97.9428 11.3411C97.2413 12.0621 96.8906 13.0657 96.8906 14.3518C96.8906 15.6379 97.2413 16.6414 97.9428 17.3624ZM95.1368 8.88584C96.5788 7.44385 98.3813 6.72286 100.544 6.72286C102.707 6.72286 104.5 7.44385 105.922 8.88584C107.364 10.3278 108.085 12.1498 108.085 14.3518C108.085 16.5537 107.364 18.3757 105.922 19.8177C104.5 21.2597 102.707 21.9807 100.544 21.9807C98.3813 21.9807 96.5788 21.2597 95.1368 19.8177C93.7143 18.3757 93.003 16.5537 93.003 14.3518C93.003 12.1498 93.7143 10.3278 95.1368 8.88584Z" fill="#0F547E"/>
</svg>
