<svg width="23" height="24" viewBox="0 0 23 24" fill="none" xmlns="http://www.w3.org/2000/svg">
<path fill-rule="evenodd" clip-rule="evenodd" d="M0.225098 22.2631C0.225098 23.136 0.914458 23.8435 1.76483 23.8435H20.3586C21.6053 23.8435 22.3351 22.4023 21.6187 21.355L20.9791 20.42C16.3772 13.6928 10.6972 7.81545 4.18056 3.03783L2.65978 1.92289C1.64068 1.17575 0.225098 1.92346 0.225098 3.20889V22.2631Z" fill="#FF7D35"/>
<path fill-rule="evenodd" clip-rule="evenodd" d="M0 1.61749C0 0.724173 0.706095 0 1.57711 0H21.2511C22.3303 0 23.0125 1.18905 22.4884 2.1566C19.4556 7.75549 15.2923 12.6259 10.277 16.4422L2.51682 22.3472C1.47613 23.1391 0 22.3772 0 21.0482V1.61749Z" fill="#FFA472"/>
</svg>
