<svg width="190" height="27" viewBox="0 0 190 27" fill="none" xmlns="http://www.w3.org/2000/svg">
<path fill-rule="evenodd" clip-rule="evenodd" d="M0.225098 22.2631C0.225098 23.136 0.914458 23.8435 1.76483 23.8435H20.3586C21.6053 23.8435 22.3351 22.4023 21.6187 21.355L20.9791 20.42C16.3772 13.6928 10.6972 7.81545 4.18056 3.03783L2.65978 1.92289C1.64068 1.17575 0.225098 1.92346 0.225098 3.20889V22.2631Z" fill="#FF7D35"/>
<path fill-rule="evenodd" clip-rule="evenodd" d="M0 1.61749C0 0.724173 0.706095 0 1.57711 0H21.2511C22.3303 0 23.0125 1.18905 22.4884 2.1566C19.4556 7.75549 15.2923 12.6259 10.277 16.4422L2.51682 22.3472C1.47613 23.1391 0 22.3772 0 21.0482V1.61749Z" fill="#FFA472"/>
<path d="M43.9042 11.8655L51.7792 22.121H47.1245L39.8057 12.7771V22.121H35.7657V2.17982H39.8057V10.9824L46.8317 2.17982H51.4864L43.9042 11.8655Z" fill="black"/>
<path d="M63.692 9.55806V7.8773H67.4685V22.121H63.692V20.4403C62.56 21.8266 60.9694 22.5198 58.9202 22.5198C56.9685 22.5198 55.2901 21.7982 53.8849 20.3548C52.4992 18.8924 51.8063 17.1072 51.8063 14.9992C51.8063 12.9101 52.4992 11.1344 53.8849 9.67201C55.2901 8.20966 56.9685 7.47848 58.9202 7.47848C60.9694 7.47848 62.56 8.17167 63.692 9.55806ZM56.7245 17.9049C57.4857 18.6455 58.4518 19.0159 59.6228 19.0159C60.7938 19.0159 61.7598 18.6455 62.521 17.9049C63.3017 17.1452 63.692 16.1766 63.692 14.9992C63.692 13.8217 63.3017 12.8626 62.521 12.1219C61.7598 11.3623 60.7938 10.9824 59.6228 10.9824C58.4518 10.9824 57.4857 11.3623 56.7245 12.1219C55.9634 12.8626 55.5828 13.8217 55.5828 14.9992C55.5828 16.1766 55.9634 17.1452 56.7245 17.9049Z" fill="black"/>
<path d="M74.9509 22.121H71.1745V1.3252H74.9509V22.121Z" fill="black"/>
<path d="M92.9166 16.509H81.8799C82.3678 18.2942 83.7438 19.1868 86.0077 19.1868C87.4519 19.1868 88.5448 18.712 89.2865 17.7624L92.3311 19.4717C90.8868 21.5038 88.7595 22.5198 85.9491 22.5198C83.5291 22.5198 81.5872 21.8077 80.1234 20.3833C78.6597 18.9589 77.9278 17.1642 77.9278 14.9992C77.9278 12.8721 78.6499 11.0869 80.0941 9.64352C81.5188 8.20016 83.3729 7.47848 85.6564 7.47848C87.8227 7.47848 89.589 8.20016 90.9552 9.64352C92.3604 11.0869 93.063 12.8721 93.063 14.9992C93.063 15.398 93.0142 15.9013 92.9166 16.509ZM81.8214 13.6603H89.2865C89.0718 12.7297 88.6327 12.0175 87.9691 11.5237C87.3251 11.0299 86.5542 10.783 85.6564 10.783C84.6415 10.783 83.8023 11.0394 83.1387 11.5522C82.4752 12.046 82.036 12.7487 81.8214 13.6603Z" fill="black"/>
<path d="M97.8544 6.16806C97.2299 6.16806 96.6834 5.94965 96.215 5.51285C95.7661 5.05705 95.5417 4.52528 95.5417 3.91755C95.5417 3.30982 95.7661 2.77805 96.215 2.32225C96.6834 1.86646 97.2299 1.63856 97.8544 1.63856C98.4985 1.63856 99.0449 1.86646 99.4938 2.32225C99.9622 2.77805 100.196 3.30982 100.196 3.91755C100.196 4.52528 99.9622 5.05705 99.4938 5.51285C99.0449 5.94965 98.4985 6.16806 97.8544 6.16806ZM99.7573 22.121H95.9808V7.8773H99.7573V22.121Z" fill="black"/>
<path d="M114.591 9.55806V2.17982H118.367V22.121H114.591V20.4403C113.478 21.8266 111.897 22.5198 109.848 22.5198C107.877 22.5198 106.189 21.7982 104.783 20.3548C103.398 18.8924 102.705 17.1072 102.705 14.9992C102.705 12.9101 103.398 11.1344 104.783 9.67201C106.189 8.20966 107.877 7.47848 109.848 7.47848C111.897 7.47848 113.478 8.17167 114.591 9.55806ZM107.623 17.9049C108.423 18.6455 109.399 19.0159 110.551 19.0159C111.722 19.0159 112.688 18.6455 113.449 17.9049C114.21 17.1452 114.591 16.1766 114.591 14.9992C114.591 13.8217 114.21 12.8626 113.449 12.1219C112.688 11.3623 111.722 10.9824 110.551 10.9824C109.38 10.9824 108.404 11.3623 107.623 12.1219C106.862 12.8626 106.481 13.8217 106.481 14.9992C106.481 16.1766 106.862 17.1452 107.623 17.9049Z" fill="black"/>
<path d="M134.573 20.3548C133.09 21.7982 131.256 22.5198 129.07 22.5198C126.884 22.5198 125.049 21.7982 123.566 20.3548C122.083 18.9114 121.341 17.1262 121.341 14.9992C121.341 12.8911 122.083 11.1154 123.566 9.67201C125.069 8.20966 126.903 7.47848 129.07 7.47848C131.236 7.47848 133.071 8.20966 134.573 9.67201C136.076 11.1344 136.828 12.9101 136.828 14.9992C136.828 17.1072 136.076 18.8924 134.573 20.3548ZM126.23 17.8194C126.991 18.5601 127.938 18.9304 129.07 18.9304C130.202 18.9304 131.148 18.5601 131.909 17.8194C132.671 17.0787 133.051 16.1387 133.051 14.9992C133.051 13.8597 132.671 12.9196 131.909 12.1789C131.148 11.4382 130.202 11.0679 129.07 11.0679C127.938 11.0679 126.991 11.4382 126.23 12.1789C125.488 12.9386 125.118 13.8787 125.118 14.9992C125.118 16.1197 125.488 17.0597 126.23 17.8194Z" fill="black"/>
<path d="M148.999 6.0127C150.921 6.0127 152.557 6.7471 153.907 8.21591C155.277 9.68472 155.962 11.4683 155.962 13.5666C155.962 15.703 155.277 17.4961 153.907 18.9459C152.576 20.3956 150.94 21.1205 148.999 21.1205C147.002 21.1205 145.461 20.4242 144.377 19.0317V26.4425H140.696V6.41328H144.377V8.10146C145.461 6.70895 147.002 6.0127 148.999 6.0127ZM145.49 16.4851C146.232 17.2291 147.173 17.601 148.315 17.601C149.456 17.601 150.398 17.2291 151.14 16.4851C151.9 15.7221 152.281 14.7493 152.281 13.5666C152.281 12.3839 151.9 11.4206 151.14 10.6766C150.398 9.91363 149.456 9.53212 148.315 9.53212C147.173 9.53212 146.232 9.91363 145.49 10.6766C144.748 11.4206 144.377 12.3839 144.377 13.5666C144.377 14.7493 144.748 15.7221 145.49 16.4851Z" fill="#FF7D35"/>
<path d="M169.571 8.10146V6.41328H173.252V20.7199H169.571V19.0317C168.468 20.4242 166.917 21.1205 164.92 21.1205C163.018 21.1205 161.382 20.3956 160.012 18.9459C158.661 17.477 157.986 15.684 157.986 13.5666C157.986 11.4683 158.661 9.68472 160.012 8.21591C161.382 6.7471 163.018 6.0127 164.92 6.0127C166.917 6.0127 168.468 6.70895 169.571 8.10146ZM162.78 16.4851C163.522 17.2291 164.463 17.601 165.605 17.601C166.746 17.601 167.688 17.2291 168.43 16.4851C169.191 15.7221 169.571 14.7493 169.571 13.5666C169.571 12.3839 169.191 11.4206 168.43 10.6766C167.688 9.91363 166.746 9.53212 165.605 9.53212C164.463 9.53212 163.522 9.91363 162.78 10.6766C162.038 11.4206 161.667 12.3839 161.667 13.5666C161.667 14.7493 162.038 15.7221 162.78 16.4851Z" fill="#FF7D35"/>
<path d="M182.895 16.0273L186.062 6.41328H190L184.807 20.7199C184.065 22.78 183.076 24.2679 181.839 25.1835C180.622 26.1182 179.1 26.5379 177.274 26.4425V23.0089C178.244 23.028 179.024 22.8182 179.613 22.3794C180.203 21.9407 180.669 21.2349 181.012 20.2621L175.162 6.41328H179.185L182.895 16.0273Z" fill="#FF7D35"/>
</svg>
