<svg width="54" height="47" viewBox="0 0 54 47" fill="none" xmlns="http://www.w3.org/2000/svg">
<path d="M52.1445 31.2715L48.9092 28.0361L43.6626 33.2827L38.416 28.0361L35.1807 31.2715L40.4272 36.5181L35.1807 41.7646L38.416 45L43.6626 39.7534L48.9092 45L52.1445 41.7646L46.8979 36.5181L52.1445 31.2715Z" fill="#FE1D39" stroke="white" stroke-width="2"/>
<g opacity="0.5">
<path fill-rule="evenodd" clip-rule="evenodd" d="M5.7941 1H42.1225C44.6269 1 46.6636 3.03666 46.6636 5.54105V25.9758H42.1256L42.1248 19.1642H5.7941V37.3284H33.0404V41.8695H5.7941C3.28971 41.8695 1.25305 39.8328 1.25305 37.3284V5.54105C1.25305 3.03666 3.28971 1 5.7941 1ZM42.1248 14.6232L42.1225 5.54105H5.7941V14.6232H42.1248Z" fill="#333333"/>
<path d="M46.6636 25.9758V26.9758H47.6636V25.9758H46.6636ZM42.1256 25.9758L41.1256 25.9759L41.1258 26.9758H42.1256V25.9758ZM42.1248 19.1642L43.1248 19.1641L43.1247 18.1642H42.1248V19.1642ZM5.7941 19.1642V18.1642H4.7941V19.1642H5.7941ZM5.7941 37.3284H4.7941V38.3284H5.7941V37.3284ZM33.0404 37.3284H34.0404V36.3284H33.0404V37.3284ZM33.0404 41.8695V42.8695H34.0404V41.8695H33.0404ZM42.1225 5.54105L43.1225 5.5408L43.1223 4.54105H42.1225V5.54105ZM42.1248 14.6232V15.6232H43.125L43.1248 14.6229L42.1248 14.6232ZM5.7941 5.54105V4.54105H4.7941V5.54105H5.7941ZM5.7941 14.6232H4.7941V15.6232H5.7941V14.6232ZM42.1225 0H5.7941V2H42.1225V0ZM47.6636 5.54105C47.6636 2.48438 45.1792 0 42.1225 0V2C44.0746 2 45.6636 3.58895 45.6636 5.54105H47.6636ZM47.6636 25.9758V5.54105H45.6636V25.9758H47.6636ZM42.1256 26.9758H46.6636V24.9758H42.1256V26.9758ZM41.1248 19.1643L41.1256 25.9759L43.1256 25.9757L43.1248 19.1641L41.1248 19.1643ZM5.7941 20.1642H42.1248V18.1642H5.7941V20.1642ZM6.7941 37.3284V19.1642H4.7941V37.3284H6.7941ZM33.0404 36.3284H5.7941V38.3284H33.0404V36.3284ZM34.0404 41.8695V37.3284H32.0404V41.8695H34.0404ZM5.7941 42.8695H33.0404V40.8695H5.7941V42.8695ZM0.253052 37.3284C0.253052 40.3851 2.73743 42.8695 5.7941 42.8695V40.8695C3.842 40.8695 2.25305 39.2805 2.25305 37.3284H0.253052ZM0.253052 5.54105V37.3284H2.25305V5.54105H0.253052ZM5.7941 0C2.73743 0 0.253052 2.48438 0.253052 5.54105H2.25305C2.25305 3.58895 3.842 2 5.7941 2V0ZM41.1225 5.5413L41.1248 14.6234L43.1248 14.6229L43.1225 5.5408L41.1225 5.5413ZM5.7941 6.54105H42.1225V4.54105H5.7941V6.54105ZM6.7941 14.6232V5.54105H4.7941V14.6232H6.7941ZM42.1248 13.6232H5.7941V15.6232H42.1248V13.6232Z" fill="white"/>
</g>
<rect opacity="0.5" x="32.7864" y="9.06665" width="2.2" height="2.2" fill="#333333"/>
<rect opacity="0.5" x="28" y="9" width="2.2" height="2.2" fill="#333333"/>
<rect opacity="0.5" x="37.9197" y="9.06665" width="2.2" height="2.2" fill="#333333"/>
</svg>
