<svg width="24" height="26" viewBox="0 0 24 26" fill="none" xmlns="http://www.w3.org/2000/svg">
<path d="M24 7.13666C24 3.19519 20.8067 0 16.8672 0C13.1064 0 10.0247 2.91306 9.75396 6.60722C14.0566 7.04231 17.582 10.1438 18.6203 14.2733H24L22.2015 11.8741C23.3206 10.6138 24 8.95454 24 7.13666Z" fill="#E6EBF5"/>
<path d="M9.49932 8.08282C4.36815 7.63061 0 11.6649 0 16.7714C0 18.9934 0.830639 21.0207 2.19804 22.5609L0 25.4938H8.71783C13.5323 25.4938 17.4357 21.5888 17.4357 16.7714C17.4357 12.2369 13.9674 8.48002 9.49932 8.08282ZM3.96264 14.3929H8.71783V15.9796H3.96264V14.3929ZM13.4731 19.1531H3.96264V17.5664H13.4731V19.1531Z" fill="#E6EBF5"/>
</svg>
