<svg width="24" height="24" viewBox="0 0 24 24" fill="none" xmlns="http://www.w3.org/2000/svg">
<g clip-path="url(#clip0)">
<path d="M20.5356 12.8118H18.6795C18.8687 13.3298 18.9721 13.8888 18.9721 14.4714V21.4862C18.9721 21.7292 18.9298 21.9623 18.8528 22.1792H21.9213C23.0676 22.1792 24.0001 21.2466 24.0001 20.1004V16.2763C24.0001 14.366 22.4459 12.8118 20.5356 12.8118Z" fill="#E6EBF5"/>
<path d="M5.02806 14.4715C5.02806 13.8888 5.13142 13.3299 5.3206 12.8119H3.46454C1.55419 12.8119 0 14.3661 0 16.2764V20.1005C0 21.2467 0.932486 22.1793 2.07872 22.1793H5.14726C5.07034 21.9623 5.02806 21.7292 5.02806 21.4863V14.4715Z" fill="#E6EBF5"/>
<path d="M14.1215 11.007H9.87829C7.96795 11.007 6.41376 12.5612 6.41376 14.4716V21.4864C6.41376 21.8691 6.72398 22.1793 7.10666 22.1793H16.8931C17.2758 22.1793 17.586 21.8691 17.586 21.4864V14.4716C17.586 12.5612 16.0319 11.007 14.1215 11.007Z" fill="#E6EBF5"/>
<path d="M12 1.82056C9.70259 1.82056 7.8335 3.68965 7.8335 5.98714C7.8335 7.5455 8.69361 8.90652 9.96382 9.62109C10.5663 9.95999 11.2609 10.1537 12 10.1537C12.7392 10.1537 13.4337 9.95999 14.0362 9.62109C15.3065 8.90652 16.1666 7.54546 16.1666 5.98714C16.1666 3.6897 14.2975 1.82056 12 1.82056Z" fill="#E6EBF5"/>
<path d="M4.68353 5.70422C2.96532 5.70422 1.5675 7.10204 1.5675 8.82025C1.5675 10.5385 2.96532 11.9363 4.68353 11.9363C5.11937 11.9363 5.5344 11.846 5.91142 11.6837C6.56326 11.4031 7.10073 10.9063 7.43331 10.284C7.66675 9.84728 7.79955 9.34904 7.79955 8.82025C7.79955 7.10209 6.40173 5.70422 4.68353 5.70422Z" fill="#E6EBF5"/>
<path d="M19.3165 5.70422C17.5983 5.70422 16.2004 7.10204 16.2004 8.82025C16.2004 9.34909 16.3332 9.84733 16.5667 10.284C16.8993 10.9063 17.4367 11.4031 18.0886 11.6837C18.4656 11.846 18.8806 11.9363 19.3165 11.9363C21.0347 11.9363 22.4325 10.5385 22.4325 8.82025C22.4325 7.10204 21.0347 5.70422 19.3165 5.70422Z" fill="#E6EBF5"/>
</g>
<defs>
<clipPath id="clip0">
<rect width="24" height="24" fill="white"/>
</clipPath>
</defs>
</svg>
