<svg width="24" height="24" viewBox="0 0 24 24" fill="none" xmlns="http://www.w3.org/2000/svg">
<path fill-rule="evenodd" clip-rule="evenodd" d="M12.0001 24C18.6275 24 24 18.6275 24 12.0001C24 5.37253 18.6275 0 12.0001 0C5.37253 0 0 5.37253 0 12.0001C0 18.6275 5.37253 24 12.0001 24ZM13.8957 7.90916H15.5462C15.9978 7.90916 16.3644 7.54262 16.3644 7.09098C16.3644 6.63934 15.9978 6.2728 15.5462 6.2728H8.4552L8.44022 6.27293C7.99518 6.28058 7.63636 6.64414 7.63636 7.09099C7.63636 7.54263 8.0029 7.90918 8.45454 7.90918H10.9091C11.7725 7.90918 12.5037 8.48499 12.7389 9.2727H8.45448C8.00284 9.2727 7.63629 9.63925 7.63629 10.0909C7.63629 10.5425 8.00284 10.9091 8.45448 10.9091H12.4752C12.1298 11.4033 11.5566 11.7272 10.9091 11.7272H8.45454C8.09579 11.7272 7.77818 11.9607 7.67251 12.3043C7.56665 12.6481 7.69748 13.019 7.99312 13.2218L13.9933 17.3127C14.1349 17.4088 14.2943 17.4545 14.4535 17.4545C14.7154 17.4545 14.9728 17.3291 15.1311 17.0978C15.3851 16.7248 15.2893 16.2153 14.9161 15.9612L11.1001 13.3592C12.591 13.2791 13.8405 12.2739 14.283 10.9091H15.5455C15.9971 10.9091 16.3637 10.5425 16.3637 10.0909C16.3637 9.63925 15.9971 9.2727 15.5455 9.2727H14.4128C14.3359 8.77703 14.156 8.31496 13.8957 7.90916Z" fill="#E6EBF5"/>
</svg>
