<svg width="24" height="24" viewBox="0 0 24 24" fill="none" xmlns="http://www.w3.org/2000/svg">
<g clip-path="url(#clip0)">
<path d="M20.5355 12.8118H18.6794C18.8686 13.3298 18.972 13.8888 18.972 14.4714V21.4862C18.972 21.7292 18.9297 21.9623 18.8528 22.1792H21.9213C23.0675 22.1792 24 21.2466 24 20.1004V16.2763C24 14.366 22.4459 12.8118 20.5355 12.8118Z" fill="#FF7B52"/>
<path d="M5.02806 14.4715C5.02806 13.8888 5.13142 13.3299 5.3206 12.8119H3.46454C1.55419 12.8119 0 14.3661 0 16.2764V20.1005C0 21.2467 0.932486 22.1793 2.07872 22.1793H5.14726C5.07034 21.9623 5.02806 21.7292 5.02806 21.4863V14.4715Z" fill="#FF7B52"/>
<path d="M14.1216 11.007H9.87835C7.96801 11.007 6.41382 12.5612 6.41382 14.4716V21.4864C6.41382 21.8691 6.72404 22.1793 7.10672 22.1793H16.8932C17.2759 22.1793 17.5861 21.8691 17.5861 21.4864V14.4716C17.5861 12.5612 16.0319 11.007 14.1216 11.007Z" fill="#FF7B52"/>
<path d="M12 1.82056C9.70259 1.82056 7.8335 3.68965 7.8335 5.98714C7.8335 7.5455 8.69361 8.90652 9.96382 9.62109C10.5663 9.95999 11.2609 10.1537 12 10.1537C12.7392 10.1537 13.4337 9.95999 14.0362 9.62109C15.3065 8.90652 16.1666 7.54546 16.1666 5.98714C16.1666 3.6897 14.2975 1.82056 12 1.82056Z" fill="#FF7B52"/>
<path d="M4.68365 5.70422C2.96544 5.70422 1.56763 7.10204 1.56763 8.82025C1.56763 10.5385 2.96544 11.9363 4.68365 11.9363C5.11949 11.9363 5.53453 11.846 5.91154 11.6837C6.56339 11.4031 7.10086 10.9063 7.43344 10.284C7.66687 9.84728 7.79967 9.34904 7.79967 8.82025C7.79967 7.10209 6.40185 5.70422 4.68365 5.70422Z" fill="#FF7B52"/>
<path d="M19.3165 5.70422C17.5983 5.70422 16.2004 7.10204 16.2004 8.82025C16.2004 9.34909 16.3332 9.84733 16.5667 10.284C16.8993 10.9063 17.4367 11.4031 18.0886 11.6837C18.4656 11.846 18.8806 11.9363 19.3165 11.9363C21.0347 11.9363 22.4325 10.5385 22.4325 8.82025C22.4325 7.10204 21.0347 5.70422 19.3165 5.70422Z" fill="#FF7B52"/>
</g>
<defs>
<clipPath id="clip0">
<rect width="24" height="24" fill="white"/>
</clipPath>
</defs>
</svg>
