<svg width="24" height="24" viewBox="0 0 24 24" fill="none" xmlns="http://www.w3.org/2000/svg">
<path d="M10.4169 11.6289L8.46265 15.5383L12.3712 13.584L10.4169 11.6289Z" fill="#FF7B52"/>
<path d="M11.6289 10.4172L13.5831 12.3723L15.5374 8.46289L11.6289 10.4172Z" fill="#FF7B52"/>
<path d="M12 0C5.37257 0 0 5.37257 0 12C0 18.6274 5.37257 24 12 24C18.6274 24 24 18.6274 24 12C23.9924 5.37569 18.6243 0.00753348 12 0ZM18.2211 6.92914L14.5851 14.202C14.5019 14.3679 14.3672 14.5024 14.2011 14.5852L6.92829 18.222C6.50476 18.4334 5.98997 18.2614 5.77858 17.8379C5.65819 17.5966 5.65829 17.3128 5.77888 17.0717L9.41489 9.79884C9.49806 9.63291 9.63281 9.49846 9.79889 9.41569L17.0718 5.77883C17.4953 5.56744 18.0101 5.7394 18.2215 6.16294C18.3418 6.40421 18.3417 6.68802 18.2211 6.92914Z" fill="#FF7B52"/>
</svg>
