<svg width="63" height="34" viewBox="0 0 63 34" fill="none" xmlns="http://www.w3.org/2000/svg">
<path d="M35.9644 17.9824H53.9465V24.7257H35.9644V17.9824Z" fill="#B4BBC7"/>
<path d="M35.9644 8.99121H53.9465V15.7345H35.9644V8.99121Z" fill="#B4BBC7"/>
<path d="M62.9375 32.5926V1.12388C62.9375 0.502938 62.4346 0 61.8136 0H1.12388C0.502938 0 0 0.502938 0 1.12388V32.5926C0 33.2136 0.502938 33.7165 1.12388 33.7165H61.8136C62.4346 33.7165 62.9375 33.2136 62.9375 32.5926ZM10.115 6.7433H23.6016V8.99107H10.115V6.7433ZM6.7433 6.7433H8.99107V8.99107H6.7433V6.7433ZM11.2388 26.9732H6.7433V24.7254H11.2388V26.9732ZM31.4688 26.9732H12.3627V24.7254H31.4688V26.9732ZM31.4688 22.4777H6.7433V20.2299H31.4688V22.4777ZM31.4688 17.9821H6.7433V15.7344H31.4688V17.9821ZM31.4688 13.4866H6.7433V11.2388H31.4688V13.4866ZM31.4688 8.99107H24.7254V6.7433H31.4688V8.99107ZM56.1942 25.8493C56.1942 26.4703 55.6913 26.9732 55.0703 26.9732H34.8404C34.2195 26.9732 33.7165 26.4703 33.7165 25.8493V7.86719C33.7165 7.24624 34.2195 6.7433 34.8404 6.7433H55.0703C55.6913 6.7433 56.1942 7.24624 56.1942 7.86719V25.8493Z" fill="#B4BBC7"/>
</svg>
