<svg width="20" height="26" viewBox="0 0 20 26" fill="none" xmlns="http://www.w3.org/2000/svg">
<path d="M14.3203 6.09362H19.206L13.5586 0.446182V5.3319C13.5586 5.75216 13.9 6.09362 14.3203 6.09362Z" fill="#FF7B52"/>
<path d="M2.28516 26H17.5195C18.7796 26 19.8047 24.9749 19.8047 23.7148V7.61719H14.4727C13.2126 7.61719 12.1875 6.59212 12.1875 5.33203V0H2.28516C1.02507 0 0 1.02507 0 2.28516V23.7148C0 24.9749 1.02507 26 2.28516 26Z" fill="#FF7B52"/>
<path fill-rule="evenodd" clip-rule="evenodd" d="M3.26367 11.6458C3.26367 11.1971 3.57148 10.8333 3.95117 10.8333H10.26C10.6397 10.8333 10.9475 11.1971 10.9475 11.6458C10.9475 12.0946 10.6397 12.4583 10.26 12.4583H3.95117C3.57148 12.4583 3.26367 12.0946 3.26367 11.6458Z" fill="white"/>
<path fill-rule="evenodd" clip-rule="evenodd" d="M3.25 17.3333C3.25 16.8846 3.5578 16.5208 3.9375 16.5208H14.4792C14.8589 16.5208 15.1667 16.8846 15.1667 17.3333C15.1667 17.7821 14.8589 18.1458 14.4792 18.1458H3.9375C3.5578 18.1458 3.25 17.7821 3.25 17.3333Z" fill="white"/>
</svg>
