<svg width="56" height="40" viewBox="0 0 56 40" fill="none" xmlns="http://www.w3.org/2000/svg">
<path d="M44 38V34C44 31.8783 43.1571 29.8434 41.6569 28.3431C40.1566 26.8429 38.1217 26 36 26H20C17.8783 26 15.8434 26.8429 14.3431 28.3431C12.8429 29.8434 12 31.8783 12 34V38" stroke="#96AABD" stroke-width="3" stroke-linecap="round" stroke-linejoin="round"/>
<path d="M28 18C32.4183 18 36 14.4183 36 10C36 5.58172 32.4183 2 28 2C23.5817 2 20 5.58172 20 10C20 14.4183 23.5817 18 28 18Z" stroke="#96AABD" stroke-width="3" stroke-linecap="round" stroke-linejoin="round"/>
<path d="M48 24C51.3137 24 54 21.3137 54 18C54 14.6863 51.3137 12 48 12C44.6863 12 42 14.6863 42 18C42 21.3137 44.6863 24 48 24Z" stroke="#96AABD" stroke-width="3" stroke-linecap="round" stroke-linejoin="round"/>
<path d="M8 24C11.3137 24 14 21.3137 14 18C14 14.6863 11.3137 12 8 12C4.68629 12 2 14.6863 2 18C2 21.3137 4.68629 24 8 24Z" stroke="#96AABD" stroke-width="3" stroke-linecap="round" stroke-linejoin="round"/>
</svg>
