<svg width="24" height="24" viewBox="0 0 24 24" fill="none" xmlns="http://www.w3.org/2000/svg">
<path d="M10 6.6V6.8H13.2V6.6C13.2 6.17565 13.0314 5.76869 12.7314 5.46863C12.4313 5.16857 12.0243 5 11.6 5C11.1757 5 10.7687 5.16857 10.4686 5.46863C10.1686 5.76869 10 6.17565 10 6.6ZM9 6.8V6.6C9 5.91044 9.27393 5.24912 9.76152 4.76152C10.2491 4.27393 10.9104 4 11.6 4C12.2896 4 12.9509 4.27393 13.4385 4.76152C13.9261 5.24912 14.2 5.91044 14.2 6.6V6.8H18.7C18.8326 6.8 18.9598 6.85268 19.0536 6.94645C19.1473 7.04021 19.2 7.16739 19.2 7.3C19.2 7.43261 19.1473 7.55979 19.0536 7.65355C18.9598 7.74732 18.8326 7.8 18.7 7.8H17.5332L16.7332 17.3424C16.6724 18.067 16.3416 18.7424 15.8063 19.2346C15.2711 19.7269 14.5704 20 13.8432 20H9.3568C8.62968 19.9999 7.92911 19.7267 7.39392 19.2345C6.85873 18.7423 6.52798 18.067 6.4672 17.3424L5.6672 7.8H4.5C4.36739 7.8 4.24021 7.74732 4.14645 7.65355C4.05268 7.55979 4 7.43261 4 7.3C4 7.16739 4.05268 7.04021 4.14645 6.94645C4.24021 6.85268 4.36739 6.8 4.5 6.8H9ZM7.4636 17.2588C7.50342 17.7335 7.72012 18.176 8.07076 18.4985C8.42141 18.821 8.8804 19 9.3568 19H13.8432C14.3197 19.0001 14.7788 18.8211 15.1295 18.4986C15.4802 18.1761 15.697 17.7336 15.7368 17.2588L16.5296 7.8H6.6704L7.4636 17.2588ZM10.6 10.5C10.6 10.4343 10.5871 10.3693 10.5619 10.3087C10.5368 10.248 10.5 10.1929 10.4536 10.1464C10.4071 10.1 10.352 10.0632 10.2913 10.0381C10.2307 10.0129 10.1657 10 10.1 10C10.0343 10 9.96932 10.0129 9.90866 10.0381C9.848 10.0632 9.79288 10.1 9.74645 10.1464C9.70002 10.1929 9.66319 10.248 9.63806 10.3087C9.61293 10.3693 9.6 10.4343 9.6 10.5V16.3C9.6 16.3657 9.61293 16.4307 9.63806 16.4913C9.66319 16.552 9.70002 16.6071 9.74645 16.6536C9.79288 16.7 9.848 16.7368 9.90866 16.7619C9.96932 16.7871 10.0343 16.8 10.1 16.8C10.1657 16.8 10.2307 16.7871 10.2913 16.7619C10.352 16.7368 10.4071 16.7 10.4536 16.6536C10.5 16.6071 10.5368 16.552 10.5619 16.4913C10.5871 16.4307 10.6 16.3657 10.6 16.3V10.5ZM13.1 10C13.376 10 13.6 10.224 13.6 10.5V16.3C13.6 16.4326 13.5473 16.5598 13.4536 16.6536C13.3598 16.7473 13.2326 16.8 13.1 16.8C12.9674 16.8 12.8402 16.7473 12.7464 16.6536C12.6527 16.5598 12.6 16.4326 12.6 16.3V10.5C12.6 10.224 12.824 10 13.1 10Z" fill="#496684"/>
</svg>
