<svg width="20" height="20" viewBox="0 0 20 20" fill="none" xmlns="http://www.w3.org/2000/svg">
<path d="M16.25 18.75H6.875C6.54348 18.75 6.22554 18.6183 5.99112 18.3839C5.7567 18.1495 5.625 17.8315 5.625 17.5V13.75H6.875V17.5H16.25V3.75H10.625V2.5H16.25C16.5815 2.5 16.8995 2.6317 17.1339 2.86612C17.3683 3.10054 17.5 3.41848 17.5 3.75V17.5C17.5 17.8315 17.3683 18.1495 17.1339 18.3839C16.8995 18.6183 16.5815 18.75 16.25 18.75Z" fill="#96AABD"/>
<path d="M10.625 6.25H15V7.5H10.625V6.25ZM10 9.375H15V10.625H10V9.375ZM9.375 12.5H15V13.75H9.375V12.5ZM5.625 11.875C4.7965 11.874 4.00222 11.5444 3.41639 10.9586C2.83055 10.3728 2.50099 9.5785 2.5 8.75V1.875H3.75V8.75C3.75 9.24728 3.94754 9.72419 4.29917 10.0758C4.65081 10.4275 5.12772 10.625 5.625 10.625C6.12228 10.625 6.59919 10.4275 6.95083 10.0758C7.30246 9.72419 7.5 9.24728 7.5 8.75V3.125C7.5 2.95924 7.43415 2.80027 7.31694 2.68306C7.19973 2.56585 7.04076 2.5 6.875 2.5C6.70924 2.5 6.55027 2.56585 6.43306 2.68306C6.31585 2.80027 6.25 2.95924 6.25 3.125V9.375H5V3.125C5 2.62772 5.19754 2.15081 5.54917 1.79917C5.90081 1.44754 6.37772 1.25 6.875 1.25C7.37228 1.25 7.84919 1.44754 8.20083 1.79917C8.55246 2.15081 8.75 2.62772 8.75 3.125V8.75C8.74901 9.5785 8.41945 10.3728 7.83361 10.9586C7.24778 11.5444 6.4535 11.874 5.625 11.875Z" fill="#96AABD"/>
</svg>
