<svg width="16" height="16" viewBox="0 0 16 16" fill="none" xmlns="http://www.w3.org/2000/svg">
<path d="M7.33333 5.99992H8.66667V4.66658H7.33333M8 13.3333C5.06 13.3333 2.66667 10.9399 2.66667 7.99992C2.66667 5.05992 5.06 2.66659 8 2.66659C10.94 2.66659 13.3333 5.05992 13.3333 7.99992C13.3333 10.9399 10.94 13.3333 8 13.3333ZM8 1.33325C7.12452 1.33325 6.25761 1.50569 5.44878 1.84072C4.63994 2.17575 3.90501 2.66682 3.28596 3.28587C2.03571 4.53612 1.33333 6.23181 1.33333 7.99992C1.33333 9.76803 2.03571 11.4637 3.28596 12.714C3.90501 13.333 4.63994 13.8241 5.44878 14.1591C6.25761 14.4941 7.12452 14.6666 8 14.6666C9.76811 14.6666 11.4638 13.9642 12.714 12.714C13.9643 11.4637 14.6667 9.76803 14.6667 7.99992C14.6667 7.12444 14.4942 6.25753 14.1592 5.4487C13.8242 4.63986 13.3331 3.90493 12.714 3.28587C12.095 2.66682 11.3601 2.17575 10.5512 1.84072C9.74239 1.50569 8.87548 1.33325 8 1.33325ZM7.33333 11.3333H8.66667V7.33325H7.33333V11.3333Z" fill="#E42323"/>
</svg>
