<svg width="10" height="10" viewBox="0 0 10 10" fill="none" xmlns="http://www.w3.org/2000/svg">
<path d="M4.0354 0.65438C4.44727 -0.116869 5.55227 -0.116869 5.96415 0.65438L9.7654 7.76563C9.85447 7.93226 9.89886 8.11913 9.89424 8.30802C9.88962 8.4969 9.83614 8.68137 9.73902 8.84345C9.6419 9.00552 9.50445 9.13968 9.34007 9.23283C9.17568 9.32599 8.98997 9.37497 8.80102 9.375H1.19852C1.00958 9.37497 0.823864 9.32599 0.659479 9.23283C0.495094 9.13968 0.357645 9.00552 0.260526 8.84345C0.163407 8.68137 0.109931 8.4969 0.105308 8.30802C0.100685 8.11913 0.145074 7.93226 0.234148 7.76563L4.0354 0.65438ZM4.99977 3.12501C4.87545 3.12501 4.75622 3.17439 4.66832 3.2623C4.58041 3.35021 4.53102 3.46943 4.53102 3.59376V5.15625C4.53102 5.28058 4.58041 5.3998 4.66832 5.48771C4.75622 5.57562 4.87545 5.625 4.99977 5.625C5.12409 5.625 5.24332 5.57562 5.33123 5.48771C5.41914 5.3998 5.46852 5.28058 5.46852 5.15625V3.59376C5.46852 3.46943 5.41914 3.35021 5.33123 3.2623C5.24332 3.17439 5.12409 3.12501 4.99977 3.12501ZM5.62477 6.875C5.62477 6.70924 5.55892 6.55027 5.44171 6.43306C5.3245 6.31585 5.16553 6.25 4.99977 6.25C4.83401 6.25 4.67504 6.31585 4.55783 6.43306C4.44062 6.55027 4.37477 6.70924 4.37477 6.875C4.37477 7.04077 4.44062 7.19974 4.55783 7.31695C4.67504 7.43416 4.83401 7.5 4.99977 7.5C5.16553 7.5 5.3245 7.43416 5.44171 7.31695C5.55892 7.19974 5.62477 7.04077 5.62477 6.875Z" fill="#E42323"/>
</svg>
