<svg width="80" height="80" viewBox="0 0 80 80" fill="none" xmlns="http://www.w3.org/2000/svg">
<path d="M43 53V59H37V53H43ZM43 21V43H37V21H43ZM1 40C1 18.5503 18.4342 1 40 1C45.1216 1 50.193 2.00876 54.9247 3.9687C59.6564 5.92863 63.9557 8.80135 67.5772 12.4228C71.1986 16.0443 74.0714 20.3436 76.0313 25.0753C77.9912 29.807 79 34.8784 79 40C79 50.3434 74.8911 60.2632 67.5772 67.5772C60.2632 74.8911 50.3434 79 40 79C34.8784 79 29.807 77.9912 25.0753 76.0313C20.3436 74.0714 16.0443 71.1986 12.4228 67.5772C5.10892 60.2632 1 50.3434 1 40ZM16.6655 63.3345C22.8542 69.5232 31.2479 73 40 73C48.7521 73 57.1458 69.5232 63.3345 63.3345C69.5232 57.1458 73 48.7521 73 40C73 31.2479 69.5232 22.8542 63.3345 16.6655C57.1458 10.4768 48.7521 7 40 7C31.2479 7 22.8542 10.4768 16.6655 16.6655C10.4768 22.8542 7 31.2479 7 40C7 48.7521 10.4768 57.1458 16.6655 63.3345Z" fill="#FE1D39" stroke="white" stroke-width="2"/>
</svg>
