<svg width="28" height="28" viewBox="0 0 28 28" fill="none" xmlns="http://www.w3.org/2000/svg">
<path fill-rule="evenodd" clip-rule="evenodd" d="M27.3337 14C27.3337 21.364 21.3643 27.3334 14.0003 27.3334C6.63633 27.3334 0.666992 21.364 0.666992 14C0.666992 6.63602 6.63633 0.666687 14.0003 0.666687C21.3643 0.666687 27.3337 6.63602 27.3337 14ZM9.96033 9.96002C10.1478 9.77275 10.402 9.66757 10.667 9.66757C10.932 9.66757 11.1862 9.77275 11.3737 9.96002L14.0003 12.5867L16.627 9.96002C16.8166 9.78338 17.0673 9.68721 17.3264 9.69179C17.5854 9.69636 17.8326 9.80131 18.0158 9.98452C18.199 10.1677 18.304 10.4149 18.3086 10.674C18.3131 10.9331 18.217 11.1838 18.0403 11.3734L15.4137 14L18.0403 16.6267C18.217 16.8163 18.3131 17.067 18.3086 17.326C18.304 17.5851 18.199 17.8323 18.0158 18.0155C17.8326 18.1987 17.5854 18.3037 17.3264 18.3083C17.0673 18.3128 16.8166 18.2167 16.627 18.04L14.0003 15.4134L11.3737 18.04C11.1841 18.2167 10.9334 18.3128 10.6743 18.3083C10.4152 18.3037 10.168 18.1987 9.98483 18.0155C9.80161 17.8323 9.69666 17.5851 9.69209 17.326C9.68752 17.067 9.78369 16.8163 9.96033 16.6267L12.587 14L9.96033 11.3734C9.77306 11.1859 9.66787 10.9317 9.66787 10.6667C9.66787 10.4017 9.77306 10.1475 9.96033 9.96002Z" fill="#96AABD"/>
</svg>
