<svg width="16" height="16" viewBox="0 0 16 16" fill="none" xmlns="http://www.w3.org/2000/svg">
<path d="M8.66671 11.667C8.66671 11.8438 8.59647 12.0134 8.47145 12.1384C8.34642 12.2634 8.17685 12.3337 8.00004 12.3337C7.82323 12.3337 7.65366 12.2634 7.52864 12.1384C7.40361 12.0134 7.33337 11.8438 7.33337 11.667C7.33337 11.4902 7.40361 11.3206 7.52864 11.1956C7.65366 11.0706 7.82323 11.0003 8.00004 11.0003C8.17685 11.0003 8.34642 11.0706 8.47145 11.1956C8.59647 11.3206 8.66671 11.4902 8.66671 11.667ZM8.50004 6.16699C8.50004 6.03438 8.44736 5.90721 8.35359 5.81344C8.25983 5.71967 8.13265 5.66699 8.00004 5.66699C7.86743 5.66699 7.74026 5.71967 7.64649 5.81344C7.55272 5.90721 7.50004 6.03438 7.50004 6.16699V9.16699C7.50004 9.2996 7.55272 9.42678 7.64649 9.52055C7.74026 9.61431 7.86743 9.66699 8.00004 9.66699C8.13265 9.66699 8.25983 9.61431 8.35359 9.52055C8.44736 9.42678 8.50004 9.2996 8.50004 9.16699V6.16699Z" fill="#E42323"/>
<path d="M6.55727 2.16258C7.19927 1.05258 8.80061 1.05258 9.44261 2.16258L15.4206 12.4986C16.0626 13.6099 15.2606 14.9999 13.9773 14.9999H2.02261C0.738608 14.9999 -0.0627256 13.6099 0.579274 12.4986L6.55727 2.16258ZM8.57727 2.66324C8.51849 2.56224 8.43424 2.47843 8.33293 2.42018C8.23162 2.36192 8.1168 2.33127 7.99994 2.33127C7.88308 2.33127 7.76826 2.36192 7.66695 2.42018C7.56565 2.47843 7.48139 2.56224 7.42261 2.66324L1.44527 12.9992C1.38703 13.1007 1.35643 13.2156 1.35655 13.3326C1.35666 13.4495 1.38749 13.5644 1.44594 13.6657C1.50439 13.7671 1.58842 13.8512 1.68962 13.9099C1.79082 13.9685 1.90564 13.9996 2.02261 13.9999H13.9773C14.0941 13.9995 14.2089 13.9684 14.31 13.9098C14.4111 13.8512 14.495 13.7671 14.5535 13.6659C14.6119 13.5647 14.6428 13.4499 14.643 13.3331C14.6432 13.2162 14.6127 13.1013 14.5546 12.9999L8.57727 2.66324Z" fill="#E42323"/>
</svg>
