<svg width="24" height="24" viewBox="0 0 24 24" fill="none" xmlns="http://www.w3.org/2000/svg">
<rect width="24" height="24" rx="5" fill="#FFF3E8"/>
<path d="M16 9C16 7.93913 15.5786 6.92172 14.8284 6.17157C14.0783 5.42143 13.0609 5 12 5C10.9391 5 9.92172 5.42143 9.17157 6.17157C8.42143 6.92172 8 7.93913 8 9C8 13.6667 6 15 6 15H18C18 15 16 13.6667 16 9Z" stroke="#FF753A" stroke-width="1.5" stroke-linecap="round" stroke-linejoin="round"/>
<path d="M13.1524 17.6667C13.0352 17.8687 12.8669 18.0364 12.6645 18.153C12.4621 18.2696 12.2326 18.331 11.999 18.331C11.7655 18.331 11.536 18.2696 11.3336 18.153C11.1311 18.0364 10.9629 17.8687 10.8457 17.6667" stroke="#FF753A" stroke-width="1.5" stroke-linecap="round" stroke-linejoin="round"/>
</svg>