<svg width="306" height="161" viewBox="0 0 306 161" fill="none" xmlns="http://www.w3.org/2000/svg">
<path d="M69.3452 11.4314H14.9159C13.4379 11.4314 12.2397 12.6309 12.2397 14.1106V70.9619C12.2397 72.4416 13.4379 73.6411 14.9159 73.6411H69.3452C70.8232 73.6411 72.0213 72.4416 72.0213 70.9619V14.1106C72.0213 12.6309 70.8232 11.4314 69.3452 11.4314Z" fill="#F5F5F5"/>
<path d="M42.6781 25.4633C33.548 25.4633 26.1479 32.8716 26.1479 42.0119C26.1479 51.1522 33.548 58.5606 42.6781 58.5606C51.8082 58.5606 59.2083 51.1522 59.2083 42.0119C59.2083 32.8716 51.8082 25.4633 42.6781 25.4633ZM42.9282 51.9303C37.319 51.9303 32.7708 47.377 32.7708 41.7616C32.7708 36.1461 37.319 31.5929 42.9282 31.5929C48.5373 31.5929 53.0855 36.1461 53.0855 41.7616C53.0855 47.377 48.5373 51.9303 42.9282 51.9303Z" fill="#E0E0E0"/>
<path d="M42.9284 25.47C42.9284 27.229 42.9284 29.6038 42.9284 31.5996C48.5376 31.5996 53.079 36.1529 53.079 41.7683C53.079 42.844 52.91 43.8792 52.5991 44.8534L58.5868 46.4772C58.9855 45.0564 59.2017 43.5612 59.2017 42.0186C59.2017 32.9663 51.9369 25.612 42.9216 25.4767L42.9284 25.47Z" fill="#FAFAFA"/>
<path d="M32.7708 41.7617C32.7708 37.6211 35.2443 34.0624 38.7922 32.4793L36.2512 26.7623C30.3177 29.2724 26.1479 35.1584 26.1479 42.012C26.1479 42.242 26.1547 42.4788 26.1682 42.7089H32.8181C32.7911 42.3976 32.7708 42.0864 32.7708 41.7617Z" fill="#EBEBEB"/>
<path d="M42.9279 51.9303C42.1913 51.9303 41.475 51.8491 40.7789 51.7002C40.5221 53.1751 40.0423 56.0302 39.6638 58.2832C40.6437 58.4658 41.6507 58.5605 42.6779 58.5605C50.2604 58.5605 56.6535 53.4458 58.5931 46.4704L52.6055 44.8467C51.3012 48.9534 47.4626 51.9303 42.9279 51.9303Z" fill="#EBEBEB"/>
<path d="M40.7314 42.5868H40.1164V43.3784H39.2716V42.5868H37.251V41.9982L39.0216 39.61H39.9339L38.2917 41.8697H39.2987V41.1661H40.1164V41.8697H40.7314V42.5801V42.5868Z" fill="#E0E0E0"/>
<path d="M40.988 41.4978C40.988 40.2597 41.6774 39.556 42.5964 39.556C43.5155 39.556 44.2049 40.2597 44.2049 41.4978C44.2049 42.7359 43.5223 43.4463 42.5964 43.4463C41.6706 43.4463 40.988 42.7426 40.988 41.4978ZM43.3331 41.4978C43.3331 40.6453 43.0357 40.2867 42.5964 40.2867C42.1572 40.2867 41.8666 40.6385 41.8666 41.4978C41.8666 42.357 42.1639 42.7088 42.5964 42.7088C43.029 42.7088 43.3331 42.357 43.3331 41.4978Z" fill="#E0E0E0"/>
<path d="M44.5701 40.6114C44.5701 39.9755 44.9553 39.5763 45.5027 39.5763C46.0501 39.5763 46.4285 39.9755 46.4285 40.6114C46.4285 41.2474 46.0501 41.6466 45.5027 41.6466C44.9553 41.6466 44.5701 41.2406 44.5701 40.6114ZM45.8946 40.6114C45.8946 40.2055 45.7392 40.0161 45.5027 40.0161C45.2661 40.0161 45.1107 40.2123 45.1107 40.6114C45.1107 41.0106 45.2729 41.2068 45.5027 41.2068C45.7325 41.2068 45.8946 41.0106 45.8946 40.6114ZM47.7396 39.6169H48.3748L45.8068 43.3786H45.1648L47.7328 39.6169H47.7396ZM47.1246 42.384C47.1246 41.7481 47.5098 41.3489 48.0505 41.3489C48.5911 41.3489 48.9831 41.7548 48.9831 42.384C48.9831 43.0132 48.5979 43.4192 48.0505 43.4192C47.5031 43.4192 47.1246 43.0132 47.1246 42.384ZM48.4424 42.384C48.4424 41.9848 48.287 41.7886 48.0505 41.7886C47.8139 41.7886 47.6585 41.9848 47.6585 42.384C47.6585 42.7832 47.8207 42.9794 48.0505 42.9794C48.2802 42.9794 48.4424 42.7832 48.4424 42.384Z" fill="#E0E0E0"/>
<path d="M56.3565 62.7415C56.3565 62.8295 50.2338 62.8972 42.6783 62.8972C35.1228 62.8972 29 62.8295 29 62.7415C29 62.6536 35.1228 62.5859 42.6783 62.5859C50.2338 62.5859 56.3565 62.6536 56.3565 62.7415Z" fill="#E0E0E0"/>
<path d="M50.2608 65.2517C50.2608 65.3396 46.8615 65.4073 42.6716 65.4073C38.4816 65.4073 35.0823 65.3396 35.0823 65.2517C35.0823 65.1637 38.4816 65.0961 42.6716 65.0961C46.8615 65.0961 50.2608 65.1637 50.2608 65.2517Z" fill="#E0E0E0"/>
<path d="M18.2002 18.2308C19.0325 18.2308 19.7072 17.5554 19.7072 16.7221C19.7072 15.8889 19.0325 15.2134 18.2002 15.2134C17.3678 15.2134 16.6931 15.8889 16.6931 16.7221C16.6931 17.5554 17.3678 18.2308 18.2002 18.2308Z" fill="#E0E0E0"/>
<path d="M22.0796 18.2308C22.9119 18.2308 23.5866 17.5554 23.5866 16.7221C23.5866 15.8889 22.9119 15.2134 22.0796 15.2134C21.2472 15.2134 20.5725 15.8889 20.5725 16.7221C20.5725 17.5554 21.2472 18.2308 22.0796 18.2308Z" fill="#E0E0E0"/>
<path d="M27.4726 16.7221C27.4726 17.5543 26.7968 18.2308 25.9655 18.2308C25.1343 18.2308 24.4585 17.5543 24.4585 16.7221C24.4585 15.8899 25.1343 15.2134 25.9655 15.2134C26.7968 15.2134 27.4726 15.8899 27.4726 16.7221Z" fill="#E0E0E0"/>
<path d="M283.974 33.4399C283.913 33.4399 283.839 32.7363 283.744 31.4103C283.717 30.7472 283.656 29.9286 283.474 28.9746C283.325 28.0139 283.19 26.9111 282.832 25.7001C282.298 23.2509 281.19 20.3553 279.432 17.2769C277.669 14.2121 275.107 11.0052 271.607 8.25161C268.119 5.53184 263.706 3.18418 258.584 2.1761C253.495 1.19509 247.737 1.23568 242.216 3.19771C239.438 4.09753 236.749 5.48448 234.268 7.25707C232.984 8.096 231.863 9.1582 230.68 10.173C229.612 11.3097 228.49 12.4125 227.558 13.7047C223.625 18.6977 221.32 25.1791 221.09 31.9042C220.989 38.6427 222.976 45.2256 226.666 50.4013C227.531 51.7341 228.598 52.8978 229.612 54.0818C230.741 55.1575 231.815 56.2671 233.052 57.1669C235.444 59.0613 238.066 60.5768 240.797 61.6119C246.217 63.8445 251.968 64.1625 257.097 63.4251C262.26 62.6606 266.781 60.5362 270.397 57.9855C274.026 55.4078 276.736 52.3295 278.649 49.3526C280.548 46.3622 281.798 43.5275 282.447 41.1054C282.859 39.9146 283.048 38.8186 283.244 37.8646C283.474 36.9175 283.575 36.1056 283.636 35.4426C283.791 34.1233 283.906 33.4264 283.967 33.4264C284.028 33.4264 284.035 34.13 283.994 35.4696C283.994 36.1462 283.94 36.9716 283.764 37.9458C283.622 38.9201 283.48 40.0499 283.109 41.2813C282.541 43.7845 281.358 46.7343 279.48 49.8668C277.587 52.9858 274.85 56.24 271.127 58.9801C267.417 61.6999 262.727 63.9866 257.334 64.8526C251.975 65.6848 245.94 65.4074 240.216 63.1071C237.337 62.0381 234.566 60.4618 232.032 58.4794C230.721 57.539 229.578 56.3686 228.389 55.2387C227.314 54.0006 226.186 52.776 225.267 51.3688C221.354 45.9157 219.232 38.9539 219.347 31.8433C219.583 24.7394 222.036 17.8858 226.206 12.6357C227.193 11.2758 228.382 10.1122 229.518 8.92817C230.761 7.85921 231.957 6.74965 233.316 5.87012C235.944 4.01635 238.783 2.57527 241.716 1.64839C247.541 -0.374529 253.59 -0.354232 258.895 0.73503C264.24 1.85812 268.816 4.37492 272.391 7.2706C275.979 10.1933 278.554 13.5761 280.291 16.7763C282.014 19.9967 283.055 23.0074 283.501 25.531C283.812 26.7758 283.899 27.9124 283.994 28.8935C284.123 29.8677 284.129 30.7066 284.102 31.3764C284.082 32.7228 284.041 33.4196 283.981 33.4196L283.974 33.4399Z" fill="#EBEBEB"/>
<path d="M277.6 13.5016C277.668 13.6031 277.093 14.1037 275.985 14.9291C275.377 15.3689 274.694 15.856 273.93 16.404C273.525 16.6814 273.099 16.9994 272.626 17.2971C272.126 17.561 271.599 17.8316 271.058 18.1157C266.794 20.5852 260.036 23.102 252.318 22.8381C251.359 22.7975 250.412 22.7502 249.48 22.7096C248.561 22.5675 247.648 22.4254 246.756 22.2833C246.31 22.2089 245.864 22.148 245.432 22.0601C245.006 21.9451 244.58 21.83 244.161 21.7218C243.323 21.4918 242.499 21.2956 241.708 21.0385C238.579 19.9492 235.876 18.6773 233.754 17.3715C229.483 14.7871 227.401 12.4326 227.563 12.2838C227.732 12.0876 230.057 14.0564 234.362 16.289C236.498 17.4256 239.16 18.5284 242.188 19.4959C242.952 19.7192 243.749 19.8883 244.553 20.0913C244.959 20.1928 245.364 20.2943 245.776 20.3957C246.195 20.4566 246.621 20.5243 247.047 20.5852C247.898 20.7137 248.77 20.8355 249.649 20.9708C250.541 21.0046 251.44 21.0452 252.352 21.0791C259.691 21.3294 266.192 19.1306 270.504 16.9994C271.058 16.7626 271.585 16.5326 272.092 16.3093C272.579 16.059 273.018 15.7816 273.437 15.5516C274.248 15.105 274.964 14.7059 275.613 14.3541C276.823 13.7113 277.532 13.4001 277.6 13.5016Z" fill="#EBEBEB"/>
<path d="M226.591 52.3023C226.524 52.2008 227.098 51.7001 228.206 50.8747C228.815 50.435 229.497 49.9478 230.261 49.3998C230.666 49.1224 231.092 48.8045 231.565 48.5068C232.065 48.2429 232.592 47.9723 233.133 47.6881C237.397 45.2187 244.155 42.7019 251.873 42.9657C252.833 43.0063 253.779 43.0537 254.711 43.0943C255.631 43.2364 256.543 43.3785 257.435 43.5205C257.881 43.595 258.327 43.6558 258.76 43.7438C259.185 43.8588 259.611 43.9738 260.03 44.0821C260.868 44.3121 261.693 44.5083 262.483 44.7654C265.612 45.8547 268.315 47.1266 270.437 48.4324C274.709 51.0168 276.79 53.3712 276.628 53.5201C276.459 53.7163 274.134 51.7475 269.829 49.5149C267.694 48.3782 265.031 47.2754 262.003 46.308C261.24 46.0847 260.442 45.9155 259.638 45.7126C259.233 45.6111 258.827 45.5096 258.415 45.4081C257.996 45.3472 257.57 45.2796 257.144 45.2187C256.293 45.0901 255.421 44.9684 254.543 44.8331C253.65 44.7992 252.752 44.7586 251.839 44.7248C244.5 44.4745 237.999 46.6733 233.687 48.8045C233.133 49.0413 232.606 49.2713 232.099 49.4945C231.613 49.7449 231.173 50.0223 230.754 50.2523C229.943 50.6988 229.227 51.098 228.578 51.4498C227.368 52.0925 226.659 52.4038 226.591 52.3023Z" fill="#EBEBEB"/>
<path d="M283.96 34.184C283.947 34.6711 269.667 34.7117 252.069 34.2855C234.464 33.8593 220.205 33.1151 220.218 32.6347C220.232 32.1476 234.505 32.107 252.116 32.5332C269.714 32.9595 283.98 33.7037 283.967 34.184H283.96Z" fill="#EBEBEB"/>
<path d="M250.616 64.548C250.129 64.5345 250.088 50.2456 250.514 32.6279C250.94 15.0103 251.683 0.734891 252.163 0.748423C252.65 0.761954 252.69 15.0509 252.265 32.6685C251.839 50.2861 251.095 64.5548 250.616 64.5413V64.548Z" fill="#EBEBEB"/>
<path d="M250.616 64.4941C250.495 64.6768 246.987 62.2953 242.932 56.8963C240.925 54.2036 238.824 50.7329 237.235 46.5382C235.654 42.3571 234.661 37.4249 234.769 32.2357C234.863 27.033 236.168 22.1617 237.986 18.0821C239.804 13.9889 242.088 10.6399 244.21 8.04193C248.501 2.84595 252.042 0.545649 252.164 0.728321C252.333 0.924523 249.13 3.54281 245.19 8.80645C243.243 11.4383 241.135 14.7534 239.472 18.7248C237.803 22.6827 236.614 27.3239 236.526 32.2695C236.424 37.222 237.317 41.9308 238.756 45.9834C240.202 50.0428 242.122 53.4594 243.946 56.1792C247.636 61.6187 250.799 64.2979 250.623 64.4941H250.616Z" fill="#EBEBEB"/>
<path d="M252.873 0.755101C252.994 0.57243 256.502 2.95392 260.557 8.35287C262.564 11.0456 264.666 14.5163 266.254 18.711C267.835 22.8921 268.829 27.8243 268.72 33.0135C268.626 38.2162 267.322 43.0875 265.504 47.1671C263.686 51.2603 261.401 54.6093 259.279 57.2073C254.988 62.4032 251.447 64.7035 251.325 64.5209C251.156 64.3247 254.36 61.7064 258.3 56.4428C260.246 53.8109 262.354 50.4958 264.017 46.5244C265.686 42.5665 266.875 37.9253 266.963 32.9797C267.065 28.0272 266.173 23.3184 264.733 19.2658C263.287 15.2064 261.368 11.7898 259.543 9.07002C255.853 3.63048 252.69 0.951303 252.866 0.755101H252.873Z" fill="#EBEBEB"/>
<path d="M87.7199 21.8571H230.2C233.464 21.8571 236.12 24.5159 236.12 27.7837V143.996C236.12 148.692 232.308 152.508 227.618 152.508H90.9164C86.2263 152.508 82.4148 148.692 82.4148 143.996V27.1681C82.4148 24.2385 84.7936 21.8571 87.7199 21.8571Z" fill="white"/>
<path d="M86.598 21.8571H231.105C233.754 21.8571 235.903 24.0085 235.903 26.6606V37.5871H82.4148V26.045C82.4148 23.7311 84.2868 21.8571 86.598 21.8571Z" fill="#E0E0E0"/>
<path d="M235.904 37.5872C235.904 37.6819 201.586 37.7631 159.267 37.7631C116.949 37.7631 82.6245 37.6819 82.6245 37.5872C82.6245 37.4924 116.935 37.4113 159.267 37.4113C201.6 37.4113 235.904 37.4924 235.904 37.5872Z" fill="#0F547E"/>
<path d="M90.7948 30.0637C90.7948 30.862 90.146 31.5115 89.3486 31.5115C88.5511 31.5115 87.9023 30.862 87.9023 30.0637C87.9023 29.2653 88.5511 28.6158 89.3486 28.6158C90.146 28.6158 90.7948 29.2653 90.7948 30.0637Z" fill="#0F547E"/>
<path d="M95.4242 30.0637C95.4242 30.862 94.7754 31.5115 93.978 31.5115C93.1805 31.5115 92.5317 30.862 92.5317 30.0637C92.5317 29.2653 93.1805 28.6158 93.978 28.6158C94.7754 28.6158 95.4242 29.2653 95.4242 30.0637Z" fill="#0F547E"/>
<path d="M100.135 30.0637C100.135 30.862 99.4859 31.5115 98.6884 31.5115C97.891 31.5115 97.2422 30.862 97.2422 30.0637C97.2422 29.2653 97.891 28.6158 98.6884 28.6158C99.4859 28.6158 100.135 29.2653 100.135 30.0637Z" fill="#0F547E"/>
<path d="M184.745 49.3121C184.745 49.4069 173.662 49.488 159.991 49.488C146.319 49.488 135.236 49.4069 135.236 49.3121C135.236 49.2174 146.319 49.1362 159.991 49.1362C173.662 49.1362 184.745 49.2174 184.745 49.3121Z" fill="#0F547E"/>
<path d="M161.802 59.7715C161.802 59.8662 148.536 59.9474 132.182 59.9474C115.827 59.9474 102.561 59.8662 102.561 59.7715C102.561 59.6768 115.82 59.5956 132.182 59.5956C148.543 59.5956 161.802 59.6768 161.802 59.7715Z" fill="#0F547E"/>
<path d="M161.802 65.3803C161.802 65.475 148.536 65.5562 132.182 65.5562C115.827 65.5562 102.561 65.475 102.561 65.3803C102.561 65.2855 115.82 65.2043 132.182 65.2043C148.543 65.2043 161.802 65.2855 161.802 65.3803Z" fill="#0F547E"/>
<path d="M161.802 70.989C161.802 71.0837 148.536 71.1649 132.182 71.1649C115.827 71.1649 102.561 71.0837 102.561 70.989C102.561 70.8943 115.82 70.8131 132.182 70.8131C148.543 70.8131 161.802 70.8943 161.802 70.989Z" fill="#0F547E"/>
<path d="M161.802 76.5975C161.802 76.6923 148.536 76.7734 132.182 76.7734C115.827 76.7734 102.561 76.6923 102.561 76.5975C102.561 76.5028 115.82 76.4216 132.182 76.4216C148.543 76.4216 161.802 76.5028 161.802 76.5975Z" fill="#0F547E"/>
<path d="M161.802 82.2064C161.802 82.3011 148.536 82.3823 132.182 82.3823C115.827 82.3823 102.561 82.3011 102.561 82.2064C102.561 82.1117 115.82 82.0305 132.182 82.0305C148.543 82.0305 161.802 82.1117 161.802 82.2064Z" fill="#0F547E"/>
<path d="M161.802 97.7875C161.802 97.8822 148.536 97.9634 132.182 97.9634C115.827 97.9634 102.561 97.8822 102.561 97.7875C102.561 97.6928 115.82 97.6116 132.182 97.6116C148.543 97.6116 161.802 97.6928 161.802 97.7875Z" fill="#0F547E"/>
<path d="M161.802 92.1382C161.802 92.2329 148.536 92.3141 132.182 92.3141C115.827 92.3141 102.561 92.2329 102.561 92.1382C102.561 92.0435 115.82 91.9623 132.182 91.9623C148.543 91.9623 161.802 92.0435 161.802 92.1382Z" fill="#0F547E"/>
<path d="M199.7 58.6216C190.861 58.6216 183.704 65.7931 183.704 74.6425C183.704 83.4919 190.868 90.6567 199.7 90.6567C208.533 90.6567 215.697 83.4852 215.697 74.6425C215.697 65.7999 208.533 58.6216 199.7 58.6216ZM199.944 84.2361C194.517 84.2361 190.117 79.8317 190.117 74.399C190.117 68.9662 194.517 64.5618 199.944 64.5618C205.37 64.5618 209.77 68.9662 209.77 74.399C209.77 79.8317 205.37 84.2361 199.944 84.2361Z" fill="#28B2B6"/>
<path d="M190.111 74.3989C190.111 70.3936 192.503 66.9499 195.936 65.4141L193.476 59.8799C187.732 62.3087 183.697 68.0054 183.697 74.6424C183.697 74.8657 183.704 75.0889 183.718 75.3122H190.158C190.131 75.0145 190.117 74.7033 190.117 74.3989H190.111Z" fill="#E0E0E0"/>
<path d="M212.939 94.6955C212.939 94.7767 207.013 94.8443 199.7 94.8443C192.388 94.8443 186.461 94.7767 186.461 94.6955C186.461 94.6143 192.388 94.5466 199.7 94.5466C207.013 94.5466 212.939 94.6143 212.939 94.6955Z" fill="#0F547E"/>
<path d="M207.039 97.1311C207.039 97.2123 203.748 97.28 199.693 97.28C195.638 97.28 192.347 97.2123 192.347 97.1311C192.347 97.0499 195.632 96.9823 199.693 96.9823C203.755 96.9823 207.039 97.0499 207.039 97.1311Z" fill="#0F547E"/>
<path d="M198.545 72.3218V72.978L197.248 76.0158H196.113L197.356 73.1539H196.39V73.7223H195.498V72.3218H198.552H198.545Z" fill="#0F547E"/>
<path d="M201.688 74.825C201.688 75.4812 201.195 76.0834 200.08 76.0834C199.566 76.0834 199.026 75.9548 198.654 75.718L199.026 74.9332C199.323 75.1362 199.695 75.2377 200.046 75.2377C200.397 75.2377 200.634 75.0956 200.634 74.8453C200.634 74.6152 200.478 74.4732 199.918 74.4732H198.917L199.1 72.3149H201.452V73.12H199.965L199.918 73.6613H200.168C201.256 73.6613 201.681 74.1687 201.681 74.8182L201.688 74.825Z" fill="#0F547E"/>
<path d="M201.864 73.2961C201.864 72.6602 202.262 72.2745 202.81 72.2745C203.357 72.2745 203.756 72.6602 203.756 73.2961C203.756 73.9321 203.357 74.3177 202.81 74.3177C202.262 74.3177 201.864 73.9389 201.864 73.2961ZM204.986 72.3219H205.743L203.222 76.0159H202.465L204.986 72.3219ZM203.114 73.2961C203.114 72.924 202.986 72.7752 202.803 72.7752C202.634 72.7752 202.492 72.924 202.492 73.2961C202.492 73.6682 202.634 73.8171 202.803 73.8171C202.986 73.8171 203.114 73.6682 203.114 73.2961ZM204.466 75.0349C204.466 74.3989 204.858 74.0133 205.412 74.0133C205.966 74.0133 206.358 74.3989 206.358 75.0349C206.358 75.6709 205.959 76.0565 205.412 76.0565C204.864 76.0565 204.466 75.6776 204.466 75.0349ZM205.716 75.0349C205.716 74.6628 205.581 74.5139 205.405 74.5139C205.229 74.5139 205.094 74.6628 205.094 75.0349C205.094 75.407 205.229 75.5559 205.405 75.5559C205.581 75.5559 205.716 75.407 205.716 75.0349Z" fill="#0F547E"/>
<path d="M113.502 130.229H108.934V140.763H113.502V130.229Z" fill="#EBEBEB"/>
<path d="M128.999 130.229H124.43V140.763H128.999V130.229Z" fill="#EBEBEB"/>
<path d="M121.247 120.635H116.679V140.762H121.247V120.635Z" fill="#F5F5F5"/>
<path d="M136.743 120.635H132.174V140.762H136.743V120.635Z" fill="#F5F5F5"/>
<path d="M144.495 121.21H139.926V140.763H144.495V121.21Z" fill="#EBEBEB"/>
<path d="M159.991 121.21H155.423V140.763H159.991V121.21Z" fill="#EBEBEB"/>
<path d="M175.487 121.21H170.918V140.763H175.487V121.21Z" fill="#EBEBEB"/>
<path d="M152.246 110.953H147.678V140.769H152.246V110.953Z" fill="#F5F5F5"/>
<path d="M167.743 113.869H163.174V140.762H167.743V113.869Z" fill="#F5F5F5"/>
<path d="M198.377 121.21H193.808V140.763H198.377V121.21Z" fill="#EBEBEB"/>
<path d="M190.632 124.965H186.063V140.763H190.632V124.965Z" fill="#F5F5F5"/>
<path d="M214.582 110.777H210.013V140.762H214.582V110.777Z" fill="#EBEBEB"/>
<path d="M206.837 124.965H202.269V140.763H206.837V124.965Z" fill="#F5F5F5"/>
<path d="M222.341 124.965H217.772V140.763H222.341V124.965Z" fill="#F5F5F5"/>
<path d="M183.239 117.99H178.67V140.763H183.239V117.99Z" fill="#EBEBEB"/>
<path d="M149.583 112.131C150.233 112.131 150.759 111.603 150.759 110.953C150.759 110.303 150.233 109.776 149.583 109.776C148.934 109.776 148.407 110.303 148.407 110.953C148.407 111.603 148.934 112.131 149.583 112.131Z" fill="#28B2B6"/>
<path d="M149.583 113.084C148.407 113.084 147.447 112.124 147.447 110.946C147.447 109.769 148.407 108.808 149.583 108.808C150.759 108.808 151.718 109.769 151.718 110.946C151.718 112.124 150.759 113.084 149.583 113.084ZM149.583 108.984C148.502 108.984 147.623 109.864 147.623 110.946C147.623 112.029 148.502 112.908 149.583 112.908C150.664 112.908 151.543 112.029 151.543 110.946C151.543 109.864 150.664 108.984 149.583 108.984Z" fill="#28B2B6"/>
<path d="M150.516 107.956L150.462 105.642L151.037 105.649L149.955 104.33L148.881 105.663H149.476L149.536 107.949L150.516 107.956Z" fill="#EBEBEB"/>
<path d="M112.515 125.411C112.515 126.061 111.988 126.589 111.339 126.589C110.691 126.589 110.164 126.061 110.164 125.411C110.164 124.762 110.691 124.234 111.339 124.234C111.988 124.234 112.515 124.762 112.515 125.411Z" fill="#28B2B6"/>
<path d="M111.34 127.59C110.164 127.59 109.205 126.629 109.205 125.452C109.205 124.275 110.164 123.314 111.34 123.314C112.516 123.314 113.476 124.275 113.476 125.452C113.476 126.629 112.516 127.59 111.34 127.59ZM111.34 123.49C110.259 123.49 109.38 124.369 109.38 125.452C109.38 126.534 110.259 127.414 111.34 127.414C112.421 127.414 113.3 126.534 113.3 125.452C113.3 124.369 112.421 123.49 111.34 123.49Z" fill="#28B2B6"/>
<path d="M110.63 118.118L110.697 120.527L110.096 120.52L111.218 121.893L112.339 120.506L111.718 120.5L111.657 118.125L110.63 118.118Z" fill="#EBEBEB"/>
<path d="M172.79 113.085L172.851 115.493L172.25 115.486L173.371 116.86L174.493 115.473L173.871 115.466L173.811 113.091L172.79 113.085Z" fill="#EBEBEB"/>
<path d="M186.935 134.41L173.182 121.494C164.464 117.279 151.009 111.075 149.441 111.163C147.684 111.264 114.326 124.437 101.621 129.505L101.371 128.875C103.243 128.131 147.177 110.622 149.4 110.486C149.414 110.486 149.434 110.486 149.448 110.486C151.887 110.486 171.297 119.837 173.52 120.912L173.601 120.973L187.043 133.598C189.591 132.251 204.215 124.532 204.458 124.417C204.546 124.376 204.776 124.282 224.881 124.288V124.965C217.17 124.965 205.58 124.985 204.695 125.053C203.931 125.438 192.963 131.23 187.144 134.308L186.928 134.423L186.935 134.41Z" fill="#28B2B6"/>
<path d="M174.547 120.926C174.547 121.575 174.02 122.103 173.371 122.103C172.722 122.103 172.195 121.575 172.195 120.926C172.195 120.276 172.722 119.749 173.371 119.749C174.02 119.749 174.547 120.276 174.547 120.926Z" fill="#28B2B6"/>
<path d="M173.371 123.104C172.195 123.104 171.236 122.144 171.236 120.966C171.236 119.789 172.195 118.828 173.371 118.828C174.547 118.828 175.507 119.789 175.507 120.966C175.507 122.144 174.547 123.104 173.371 123.104ZM173.371 119.004C172.29 119.004 171.412 119.884 171.412 120.966C171.412 122.049 172.29 122.928 173.371 122.928C174.453 122.928 175.331 122.049 175.331 120.966C175.331 119.884 174.453 119.004 173.371 119.004Z" fill="#28B2B6"/>
<path d="M205.776 124.43C205.776 125.08 205.249 125.607 204.6 125.607C203.951 125.607 203.424 125.08 203.424 124.43C203.424 123.781 203.951 123.253 204.6 123.253C205.249 123.253 205.776 123.781 205.776 124.43Z" fill="#28B2B6"/>
<path d="M204.6 126.609C203.424 126.609 202.465 125.648 202.465 124.471C202.465 123.294 203.424 122.333 204.6 122.333C205.776 122.333 206.736 123.294 206.736 124.471C206.736 125.648 205.776 126.609 204.6 126.609ZM204.6 122.509C203.519 122.509 202.641 123.388 202.641 124.471C202.641 125.553 203.519 126.433 204.6 126.433C205.682 126.433 206.56 125.553 206.56 124.471C206.56 123.388 205.682 122.509 204.6 122.509Z" fill="#28B2B6"/>
<path d="M203.965 117.441L204.026 119.85L203.431 119.843L204.553 121.21L205.668 119.83L205.046 119.823L204.985 117.448L203.965 117.441Z" fill="#EBEBEB"/>
<path d="M228.003 152.508C228.003 152.508 228.125 152.494 228.362 152.481C228.483 152.474 228.632 152.467 228.808 152.453C228.983 152.426 229.193 152.393 229.423 152.359C229.889 152.278 230.463 152.115 231.112 151.858C231.754 151.574 232.47 151.182 233.18 150.586C233.89 149.998 234.579 149.199 235.113 148.191C235.647 147.183 236.005 145.958 236.045 144.612C236.045 141.899 236.045 138.767 236.045 135.242C236.032 121.129 236.012 100.717 235.991 75.4948C235.991 62.8837 235.978 49.0683 235.971 34.2381C235.971 32.3844 235.971 30.517 235.971 28.6294C235.971 27.6823 236.018 26.7418 235.741 25.8555C235.471 24.976 234.978 24.1506 234.295 23.5147C233.619 22.8719 232.781 22.3983 231.862 22.1818C230.957 21.9383 229.983 22.0465 229.01 22.0195C227.064 22.0195 225.111 22.0195 223.138 22.0195C215.244 22.0195 207.128 22.0195 198.795 22.0262C165.478 22.0262 128.856 22.033 90.4097 22.0398C89.2136 22.0533 87.9903 22.0127 86.828 22.0668C85.6791 22.1886 84.5843 22.7501 83.8139 23.6094C83.0367 24.4618 82.5907 25.5985 82.5839 26.7554C82.5839 27.9461 82.5839 29.1369 82.5839 30.3208C82.5839 35.0703 82.5839 39.7927 82.5839 44.4812C82.5839 53.8516 82.5839 63.0934 82.5839 72.1661C82.5839 90.3182 82.5772 107.828 82.5704 124.505C82.5704 128.672 82.5704 132.793 82.5704 136.852C82.5704 138.882 82.5704 140.898 82.5704 142.907C82.5839 143.915 82.5096 144.91 82.7123 145.864C82.8948 146.824 83.253 147.745 83.7598 148.563C84.7735 150.214 86.3955 151.459 88.2201 152.014C89.1392 152.311 90.0853 152.365 91.045 152.359C92.0114 152.359 92.971 152.359 93.9239 152.359C97.749 152.359 101.52 152.359 105.223 152.359C120.037 152.365 133.837 152.372 146.441 152.379C171.635 152.406 192.024 152.42 206.121 152.433C213.163 152.447 218.63 152.46 222.347 152.467C224.199 152.474 225.611 152.481 226.564 152.487C227.517 152.487 228.003 152.508 228.003 152.508C228.003 152.508 227.517 152.521 226.564 152.528C225.611 152.528 224.199 152.535 222.347 152.548C218.637 152.555 213.163 152.568 206.121 152.582C192.024 152.596 171.641 152.616 146.441 152.636C133.844 152.636 120.044 152.65 105.223 152.656C101.52 152.656 97.749 152.656 93.9239 152.656C92.9643 152.656 92.0046 152.656 91.045 152.656C90.0853 152.663 89.0716 152.609 88.1323 152.298C86.2333 151.723 84.5505 150.431 83.4963 148.719C82.9691 147.866 82.5974 146.906 82.4014 145.911C82.192 144.91 82.2663 143.888 82.2528 142.894C82.2528 140.891 82.2528 138.875 82.2528 136.838C82.2528 132.772 82.2528 128.659 82.2528 124.491C82.2528 107.814 82.2528 90.3047 82.2393 72.1526C82.2393 63.0799 82.2393 53.8381 82.2393 44.4677C82.2393 39.7792 82.2393 35.0568 82.2393 30.3073C82.2393 29.1166 82.2393 27.9258 82.2393 26.7351C82.2393 25.497 82.7258 24.2724 83.5571 23.359C84.3816 22.4389 85.5575 21.83 86.7942 21.7082C88.0241 21.6473 89.2 21.6947 90.4097 21.6812C128.856 21.6812 165.478 21.6879 198.795 21.6947C207.121 21.6947 215.244 21.6947 223.138 21.7015C225.111 21.7015 227.071 21.7015 229.01 21.7015H230.463C230.957 21.7015 231.457 21.7421 231.937 21.8706C232.903 22.1006 233.788 22.6013 234.505 23.2779C235.221 23.9544 235.741 24.8204 236.025 25.7541C236.323 26.7013 236.262 27.6823 236.268 28.6159C236.268 30.5035 236.268 32.3708 236.268 34.2246C236.262 49.0548 236.255 62.8701 236.248 75.4812C236.228 100.703 236.208 121.115 236.194 135.228C236.181 138.753 236.174 141.886 236.167 144.605C236.12 145.972 235.748 147.21 235.207 148.225C234.66 149.24 233.957 150.038 233.241 150.633C232.518 151.229 231.788 151.621 231.146 151.905C230.484 152.163 229.909 152.318 229.443 152.393C229.206 152.426 229.004 152.453 228.821 152.481C228.645 152.487 228.49 152.494 228.368 152.501C228.125 152.508 228.003 152.508 228.003 152.508Z" fill="#0F547E"/>
<path d="M243.913 89.9634C244.81 86.1403 242.442 82.3131 238.623 81.415C234.804 80.5169 230.981 82.8881 230.084 86.7111C229.187 90.5341 231.556 94.3613 235.374 95.2594C239.193 96.1575 243.016 93.7864 243.913 89.9634Z" fill="#F5F5F5"/>
<path d="M229.896 88.3496C229.943 88.3496 229.903 88.9856 230.186 90.0681C230.463 91.1303 231.18 92.6931 232.782 93.9042C233.572 94.4928 234.572 94.9934 235.721 95.1896C236.863 95.3791 238.147 95.3452 239.371 94.8717C239.986 94.6552 240.58 94.3304 241.121 93.9245C241.675 93.5253 242.175 93.0246 242.587 92.4496C243.439 91.313 243.919 89.8516 243.932 88.3496C243.919 86.8477 243.439 85.3863 242.587 84.2497C242.175 83.6746 241.675 83.1739 241.121 82.7748C240.574 82.3621 239.986 82.0373 239.371 81.8276C238.147 81.3608 236.863 81.3202 235.721 81.5096C234.572 81.7058 233.579 82.2065 232.782 82.7951C231.18 83.9993 230.47 85.5622 230.186 86.6312C229.903 87.7137 229.943 88.3564 229.896 88.3496C229.896 88.3496 229.808 87.7137 230.051 86.5973C230.295 85.5013 230.991 83.8776 232.626 82.5989C233.437 81.9764 234.464 81.4419 235.66 81.2187C236.85 81.0022 238.188 81.036 239.472 81.5164C240.121 81.7396 240.742 82.0711 241.317 82.4974C241.898 82.9168 242.425 83.4378 242.858 84.0399C243.757 85.2307 244.263 86.7665 244.277 88.3429C244.263 89.926 243.757 91.455 242.858 92.6458C242.425 93.2479 241.898 93.7689 241.317 94.1883C240.742 94.6146 240.121 94.9528 239.472 95.1693C238.188 95.6497 236.843 95.6768 235.66 95.467C234.464 95.2438 233.437 94.716 232.626 94.0868C230.991 92.8081 230.295 91.1844 230.051 90.0884C229.808 88.9721 229.896 88.3361 229.896 88.3361V88.3496Z" fill="#0F547E"/>
<path d="M235.925 90.3656C235.823 90.3656 235.722 90.3182 235.661 90.237C235.546 90.0882 235.573 89.8784 235.722 89.7634L237.547 88.3359L235.702 86.9422C235.553 86.8272 235.526 86.6174 235.634 86.4686C235.749 86.3197 235.959 86.2927 236.107 86.4009L238.304 88.0585C238.385 88.1194 238.439 88.2209 238.439 88.3224C238.439 88.4306 238.391 88.5253 238.31 88.593L236.141 90.2911C236.08 90.3385 236.006 90.3656 235.931 90.3656H235.925Z" fill="#0F547E"/>
<path d="M88.174 90.4009C89.071 86.5778 86.7026 82.7506 82.8838 81.8525C79.0651 80.9544 75.2421 83.3256 74.345 87.1486C73.4479 90.9716 75.8164 94.7988 79.6352 95.6969C83.4539 96.595 87.2769 94.2239 88.174 90.4009Z" fill="#F5F5F5"/>
<path d="M88.3694 88.7757C88.3221 88.7757 88.3626 88.1398 88.0788 87.0573C87.8017 85.9951 87.0854 84.4322 85.4837 83.2212C84.693 82.6326 83.6928 82.1319 82.544 81.9357C81.4018 81.7463 80.1178 81.7801 78.8946 82.2537C78.2796 82.4702 77.6849 82.795 77.1443 83.2009C76.5901 83.6001 76.09 84.1007 75.6778 84.6758C74.8263 85.8124 74.3465 87.2738 74.3329 88.7757C74.3465 90.2777 74.8263 91.7391 75.6778 92.8757C76.09 93.4508 76.5901 93.9514 77.1443 94.3506C77.6917 94.7633 78.2796 95.0881 78.8946 95.2978C80.1178 95.7646 81.4018 95.8052 82.544 95.6158C83.6928 95.4196 84.6862 94.9189 85.4837 94.3303C87.0854 93.126 87.7949 91.5632 88.0788 90.4942C88.3626 89.4117 88.3221 88.769 88.3694 88.7757C88.3694 88.7757 88.4572 89.4117 88.2139 90.528C87.9707 91.6241 87.2746 93.2478 85.6391 94.5265C84.8282 95.1489 83.801 95.6834 82.6048 95.9067C81.4154 96.1232 80.0773 96.0894 78.7932 95.609C78.1445 95.3857 77.5227 95.0542 76.9483 94.628C76.3671 94.2085 75.84 93.6876 75.4075 93.0854C74.5086 91.8947 74.0018 90.3589 73.9883 88.7825C74.0018 87.1994 74.5086 85.6703 75.4075 84.4796C75.84 83.8774 76.3671 83.3565 76.9483 82.937C77.5227 82.5108 78.1445 82.1725 78.7932 81.956C80.0773 81.4757 81.4221 81.4486 82.6048 81.6583C83.801 81.8816 84.8282 82.4093 85.6391 83.0385C87.2746 84.3172 87.9707 85.941 88.2139 87.037C88.4572 88.1533 88.3694 88.7893 88.3694 88.7893V88.7757Z" fill="#0F547E"/>
<path d="M82.3615 90.7919C82.2939 90.7919 82.2196 90.7716 82.1588 90.7242L79.9691 89.0666C79.8881 89.0057 79.834 88.9043 79.834 88.796C79.834 88.6878 79.8813 88.593 79.9624 88.5254L82.1317 86.8272C82.2804 86.7122 82.4899 86.7393 82.6048 86.8881C82.7197 87.037 82.6926 87.2467 82.544 87.3617L80.7193 88.7893L82.5642 90.183C82.7129 90.298 82.7399 90.5077 82.6318 90.6566C82.5642 90.7445 82.4629 90.7919 82.3615 90.7919Z" fill="#0F547E"/>
<path d="M61.5861 104.253H4.15626C1.9579 104.253 0.175781 106.038 0.175781 108.238V143.44C0.175781 145.641 1.9579 147.425 4.15626 147.425H61.5861C63.7844 147.425 65.5665 145.641 65.5665 143.44V108.238C65.5665 106.038 63.7844 104.253 61.5861 104.253Z" fill="white"/>
<path d="M61.5928 147.425C61.5928 147.425 61.7752 147.418 62.1334 147.364C62.4848 147.316 63.0187 147.195 63.6066 146.829C64.1946 146.477 64.8501 145.848 65.2353 144.908C65.6476 143.967 65.4719 142.75 65.5057 141.424C65.4921 136.092 65.4719 128.386 65.4516 118.874C65.4516 116.492 65.4448 114.003 65.4381 111.405C65.4381 110.755 65.4381 110.099 65.4381 109.436C65.4246 108.773 65.4786 108.096 65.357 107.46C65.1002 106.188 64.1405 105.031 62.8497 104.605C62.2145 104.355 61.5252 104.395 60.8088 104.395C60.0992 104.395 59.3829 104.395 58.6598 104.395C57.2135 104.395 55.7471 104.395 54.2603 104.395C51.28 104.395 48.2186 104.395 45.0761 104.402C32.4994 104.402 18.6792 104.409 4.16971 104.416C3.30468 104.416 2.43965 104.72 1.7706 105.268C1.10156 105.816 0.6285 106.587 0.446033 107.426C0.358178 107.846 0.358175 108.272 0.358175 108.725V110.065C0.358175 110.958 0.358175 111.844 0.358175 112.731C0.358175 116.269 0.358175 119.753 0.358175 123.177C0.358175 130.024 0.351414 136.633 0.344656 142.932C0.317624 143.724 0.39197 144.468 0.743388 145.138C1.07453 145.808 1.60165 146.369 2.23691 146.735C2.87216 147.107 3.60203 147.283 4.33866 147.255C5.09556 147.255 5.8457 147.255 6.58909 147.255C9.56938 147.255 12.4618 147.255 15.2529 147.262C20.8418 147.269 26.0522 147.276 30.8099 147.283C40.3117 147.303 48.0023 147.323 53.3344 147.337C55.9836 147.35 58.0448 147.364 59.4572 147.37C60.1533 147.377 60.6804 147.384 61.0521 147.391C61.4103 147.391 61.5928 147.411 61.5928 147.411C61.5928 147.411 61.4103 147.425 61.0521 147.431C60.6804 147.431 60.1533 147.438 59.4572 147.452C58.0448 147.458 55.9836 147.472 53.3344 147.486C48.0091 147.499 40.3117 147.519 30.8099 147.54C26.0522 147.54 20.8485 147.553 15.2529 147.56C12.4551 147.56 9.56262 147.56 6.58909 147.567C5.8457 147.567 5.09556 147.567 4.33866 147.567C3.56824 147.594 2.75728 147.411 2.07472 147.005C1.3854 146.606 0.810963 145.997 0.452787 145.273C0.0675791 144.563 -0.0135132 143.697 0.013519 142.919C0.013519 136.627 0.0135161 130.017 0 123.163C0 119.74 0 116.255 0 112.717C0 111.831 0 110.945 0 110.051V108.712C0 108.272 -4.12881e-07 107.799 0.0946121 107.338C0.290595 106.418 0.810964 105.579 1.54083 104.984C2.2707 104.389 3.21683 104.064 4.16295 104.057C18.6725 104.057 32.4926 104.064 45.0694 104.071C48.2118 104.071 51.28 104.071 54.2535 104.077C55.7403 104.077 57.2068 104.077 58.653 104.077C59.3761 104.077 60.0925 104.077 60.8021 104.077C61.4981 104.077 62.255 104.044 62.9376 104.307C64.323 104.768 65.3502 106.012 65.6273 107.379C65.7557 108.076 65.6949 108.752 65.7084 109.409C65.7084 110.072 65.7084 110.728 65.7084 111.378C65.7084 113.976 65.7016 116.472 65.6949 118.847C65.6746 128.359 65.6543 136.058 65.6408 141.396C65.6408 142.06 65.6408 142.689 65.6341 143.277C65.6341 143.873 65.5327 144.434 65.33 144.915C64.9312 145.882 64.2487 146.511 63.6404 146.856C63.0322 147.215 62.4848 147.33 62.1334 147.364C61.7752 147.404 61.5928 147.384 61.5928 147.384V147.425Z" fill="#0F547E"/>
<path d="M31.9928 129.32H29.4856V139.32H31.9928V129.32Z" fill="#28B2B6"/>
<path d="M11.0365 127.872H8.5293V139.32H11.0365V127.872Z" fill="#28B2B6"/>
<path d="M16.2736 125.484H13.7664V139.313H16.2736V125.484Z" fill="#28B2B6"/>
<path d="M21.5114 126.242H19.0042V139.313H21.5114V126.242Z" fill="#28B2B6"/>
<path d="M26.7555 121.824H24.2483V139.319H26.7555V121.824Z" fill="#28B2B6"/>
<path d="M37.2306 121.905H34.7234V139.313H37.2306V121.905Z" fill="#28B2B6"/>
<path d="M42.4743 127.622H39.967V139.313H42.4743V127.622Z" fill="#28B2B6"/>
<path d="M47.7121 122.676H45.2048V139.319H47.7121V122.676Z" fill="#28B2B6"/>
<path d="M52.9491 118.921H50.4419V139.313H52.9491V118.921Z" fill="#28B2B6"/>
<path d="M58.1942 122.588H55.687V139.319H58.1942V122.588Z" fill="#28B2B6"/>
<path d="M8.7382 110.194C8.7382 111.066 8.0286 111.777 7.15682 111.777C6.28503 111.777 5.57544 111.066 5.57544 110.194C5.57544 109.321 6.28503 108.61 7.15682 108.61C8.0286 108.61 8.7382 109.321 8.7382 110.194Z" fill="#E0E0E0"/>
<path d="M12.8134 110.194C12.8134 111.066 12.1038 111.777 11.232 111.777C10.3602 111.777 9.65063 111.066 9.65063 110.194C9.65063 109.321 10.3602 108.61 11.232 108.61C12.1038 108.61 12.8134 109.321 12.8134 110.194Z" fill="#E0E0E0"/>
<path d="M16.8949 110.194C16.8949 111.066 16.1853 111.777 15.3136 111.777C14.4418 111.777 13.7322 111.066 13.7322 110.194C13.7322 109.321 14.4418 108.61 15.3136 108.61C16.1853 108.61 16.8949 109.321 16.8949 110.194Z" fill="#E0E0E0"/>
<path d="M300.14 72.9849H255.766C252.62 72.9849 250.069 75.5384 250.069 78.6883V154.477C250.069 157.626 252.62 160.18 255.766 160.18H300.14C303.286 160.18 305.837 157.626 305.837 154.477V78.6883C305.837 75.5384 303.286 72.9849 300.14 72.9849Z" fill="white"/>
<path d="M300.139 160.18C300.139 160.18 300.2 160.173 300.315 160.16C300.43 160.146 300.612 160.153 300.842 160.112C301.308 160.051 301.998 159.896 302.809 159.47C303.599 159.03 304.512 158.279 305.133 157.088C305.444 156.499 305.667 155.803 305.742 155.038C305.796 154.274 305.755 153.441 305.762 152.569C305.748 145.573 305.728 135.458 305.708 122.969C305.694 110.466 305.688 95.5888 305.667 79.0672C305.802 77.0307 304.748 74.9808 302.964 73.9321C301.187 72.7819 298.923 73.242 296.787 73.1473C292.469 73.1473 288.056 73.1473 283.569 73.1473C274.587 73.1473 265.288 73.1473 255.766 73.1473C254.61 73.154 253.461 73.5126 252.536 74.1959C251.596 74.859 250.893 75.8332 250.528 76.9157C250.137 77.9914 250.258 79.1754 250.238 80.3459C250.238 81.5163 250.238 82.68 250.238 83.8437C250.238 88.4849 250.238 93.0652 250.238 97.5576C250.238 106.549 250.231 115.223 250.224 123.49C250.224 131.751 250.211 139.606 250.211 146.953C250.211 148.793 250.211 150.593 250.211 152.366C250.224 153.245 250.184 154.145 250.238 154.984C250.312 155.83 250.596 156.642 251.029 157.352C251.88 158.786 253.394 159.747 254.969 159.963C255.752 160.072 256.577 160.018 257.368 160.031C258.165 160.031 258.956 160.031 259.733 160.031C272.215 160.051 282.312 160.072 289.299 160.085C292.786 160.099 295.49 160.112 297.335 160.119C298.247 160.126 298.943 160.133 299.423 160.139C299.896 160.139 300.132 160.16 300.132 160.16C300.132 160.16 299.889 160.173 299.423 160.18C298.943 160.18 298.247 160.187 297.335 160.2C295.49 160.207 292.78 160.221 289.299 160.234C282.312 160.248 272.208 160.268 259.733 160.288C258.956 160.288 258.165 160.288 257.368 160.288C256.57 160.275 255.766 160.336 254.928 160.227C253.272 160.004 251.691 159.003 250.792 157.494C250.339 156.75 250.042 155.897 249.961 155.004C249.907 154.111 249.941 153.252 249.934 152.359C249.934 150.586 249.934 148.78 249.934 146.946C249.934 139.599 249.92 131.744 249.92 123.483C249.92 115.223 249.92 106.549 249.907 97.5508C249.907 93.0517 249.907 88.4781 249.907 83.8369C249.907 82.6732 249.907 81.5096 249.907 80.3391V78.5801C249.913 77.9779 250.028 77.3758 250.218 76.7939C250.603 75.6438 251.353 74.6086 252.346 73.905C253.333 73.1811 254.556 72.7955 255.779 72.7887C265.302 72.7887 274.601 72.7887 283.582 72.7887C288.069 72.7887 292.482 72.7887 296.801 72.7887C297.882 72.7887 298.957 72.7887 300.024 72.7887C301.112 72.7819 302.227 73.0526 303.147 73.6209C304.086 74.1756 304.843 75.0011 305.343 75.9482C305.593 76.4218 305.762 76.936 305.884 77.457C305.978 77.9779 306.019 78.5259 306.005 79.0333C305.992 95.5549 305.978 110.439 305.965 122.935C305.944 135.431 305.924 145.539 305.911 152.535C305.897 153.408 305.938 154.226 305.877 155.011C305.796 155.789 305.559 156.499 305.242 157.095C304.6 158.299 303.667 159.057 302.856 159.49C302.031 159.909 301.329 160.058 300.862 160.106C300.389 160.153 300.153 160.139 300.153 160.139L300.139 160.18Z" fill="#0F547E"/>
<path d="M257.584 82.1725C258.529 82.1725 259.294 81.4062 259.294 80.4608C259.294 79.5155 258.529 78.7491 257.584 78.7491C256.64 78.7491 255.875 79.5155 255.875 80.4608C255.875 81.4062 256.64 82.1725 257.584 82.1725Z" fill="#E0E0E0"/>
<path d="M263.7 80.4608C263.7 81.408 262.936 82.1725 261.99 82.1725C261.044 82.1725 260.28 81.408 260.28 80.4608C260.28 79.5137 261.044 78.7491 261.99 78.7491C262.936 78.7491 263.7 79.5137 263.7 80.4608Z" fill="#E0E0E0"/>
<path d="M266.409 82.1725C267.354 82.1725 268.119 81.4062 268.119 80.4608C268.119 79.5155 267.354 78.7491 266.409 78.7491C265.465 78.7491 264.7 79.5155 264.7 80.4608C264.7 81.4062 265.465 82.1725 266.409 82.1725Z" fill="#E0E0E0"/>
<path d="M297.68 89.4456C297.68 89.5403 288.847 89.6215 277.953 89.6215C267.059 89.6215 258.226 89.5403 258.226 89.4456C258.226 89.3508 267.059 89.2697 277.953 89.2697C288.847 89.2697 297.68 89.3508 297.68 89.4456Z" fill="#0F547E"/>
<path d="M297.68 92.9232C297.68 93.0179 288.847 93.0991 277.953 93.0991C267.059 93.0991 258.226 93.0179 258.226 92.9232C258.226 92.8285 267.059 92.7473 277.953 92.7473C288.847 92.7473 297.68 92.8285 297.68 92.9232Z" fill="#0F547E"/>
<path d="M297.68 96.4008C297.68 96.4955 288.847 96.5767 277.953 96.5767C267.059 96.5767 258.226 96.4955 258.226 96.4008C258.226 96.306 267.059 96.2249 277.953 96.2249C288.847 96.2249 297.68 96.306 297.68 96.4008Z" fill="#0F547E"/>
<path d="M297.68 99.8781C297.68 99.9728 288.847 100.054 277.953 100.054C267.059 100.054 258.226 99.9728 258.226 99.8781C258.226 99.7833 267.059 99.7021 277.953 99.7021C288.847 99.7021 297.68 99.7833 297.68 99.8781Z" fill="#0F547E"/>
<path d="M297.68 103.356C297.68 103.45 288.847 103.532 277.953 103.532C267.059 103.532 258.226 103.45 258.226 103.356C258.226 103.261 267.059 103.18 277.953 103.18C288.847 103.18 297.68 103.261 297.68 103.356Z" fill="#0F547E"/>
<path d="M297.68 106.833C297.68 106.928 288.847 107.009 277.953 107.009C267.059 107.009 258.226 106.928 258.226 106.833C258.226 106.738 267.059 106.657 277.953 106.657C288.847 106.657 297.68 106.738 297.68 106.833Z" fill="#0F547E"/>
<path d="M297.68 133.435C297.68 133.53 288.847 133.611 277.953 133.611C267.059 133.611 258.226 133.53 258.226 133.435C258.226 133.341 267.059 133.26 277.953 133.26C288.847 133.26 297.68 133.341 297.68 133.435Z" fill="#0F547E"/>
<path d="M297.68 137.218C297.68 137.312 288.847 137.393 277.953 137.393C267.059 137.393 258.226 137.312 258.226 137.218C258.226 137.123 267.059 137.042 277.953 137.042C288.847 137.042 297.68 137.123 297.68 137.218Z" fill="#0F547E"/>
<path d="M297.68 141.006C297.68 141.101 288.847 141.182 277.953 141.182C267.059 141.182 258.226 141.101 258.226 141.006C258.226 140.912 267.059 140.831 277.953 140.831C288.847 140.831 297.68 140.912 297.68 141.006Z" fill="#0F547E"/>
<path d="M297.68 144.788C297.68 144.883 288.847 144.964 277.953 144.964C267.059 144.964 258.226 144.883 258.226 144.788C258.226 144.693 267.059 144.612 277.953 144.612C288.847 144.612 297.68 144.693 297.68 144.788Z" fill="#0F547E"/>
<path d="M297.68 148.577C297.68 148.672 288.847 148.753 277.953 148.753C267.059 148.753 258.226 148.672 258.226 148.577C258.226 148.482 267.059 148.401 277.953 148.401C288.847 148.401 297.68 148.482 297.68 148.577Z" fill="#0F547E"/>
<path d="M298.7 111.86C298.7 111.86 298.632 111.86 298.497 111.86C298.362 111.86 298.166 111.86 297.909 111.86C297.389 111.86 296.618 111.86 295.625 111.867C293.631 111.867 290.746 111.874 287.137 111.88C279.913 111.88 269.816 111.894 258.294 111.901L258.361 111.847C258.361 114.113 258.361 116.467 258.361 118.876C258.361 121.359 258.361 123.781 258.361 126.122L258.294 126.075C269.735 126.081 279.764 126.088 286.934 126.095C290.516 126.095 293.381 126.108 295.355 126.108C296.341 126.108 297.098 126.108 297.619 126.115C297.098 126.115 296.341 126.115 295.355 126.122C293.381 126.122 290.516 126.129 286.934 126.135C279.764 126.135 269.735 126.149 258.294 126.156H258.226V126.102C258.226 123.761 258.226 121.339 258.226 118.856C258.226 116.447 258.226 114.093 258.226 111.826V111.772H258.294C269.809 111.779 279.913 111.786 287.137 111.792C290.746 111.792 293.631 111.806 295.625 111.806C296.618 111.806 297.382 111.806 297.909 111.813C298.166 111.813 298.362 111.813 298.497 111.813C298.632 111.813 298.7 111.813 298.7 111.813V111.86Z" fill="#E0E0E0"/>
<path d="M298.7 114.262C298.7 114.262 289.658 114.316 278.5 114.316C267.343 114.316 258.3 114.296 258.3 114.262C258.3 114.228 267.343 114.208 278.5 114.208C289.658 114.208 298.7 114.228 298.7 114.262Z" fill="#E0E0E0"/>
<path d="M298.7 116.231C298.7 116.231 289.658 116.285 278.5 116.285C267.343 116.285 258.3 116.265 258.3 116.231C258.3 116.197 267.343 116.177 278.5 116.177C289.658 116.177 298.7 116.197 298.7 116.231Z" fill="#E0E0E0"/>
<path d="M298.7 118.193C298.7 118.193 289.658 118.247 278.5 118.247C267.343 118.247 258.3 118.227 258.3 118.193C258.3 118.159 267.343 118.139 278.5 118.139C289.658 118.139 298.7 118.159 298.7 118.193Z" fill="#E0E0E0"/>
<path d="M298.7 120.161C298.7 120.161 289.658 120.216 278.5 120.216C267.343 120.216 258.3 120.195 258.3 120.161C258.3 120.128 267.343 120.107 278.5 120.107C289.658 120.107 298.7 120.128 298.7 120.161Z" fill="#E0E0E0"/>
<path d="M298.7 122.13C298.7 122.13 289.658 122.184 278.5 122.184C267.343 122.184 258.3 122.164 258.3 122.13C258.3 122.096 267.343 122.076 278.5 122.076C289.658 122.076 298.7 122.096 298.7 122.13Z" fill="#E0E0E0"/>
<path d="M258.3 124.092C258.3 124.092 267.343 124.038 278.5 124.038C289.658 124.038 298.7 124.058 298.7 124.092C298.7 124.126 289.658 124.146 278.5 124.146C267.343 124.146 258.3 124.126 258.3 124.092Z" fill="#E0E0E0"/>
<path d="M264.024 126.352C264.024 126.352 263.97 123.104 263.97 119.106C263.97 115.107 263.991 111.86 264.024 111.86C264.058 111.86 264.078 115.101 264.078 119.106C264.078 123.111 264.058 126.352 264.024 126.352Z" fill="#E0E0E0"/>
<path d="M269.844 126.352C269.844 126.352 269.79 123.104 269.79 119.106C269.79 115.107 269.81 111.86 269.844 111.86C269.877 111.86 269.898 115.101 269.898 119.106C269.898 123.111 269.877 126.352 269.844 126.352Z" fill="#E0E0E0"/>
<path d="M275.661 126.352C275.661 126.352 275.607 123.104 275.607 119.106C275.607 115.107 275.628 111.86 275.661 111.86C275.695 111.86 275.716 115.101 275.716 119.106C275.716 123.111 275.695 126.352 275.661 126.352Z" fill="#E0E0E0"/>
<path d="M281.48 126.352C281.48 126.352 281.426 123.104 281.426 119.106C281.426 115.107 281.447 111.86 281.48 111.86C281.514 111.86 281.534 115.101 281.534 119.106C281.534 123.111 281.514 126.352 281.48 126.352Z" fill="#E0E0E0"/>
<path d="M287.306 126.352C287.306 126.352 287.252 123.104 287.252 119.106C287.252 115.107 287.272 111.86 287.306 111.86C287.34 111.86 287.36 115.101 287.36 119.106C287.36 123.111 287.34 126.352 287.306 126.352Z" fill="#E0E0E0"/>
<path d="M292.935 126.352C292.935 126.352 292.881 123.104 292.881 119.106C292.881 115.107 292.901 111.86 292.935 111.86C292.969 111.86 292.989 115.101 292.989 119.106C292.989 123.111 292.969 126.352 292.935 126.352Z" fill="#E0E0E0"/>
<path d="M298.754 126.352C298.754 126.352 298.7 123.104 298.7 119.106C298.7 115.107 298.72 111.86 298.754 111.86C298.788 111.86 298.808 115.101 298.808 119.106C298.808 123.111 298.788 126.352 298.754 126.352Z" fill="#E0E0E0"/>
<path d="M264.383 124.092C264.383 124.288 264.227 124.444 264.031 124.444C263.835 124.444 263.68 124.288 263.68 124.092C263.68 123.896 263.835 123.74 264.031 123.74C264.227 123.74 264.383 123.896 264.383 124.092Z" fill="#28B2B6"/>
<path d="M269.843 120.513C270.037 120.513 270.195 120.356 270.195 120.162C270.195 119.967 270.037 119.81 269.843 119.81C269.649 119.81 269.492 119.967 269.492 120.162C269.492 120.356 269.649 120.513 269.843 120.513Z" fill="#28B2B6"/>
<path d="M276.02 122.096C276.02 122.293 275.865 122.448 275.669 122.448C275.473 122.448 275.317 122.293 275.317 122.096C275.317 121.9 275.473 121.745 275.669 121.745C275.865 121.745 276.02 121.9 276.02 122.096Z" fill="#28B2B6"/>
<path d="M281.805 117.949C282.095 118.328 281.663 118.761 281.284 118.47C280.994 118.091 281.426 117.658 281.805 117.949Z" fill="#28B2B6"/>
<path d="M287.684 117.949C287.975 118.328 287.542 118.761 287.164 118.47C286.873 118.091 287.305 117.658 287.684 117.949Z" fill="#28B2B6"/>
<path d="M293.192 121.812C293.482 122.191 293.05 122.624 292.671 122.333C292.381 121.954 292.813 121.528 293.192 121.812Z" fill="#28B2B6"/>
<path d="M270.201 116.231C270.201 116.427 270.046 116.582 269.85 116.582C269.654 116.582 269.499 116.427 269.499 116.231C269.499 116.034 269.654 115.879 269.85 115.879C270.046 115.879 270.201 116.034 270.201 116.231Z" fill="#0F547E"/>
<path d="M264.383 122.13C264.383 122.326 264.227 122.482 264.031 122.482C263.835 122.482 263.68 122.326 263.68 122.13C263.68 121.934 263.835 121.778 264.031 121.778C264.227 121.778 264.383 121.934 264.383 122.13Z" fill="#0F547E"/>
<path d="M293.192 123.835C293.482 124.214 293.05 124.647 292.671 124.356C292.381 123.977 292.813 123.544 293.192 123.835Z" fill="#0F547E"/>
<path d="M287.657 120.162C287.657 120.358 287.501 120.513 287.306 120.513C287.11 120.513 286.954 120.358 286.954 120.162C286.954 119.965 287.11 119.81 287.306 119.81C287.501 119.81 287.657 119.965 287.657 120.162Z" fill="#0F547E"/>
<path d="M281.899 120.107C281.899 120.304 281.744 120.459 281.548 120.459C281.352 120.459 281.196 120.304 281.196 120.107C281.196 119.911 281.352 119.756 281.548 119.756C281.744 119.756 281.899 119.911 281.899 120.107Z" fill="#0F547E"/>
<path d="M261.598 127.759C261.598 127.759 261.348 127.813 261.037 127.813C260.727 127.813 260.477 127.793 260.477 127.759C260.477 127.725 260.727 127.705 261.037 127.705C261.348 127.705 261.598 127.725 261.598 127.759Z" fill="#E0E0E0"/>
<path d="M267.545 127.759C267.545 127.759 267.295 127.813 266.984 127.813C266.673 127.813 266.423 127.793 266.423 127.759C266.423 127.725 266.673 127.705 266.984 127.705C267.295 127.705 267.545 127.725 267.545 127.759Z" fill="#E0E0E0"/>
<path d="M273.493 127.759C273.493 127.759 273.243 127.813 272.932 127.813C272.621 127.813 272.371 127.793 272.371 127.759C272.371 127.725 272.621 127.705 272.932 127.705C273.243 127.705 273.493 127.725 273.493 127.759Z" fill="#E0E0E0"/>
<path d="M279.439 127.759C279.439 127.759 279.189 127.813 278.878 127.813C278.567 127.813 278.317 127.793 278.317 127.759C278.317 127.725 278.567 127.705 278.878 127.705C279.189 127.705 279.439 127.725 279.439 127.759Z" fill="#E0E0E0"/>
<path d="M285.386 127.759C285.386 127.759 285.136 127.813 284.826 127.813C284.515 127.813 284.265 127.793 284.265 127.759C284.265 127.725 284.515 127.705 284.826 127.705C285.136 127.705 285.386 127.725 285.386 127.759Z" fill="#E0E0E0"/>
<path d="M290.706 127.759C290.706 127.759 290.456 127.813 290.145 127.813C289.834 127.813 289.584 127.793 289.584 127.759C289.584 127.725 289.834 127.705 290.145 127.705C290.456 127.705 290.706 127.725 290.706 127.759Z" fill="#E0E0E0"/>
<path d="M296.024 127.759C296.024 127.759 295.774 127.813 295.463 127.813C295.152 127.813 294.902 127.793 294.902 127.759C294.902 127.725 295.152 127.705 295.463 127.705C295.774 127.705 296.024 127.725 296.024 127.759Z" fill="#E0E0E0"/>
<path d="M257.462 126.054C257.462 126.054 257.259 126.108 257.009 126.108C256.759 126.108 256.557 126.088 256.557 126.054C256.557 126.021 256.759 126 257.009 126C257.259 126 257.462 126.021 257.462 126.054Z" fill="#E0E0E0"/>
<path d="M257.462 123.768C257.462 123.768 257.259 123.822 257.009 123.822C256.759 123.822 256.557 123.801 256.557 123.768C256.557 123.734 256.759 123.713 257.009 123.713C257.259 123.713 257.462 123.734 257.462 123.768Z" fill="#E0E0E0"/>
<path d="M257.462 121.481C257.462 121.481 257.259 121.535 257.009 121.535C256.759 121.535 256.557 121.515 256.557 121.481C256.557 121.447 256.759 121.427 257.009 121.427C257.259 121.427 257.462 121.447 257.462 121.481Z" fill="#E0E0E0"/>
<path d="M257.462 119.194C257.462 119.194 257.259 119.248 257.009 119.248C256.759 119.248 256.557 119.228 256.557 119.194C256.557 119.16 256.759 119.14 257.009 119.14C257.259 119.14 257.462 119.16 257.462 119.194Z" fill="#E0E0E0"/>
<path d="M257.462 116.907C257.462 116.907 257.259 116.961 257.009 116.961C256.759 116.961 256.557 116.941 256.557 116.907C256.557 116.873 256.759 116.853 257.009 116.853C257.259 116.853 257.462 116.873 257.462 116.907Z" fill="#E0E0E0"/>
<path d="M257.462 114.621C257.462 114.621 257.259 114.675 257.009 114.675C256.759 114.675 256.557 114.654 256.557 114.621C256.557 114.587 256.759 114.566 257.009 114.566C257.259 114.566 257.462 114.587 257.462 114.621Z" fill="#E0E0E0"/>
<path d="M257.462 112.334C257.462 112.334 257.259 112.388 257.009 112.388C256.759 112.388 256.557 112.367 256.557 112.334C256.557 112.3 256.759 112.28 257.009 112.28C257.259 112.28 257.462 112.3 257.462 112.334Z" fill="#E0E0E0"/>
<path d="M258.26 126.224L258.199 126.041L263.984 124.004L269.83 120.053L275.648 121.988L281.514 118.112L287.387 118.098L287.407 118.118L292.99 122.063L298.396 118.484L298.504 118.646L292.983 122.299L292.929 122.259L287.326 118.294L281.575 118.308L275.682 122.205L269.864 120.27L264.058 124.187L258.26 126.224Z" fill="#28B2B6"/>
<path d="M293.023 124.133L287.326 120.256H281.453L275.581 116.38L269.884 116.326L264.065 122.225H258.3V122.029H263.984L269.802 116.129L275.641 116.183L281.514 120.067H287.387L292.956 123.856L298.517 114.066L298.686 114.167L293.023 124.133Z" fill="#0F547E"/>
</svg>
