<svg width="17" height="14" viewBox="0 0 17 14" fill="none" xmlns="http://www.w3.org/2000/svg">
<path d="M1 1.66528V5.66528H5" stroke="#28B2B6" stroke-width="2" stroke-linecap="round" stroke-linejoin="round"/>
<path d="M15.6641 12.3318V8.33179H11.6641" stroke="#28B2B6" stroke-width="2" stroke-linecap="round" stroke-linejoin="round"/>
<path d="M13.9933 4.99842C13.6552 4.04295 13.0806 3.18869 12.323 2.51537C11.5655 1.84205 10.6497 1.3716 9.66114 1.14793C8.6726 0.924257 7.6435 0.95465 6.66987 1.23627C5.69625 1.51789 4.80983 2.04157 4.09333 2.75842L1 5.66509M15.6667 8.33176L12.5733 11.2384C11.8568 11.9553 10.9704 12.479 9.99679 12.7606C9.02317 13.0422 7.99407 13.0726 7.00552 12.8489C6.01698 12.6252 5.1012 12.1548 4.34364 11.4815C3.58609 10.8082 3.01145 9.9539 2.67333 8.99842" stroke="#28B2B6" stroke-width="2" stroke-linecap="round" stroke-linejoin="round"/>
</svg>
