<svg width="10" height="10" viewBox="0 0 10 10" fill="none" xmlns="http://www.w3.org/2000/svg">
<path d="M4.44 6.84L7.26 4.02L6.7 3.46L4.44 5.72L3.3 4.58L2.74 5.14L4.44 6.84ZM5 9C4.44667 9 3.92667 8.89493 3.44 8.6848C2.95333 8.47467 2.53 8.18973 2.17 7.83C1.81 7.47 1.52507 7.04667 1.3152 6.56C1.10533 6.07333 1.00027 5.55333 1 5C1 4.44667 1.10507 3.92667 1.3152 3.44C1.52533 2.95333 1.81027 2.53 2.17 2.17C2.53 1.81 2.95333 1.52507 3.44 1.3152C3.92667 1.10533 4.44667 1.00027 5 1C5.55333 1 6.07333 1.10507 6.56 1.3152C7.04667 1.52533 7.47 1.81027 7.83 2.17C8.19 2.53 8.47507 2.95333 8.6852 3.44C8.89533 3.92667 9.00027 4.44667 9 5C9 5.55333 8.89493 6.07333 8.6848 6.56C8.47467 7.04667 8.18973 7.47 7.83 7.83C7.47 8.19 7.04667 8.47507 6.56 8.6852C6.07333 8.89533 5.55333 9.00027 5 9Z" fill="#0BC07F"/>
</svg>
