<svg width="16" height="16" viewBox="0 0 16 16" fill="none" xmlns="http://www.w3.org/2000/svg">
<path d="M11.8761 5.26182L8.37606 1.26182C8.28106 1.15382 8.14406 1.09082 8.00006 1.09082C7.85606 1.09082 7.71906 1.15382 7.62406 1.26182L4.12406 5.26182C3.99506 5.40982 3.96306 5.61882 4.04506 5.79782C4.12606 5.97582 4.30406 6.09082 4.50006 6.09082H6.50006V10.409C6.50006 10.685 6.72406 10.909 7.00006 10.909H9.00006C9.27606 10.909 9.50006 10.685 9.50006 10.409V6.09082H11.5001C11.6961 6.09082 11.8741 5.97682 11.9551 5.79782C12.0361 5.61882 12.0061 5.40882 11.8761 5.26182Z" fill="#FF7B52"/>
<path d="M13.5 11V14H2.5V11H0.5V15C0.5 15.553 0.948 16 1.5 16H14.5C15.053 16 15.5 15.553 15.5 15V11H13.5Z" fill="#FF7B52"/>
</svg>
