<svg width="92" height="73" viewBox="0 0 92 73" fill="none" xmlns="http://www.w3.org/2000/svg">
<path d="M76.6526 23.9303C72.4006 6.99158 55.2224 -3.29296 38.2836 0.959056C25.0464 4.28201 15.4347 15.7227 14.4444 29.3345C5.04545 30.8845 -1.31748 39.7603 0.232514 49.1593C1.61039 57.5151 8.85064 63.6344 17.3191 63.6008H31.6925V57.8514H17.3191C10.9686 57.8514 5.82036 52.7032 5.82036 46.3527C5.82036 40.0021 10.9686 34.8539 17.3191 34.8539C18.9068 34.8539 20.1938 33.567 20.1938 31.9792C20.1794 17.6904 31.7513 6.0954 46.0401 6.08121C58.4091 6.06881 69.0568 14.8132 71.4494 26.9485C71.6857 28.1602 72.669 29.0859 73.8929 29.2483C81.7519 30.3674 87.2154 37.6456 86.0965 45.5045C85.0916 52.5615 79.0662 57.8158 71.9381 57.8514H60.4394V63.6008H71.9381C83.0516 63.5672 92.0336 54.5306 91.9998 43.4171C91.9718 34.166 85.6396 26.1257 76.6526 23.9303Z" fill="#CCCCCC"/>
<path d="M44.0249 35.6885L32.5262 47.1873L36.5795 51.2406L43.1913 44.6576V72.2258H48.9406V44.6576L55.5237 51.2406L59.577 47.1873L48.0782 35.6885C46.9569 34.5739 45.1462 34.5739 44.0249 35.6885Z" fill="#CCCCCC"/>
</svg>
