<svg width="80" height="80" viewBox="0 0 80 80" fill="none" xmlns="http://www.w3.org/2000/svg">
<path d="M40 24V46M40 56H40.04M4 40C4 44.7276 4.93117 49.4089 6.74034 53.7766C8.54951 58.1443 11.2012 62.1129 14.5442 65.4558C17.8871 68.7988 21.8557 71.4505 26.2234 73.2597C30.5911 75.0688 35.2724 76 40 76C44.7276 76 49.4089 75.0688 53.7766 73.2597C58.1443 71.4505 62.1129 68.7988 65.4558 65.4558C68.7988 62.1129 71.4505 58.1443 73.2597 53.7766C75.0688 49.4089 76 44.7276 76 40C76 30.4522 72.2072 21.2955 65.4558 14.5442C58.7045 7.79285 49.5478 4 40 4C30.4522 4 21.2955 7.79285 14.5442 14.5442C7.79285 21.2955 4 30.4522 4 40Z" stroke="#E42323" stroke-width="4" stroke-linecap="round" stroke-linejoin="round"/>
</svg>
