<svg width="24" height="15" viewBox="0 0 24 15" fill="none" xmlns="http://www.w3.org/2000/svg">
<path d="M1.78572 13.5723L22.2143 13.5723C22.6482 13.5723 23 13.2205 23 12.7866V1.78655C23 1.35261 22.6482 1.00084 22.2143 1.00084L1.78572 1.00084C1.35178 1.00084 1 1.35261 1 1.78655V12.7866C1 13.2205 1.35178 13.5723 1.78572 13.5723Z" stroke="#96AABD" stroke-width="1.375" stroke-linejoin="round"/>
<path d="M11.9999 11.2146C14.1696 11.2146 15.9284 9.45568 15.9284 7.28599C15.9284 5.1163 14.1696 3.35742 11.9999 3.35742C9.83017 3.35742 8.07129 5.1163 8.07129 7.28599C8.07129 9.45568 9.83017 11.2146 11.9999 11.2146Z" stroke="#96AABD" stroke-width="1.375" stroke-linecap="round" stroke-linejoin="round"/>
<path d="M23 4.92857C21.9581 4.92857 20.9588 4.51467 20.2221 3.77792C19.4853 3.04117 19.0714 2.04192 19.0714 1M1 4.92857C1.51591 4.92857 2.02676 4.82696 2.5034 4.62953C2.98004 4.4321 3.41312 4.14272 3.77792 3.77792C4.14272 3.41312 4.4321 2.98004 4.62953 2.5034C4.82696 2.02676 4.92857 1.51591 4.92857 1M23 9.64286C21.9581 9.64286 20.9588 10.0568 20.2221 10.7935C19.4853 11.5303 19.0714 12.5295 19.0714 13.5714M1 9.64286C1.51591 9.64286 2.02676 9.74447 2.5034 9.9419C2.98004 10.1393 3.41312 10.4287 3.77792 10.7935C4.14272 11.1583 4.4321 11.5914 4.62953 12.068C4.82696 12.5447 4.92857 13.0555 4.92857 13.5714" stroke="#96AABD" stroke-width="1.375" stroke-linecap="round" stroke-linejoin="round"/>
</svg>
