<svg width="29" height="17" viewBox="0 0 29 17" fill="none" xmlns="http://www.w3.org/2000/svg">
<path d="M1.93503 16.0039L26.3148 16.0039C26.8326 16.0039 27.2524 15.5841 27.2524 15.0662V1.93868C27.2524 1.42081 26.8326 1.001 26.3148 1.001L1.93503 1.001C1.41716 1.001 0.997349 1.42081 0.997349 1.93868V15.0662C0.997349 15.5841 1.41716 16.0039 1.93503 16.0039Z" stroke="#96AABD" stroke-width="2" stroke-linejoin="round"/>
<path d="M14.5 12C16.433 12 18 10.433 18 8.5C18 6.567 16.433 5 14.5 5C12.567 5 11 6.567 11 8.5C11 10.433 12.567 12 14.5 12Z" stroke="#96AABD" stroke-width="2" stroke-linecap="round" stroke-linejoin="round"/>
<path d="M27.2527 5.68841C26.0092 5.68841 24.8167 5.19445 23.9374 4.31521C23.0582 3.43596 22.5642 2.24344 22.5642 1M0.997559 5.68841C1.61325 5.68841 2.22291 5.56714 2.79174 5.33153C3.36056 5.09591 3.87741 4.75056 4.31276 4.31521C4.74812 3.87985 5.09347 3.363 5.32908 2.79418C5.5647 2.22535 5.68597 1.61569 5.68597 1M27.2527 11.3145C26.0092 11.3145 24.8167 11.8085 23.9374 12.6877C23.0582 13.567 22.5642 14.7595 22.5642 16.0029M0.997559 11.3145C1.61325 11.3145 2.22291 11.4358 2.79174 11.6714C3.36056 11.907 3.87741 12.2523 4.31276 12.6877C4.74812 13.1231 5.09347 13.6399 5.32908 14.2087C5.5647 14.7776 5.68597 15.3872 5.68597 16.0029" stroke="#96AABD" stroke-width="2" stroke-linecap="round" stroke-linejoin="round"/>
</svg>
