<svg width="163" height="162" viewBox="0 0 163 162" fill="none" xmlns="http://www.w3.org/2000/svg">
<path d="M169.324 143.371H135.276C133.451 143.371 131.972 145.085 131.972 147.198C131.972 149.312 133.451 151.026 135.276 151.026H169.324C171.148 151.026 172.628 149.312 172.628 147.198C172.628 145.085 171.148 143.371 169.324 143.371Z" fill="#FBC64F" stroke="#C39327" stroke-width="0.554222"/>
<path d="M169.324 132.152H135.276C133.451 132.152 131.972 133.866 131.972 135.98C131.972 138.093 133.451 139.807 135.276 139.807H169.324C171.148 139.807 172.628 138.093 172.628 135.98C172.628 133.866 171.148 132.152 169.324 132.152Z" fill="#FBC64F" stroke="#C39327" stroke-width="0.554222"/>
<path d="M122.2 143.371H88.1526C86.3279 143.371 84.8486 145.085 84.8486 147.198C84.8486 149.312 86.3279 151.026 88.1526 151.026H122.2C124.025 151.026 125.504 149.312 125.504 147.198C125.504 145.085 124.025 143.371 122.2 143.371Z" fill="#FBC64F" stroke="#C39327" stroke-width="0.554222"/>
<path d="M75.0784 143.371H41.0305C39.2058 143.371 37.7266 145.085 37.7266 147.198C37.7266 149.312 39.2058 151.026 41.0305 151.026H75.0784C76.9031 151.026 78.3824 149.312 78.3824 147.198C78.3824 145.085 76.9031 143.371 75.0784 143.371Z" fill="#FBC64F" stroke="#C39327" stroke-width="0.554222"/>
<path d="M123.047 130.871H88.9993C87.1746 130.871 85.6953 132.585 85.6953 134.698C85.6953 136.812 87.1746 138.526 88.9993 138.526H123.047C124.872 138.526 126.351 136.812 126.351 134.698C126.351 132.585 124.872 130.871 123.047 130.871Z" fill="#FBC64F" stroke="#C39327" stroke-width="0.554222"/>
<path d="M123.047 119.652H88.9993C87.1746 119.652 85.6953 121.366 85.6953 123.48C85.6953 125.593 87.1746 127.307 88.9993 127.307H123.047C124.872 127.307 126.351 125.593 126.351 123.48C126.351 121.366 124.872 119.652 123.047 119.652Z" fill="#FBC64F" stroke="#C39327" stroke-width="0.554222"/>
<path d="M169.324 120.936H135.276C133.451 120.936 131.972 122.649 131.972 124.763C131.972 126.877 133.451 128.59 135.276 128.59H169.324C171.148 128.59 172.628 126.877 172.628 124.763C172.628 122.649 171.148 120.936 169.324 120.936Z" fill="#FBC64F" stroke="#C39327" stroke-width="0.554222"/>
<path d="M169.324 109.719H135.276C133.451 109.719 131.972 111.432 131.972 113.546C131.972 115.66 133.451 117.373 135.276 117.373H169.324C171.148 117.373 172.628 115.66 172.628 113.546C172.628 111.432 171.148 109.719 169.324 109.719Z" fill="#FBC64F" stroke="#C49327" stroke-width="0.554222"/>
<path d="M169.324 98.5H135.276C133.451 98.5 131.972 100.214 131.972 102.327C131.972 104.441 133.451 106.155 135.276 106.155H169.324C171.148 106.155 172.628 104.441 172.628 102.327C172.628 100.214 171.148 98.5 169.324 98.5Z" fill="#FBC64F" stroke="#C39327" stroke-width="0.554222"/>
<path d="M57.4956 131.981L62.9559 135.466L61.5069 128.898L66.331 124.478L59.9784 123.908L57.4956 117.713L55.0128 123.908L48.6602 124.478L53.4843 128.898L52.0353 135.466L57.4956 131.981Z" fill="#FBC64F"/>
<path d="M104.62 107.3L110.08 110.785L108.631 104.216L113.455 99.7963L107.102 99.2263L104.62 93.0312L102.137 99.2263L95.7842 99.7963L100.608 104.216L99.1593 110.785L104.62 107.3Z" fill="#FBC64F"/>
<path d="M142.579 87.1081L148.039 90.5934L146.59 84.0246L151.414 79.6049L145.061 79.0349L142.579 72.8398L140.096 79.0349L133.743 79.6049L138.567 84.0246L137.118 90.5934L142.579 87.1081Z" fill="#FBC64F"/>
<path opacity="0.05" d="M83.2723 92.273C17.5698 109.855 6.00252 153.811 0.450195 164.916L83.2723 238.484L201.722 216.275C189.692 132.682 165.447 -26.7317 164.706 4.36131C163.781 43.2276 155.504 72.9434 83.2723 92.273Z" fill="#015C8C"/>
</svg>
