<svg width="174" height="162" viewBox="0 0 174 162" fill="none" xmlns="http://www.w3.org/2000/svg">
<path fill-rule="evenodd" clip-rule="evenodd" d="M125.406 93.538C125.406 93.538 148.088 96.1305 154.711 121.524C161.333 146.917 125.406 150.053 108.201 145.657C90.9955 141.261 90.8306 129.336 90.8306 128.477C90.8306 127.618 89.8163 102.35 118.332 93.377" fill="url(#paint0_linear)"/>
<path fill-rule="evenodd" clip-rule="evenodd" d="M126.695 93.4067L134.823 78.0333C134.823 78.0333 136.096 73.6851 132.571 74.1124C129.047 74.5398 127.996 75.5384 123.62 72.6905C119.245 69.8427 116.993 75.7697 115.25 75.4386C113.508 75.1075 108.998 72.9193 108.998 77.7899L118.16 93.4067" fill="url(#paint1_linear)"/>
<path fill-rule="evenodd" clip-rule="evenodd" d="M119.419 95.1917C119.31 95.2808 119.176 95.3888 119.022 95.5115C118.555 95.8818 118.066 96.2521 117.577 96.5989C117.3 96.7954 117.03 96.979 116.77 97.1474C115.616 97.8938 114.749 98.309 114.054 98.2871C114.064 98.3322 114.076 98.3804 114.092 98.4302C114.258 98.9502 114.61 99.2674 114.983 99.2312C115.391 99.1916 116.421 98.5119 117.719 97.405C117.997 97.1682 118.285 96.9143 118.581 96.6458C119.095 96.1801 119.614 95.6878 120.123 95.1895L119.419 95.1917ZM113.676 98.2266C113.666 98.2233 113.655 98.22 113.645 98.2165C113.666 98.2236 113.691 98.2255 113.718 98.223L113.676 98.2266Z" stroke="#FF9861" stroke-width="0.594366"/>
<path d="M128.832 92.2402H115.612C114.858 92.2402 114.247 92.8511 114.247 93.6047C114.247 94.3583 114.858 94.9693 115.612 94.9693H128.832C129.585 94.9693 130.196 94.3583 130.196 93.6047C130.196 92.8511 129.585 92.2402 128.832 92.2402Z" fill="#FF6E3B"/>
<path fill-rule="evenodd" clip-rule="evenodd" d="M118.156 115.712H123.382C123.271 115.009 122.982 114.476 122.515 114.093C121.937 113.603 121.092 113.369 119.98 113.369H117.667L118.134 112.049H128.586L128.141 113.369H124.828C125.362 114.008 125.695 114.775 125.806 115.712H128.608L128.141 117.032H125.762C125.628 117.798 125.317 118.437 124.783 118.97C124.072 119.651 123.115 120.098 121.937 120.333C122.115 120.482 122.471 120.865 122.982 121.482L127.741 127.253H124.45L120.469 122.206C120.091 121.717 119.713 121.355 119.335 121.099C118.89 120.822 118.401 120.673 117.867 120.673V119.119H119.224C120.625 119.119 121.692 118.863 122.404 118.395C122.893 118.054 123.204 117.585 123.338 117.032H117.711L118.156 115.712Z" fill="white"/>
<path d="M170.682 131.723C169.388 129.921 167.465 128.731 165.271 128.371C163.087 128.012 160.874 128.524 159.072 129.813L135.209 146.789H110.279C109.103 146.789 108.145 145.837 108.145 144.663C108.145 143.489 109.103 142.536 110.279 142.536H124.153C128.272 142.536 131.624 139.198 131.624 135.093C131.624 135.07 131.621 134.874 131.619 134.853C131.487 130.751 128.014 127.553 123.982 127.651H96.2155C93.7545 127.672 91.3575 128.55 89.4685 130.12L79.0311 138.775C78.5443 139.181 78.2627 139.778 78.2627 140.41V165.929C78.2627 167.105 79.2189 168.055 80.3971 168.055H133.355C136.821 168.051 140.198 166.834 142.866 164.633L168.742 143.332C172.257 140.837 173.2 135.093 170.682 131.723Z" fill="#FFCE5D"/>
<path d="M78.1919 135.936H61.6284C59.2825 135.936 57.3809 137.837 57.3809 140.183V172.095C57.3809 174.44 59.2825 176.342 61.6284 176.342H78.1919C80.5377 176.342 82.4394 174.44 82.4394 172.095V140.183C82.4394 137.837 80.5377 135.936 78.1919 135.936Z" fill="#002D55"/>
<path opacity="0.05" d="M83.2918 92.273C17.5894 109.855 6.02205 153.811 0.469727 164.916L83.2918 238.484L201.741 216.275C189.711 132.682 165.466 -26.7317 164.726 4.36131C163.8 43.2276 155.523 72.9434 83.2918 92.273Z" fill="#015C8C"/>
<defs>
<linearGradient id="paint0_linear" x1="123.171" y1="93.377" x2="123.171" y2="147.317" gradientUnits="userSpaceOnUse">
<stop stop-color="#B4EC51"/>
<stop offset="1" stop-color="#429321"/>
</linearGradient>
<linearGradient id="paint1_linear" x1="122.023" y1="71.9141" x2="122.023" y2="93.4067" gradientUnits="userSpaceOnUse">
<stop stop-color="#B4EC51"/>
<stop offset="1" stop-color="#429321"/>
</linearGradient>
</defs>
</svg>
