<svg width="174" height="162" viewBox="0 0 174 162" fill="none" xmlns="http://www.w3.org/2000/svg">
<g clip-path="url(#clip0)">
<mask id="mask0" mask-type="alpha" maskUnits="userSpaceOnUse" x="83" y="78" width="94" height="80">
<path d="M125.639 156.095L123.447 154.195C99.3801 133.408 83.4912 119.699 83.4912 102.874C83.4912 89.1642 94.8004 78.3926 109.194 78.3926C117.325 78.3926 125.129 81.998 130.223 87.6954C135.317 81.998 143.121 78.3926 151.253 78.3926C165.646 78.3926 176.955 89.1642 176.955 102.874C176.955 119.699 161.066 133.408 136.999 154.239L134.822 156.112C132.176 158.39 128.277 158.383 125.639 156.095Z" fill="white"/>
</mask>
<g mask="url(#mask0)">
<path d="M125.639 156.095L123.447 154.195C99.3801 133.408 83.4912 119.699 83.4912 102.874C83.4912 89.1642 94.8004 78.3926 109.194 78.3926C117.325 78.3926 125.129 81.998 130.223 87.6954C135.317 81.998 143.121 78.3926 151.253 78.3926C165.646 78.3926 176.955 89.1642 176.955 102.874C176.955 119.699 161.066 133.408 136.999 154.239L134.822 156.112C132.176 158.39 128.277 158.383 125.639 156.095Z" fill="url(#paint0_linear)"/>
<path d="M88.0967 121.45H106.292C107.413 121.45 108.379 120.651 108.599 119.541L111.783 103.442C112.038 102.157 113.277 101.323 114.551 101.579C115.396 101.749 116.081 102.371 116.337 103.201L125.216 131.957C125.602 133.208 126.921 133.907 128.161 133.517C128.867 133.296 129.428 132.753 129.677 132.051L139.108 105.465C139.546 104.231 140.893 103.589 142.116 104.03C142.804 104.279 143.339 104.835 143.563 105.536L148.126 119.805C148.439 120.785 149.344 121.45 150.365 121.45H172.457" stroke="white" stroke-width="1.69913"/>
</g>
</g>
<path opacity="0.05" d="M83.4911 92.273C17.7886 109.855 6.22127 153.811 0.668945 164.916L83.4911 238.484L201.941 216.275C189.911 132.682 165.665 -26.7317 164.925 4.36131C164 43.2276 155.723 72.9434 83.4911 92.273Z" fill="#015C8C"/>
<defs>
<linearGradient id="paint0_linear" x1="130.223" y1="78.3926" x2="130.223" y2="157.816" gradientUnits="userSpaceOnUse">
<stop stop-color="#FF9C65"/>
<stop offset="1" stop-color="#FF6A38"/>
</linearGradient>
<clipPath id="clip0">
<rect x="83.4912" y="78.3926" width="93.4641" height="79.5833" fill="white"/>
</clipPath>
</defs>
</svg>
