<svg width="22" height="26" viewBox="0 0 22 26" fill="none" xmlns="http://www.w3.org/2000/svg">
<path d="M13 1H3.4C2.76348 1 2.15303 1.25286 1.70294 1.70294C1.25286 2.15303 1 2.76348 1 3.4V22.6C1 23.2365 1.25286 23.847 1.70294 24.2971C2.15303 24.7471 2.76348 25 3.4 25H17.8C18.4365 25 19.047 24.7471 19.4971 24.2971C19.9471 23.847 20.2 23.2365 20.2 22.6V8.2L13 1Z" stroke="#496684" stroke-width="2" stroke-linecap="round" stroke-linejoin="round"/>
<path d="M13 1V8.2H20.2" stroke="#496684" stroke-width="2" stroke-linecap="round" stroke-linejoin="round"/>
<path d="M20 14L1 14" stroke="#496684" stroke-width="2" stroke-linecap="round" stroke-linejoin="round"/>
<path d="M6 21.4917V20.8609L7.92116 18.379V18.7424H6V17.8511H8.99755V18.5093L7.17858 20.9158L7.15133 20.6004H9.05886V21.4917H6Z" fill="#496684"/>
<path d="M10.0342 21.4917V17.8511H11.1242V21.4917H10.0342ZM10.5792 17.1312C10.3748 17.1312 10.2136 17.0833 10.0955 16.9873C9.98198 16.8867 9.9252 16.745 9.9252 16.5622C9.9252 16.3976 9.98425 16.2628 10.1023 16.1577C10.2204 16.0526 10.3794 16 10.5792 16C10.7836 16 10.9426 16.0503 11.0561 16.1508C11.1696 16.2468 11.2264 16.3839 11.2264 16.5622C11.2264 16.7313 11.1674 16.8684 11.0493 16.9736C10.9357 17.0787 10.7791 17.1312 10.5792 17.1312Z" fill="#496684"/>
<path d="M12.2326 23V17.8511H13.2681L13.309 18.667L13.1046 18.6053C13.1364 18.4545 13.2136 18.3173 13.3363 18.1939C13.4589 18.0705 13.6133 17.9722 13.7995 17.8991C13.9903 17.8214 14.1901 17.7826 14.399 17.7826C14.7079 17.7826 14.9827 17.8648 15.2234 18.0294C15.4641 18.1894 15.6526 18.411 15.7888 18.6944C15.9296 18.9732 16 19.2977 16 19.668C16 20.0336 15.9296 20.3581 15.7888 20.6415C15.6526 20.9249 15.4618 21.1489 15.2165 21.3134C14.9758 21.4734 14.6988 21.5534 14.3854 21.5534C14.181 21.5534 13.9857 21.5145 13.7995 21.4368C13.6133 21.3591 13.4566 21.254 13.3295 21.1214C13.2023 20.9889 13.1183 20.8449 13.0774 20.6895L13.3295 20.5935V23H12.2326ZM14.1197 20.6278C14.2832 20.6278 14.4263 20.589 14.5489 20.5113C14.6715 20.429 14.7669 20.317 14.835 20.1753C14.9032 20.0336 14.9372 19.8645 14.9372 19.668C14.9372 19.476 14.9032 19.3092 14.835 19.1675C14.7669 19.0212 14.6715 18.9092 14.5489 18.8315C14.4308 18.7493 14.2878 18.7081 14.1197 18.7081C13.9517 18.7081 13.8063 18.747 13.6837 18.8247C13.5611 18.9024 13.4657 19.0144 13.3976 19.1606C13.3295 19.3069 13.2954 19.476 13.2954 19.668C13.2954 19.8645 13.3295 20.0336 13.3976 20.1753C13.4657 20.317 13.5611 20.429 13.6837 20.5113C13.8063 20.589 13.9517 20.6278 14.1197 20.6278Z" fill="#496684"/>
</svg>
