<svg width="22" height="26" viewBox="0 0 22 26" fill="none" xmlns="http://www.w3.org/2000/svg">
<path d="M11.8 1H3.4C2.76348 1 2.15303 1.25286 1.70294 1.70294C1.25286 2.15303 1 2.76348 1 3.4V22.6C1 23.2365 1.25286 23.847 1.70294 24.2971C2.15303 24.7471 2.76348 25 3.4 25H17.8C18.4365 25 19.047 24.7471 19.4971 24.2971C19.9471 23.847 20.2 23.2365 20.2 22.6V9.4M11.8 1L20.2 9.4M11.8 1V9.4H20.2" stroke="#496684" stroke-width="2" stroke-linecap="round" stroke-linejoin="round"/>
<path d="M7.3606 19.9311L5.9021 17.7686L4.03361 15.1102H5.42489L6.84979 17.2452L8.75189 19.9311H7.3606ZM4 19.9311L5.79456 17.3072L6.71537 17.8512L5.32408 19.9311H4ZM6.95733 17.6928L6.04324 17.1694L7.3606 15.1102H8.68468L6.95733 17.6928Z" fill="#496684"/>
<path d="M9.42025 19.9311V15.1102H10.5629V18.8981H12.6599V19.9311H9.42025Z" fill="#496684"/>
<path d="M15.1584 20C14.8492 20 14.5692 19.9633 14.3182 19.8898C14.0718 19.8118 13.8522 19.7016 13.6596 19.5592C13.4669 19.4123 13.2944 19.2401 13.142 19.0427L13.8343 18.2369C14.0584 18.5445 14.2824 18.7511 14.5064 18.8567C14.735 18.9624 14.9702 19.0152 15.2122 19.0152C15.3331 19.0152 15.4429 18.9991 15.5415 18.9669C15.6401 18.9348 15.7163 18.8889 15.77 18.8292C15.8238 18.7649 15.8507 18.6869 15.8507 18.595C15.8507 18.5262 15.8328 18.4642 15.7969 18.4091C15.7655 18.354 15.7207 18.3058 15.6625 18.2645C15.6042 18.2231 15.5348 18.1864 15.4541 18.1543C15.3735 18.1175 15.2883 18.0877 15.1987 18.0647C15.1091 18.0372 15.0172 18.0142 14.9231 17.9959C14.6633 17.9362 14.437 17.8627 14.2443 17.7755C14.0516 17.6882 13.8903 17.5826 13.7604 17.4587C13.6349 17.3301 13.5408 17.1855 13.4781 17.0248C13.4154 16.8595 13.384 16.6758 13.384 16.4738C13.384 16.258 13.431 16.0606 13.5251 15.8815C13.6237 15.6979 13.7537 15.5418 13.915 15.4132C14.0808 15.2801 14.2712 15.1791 14.4863 15.1102C14.7013 15.0367 14.9254 15 15.1584 15C15.4676 15 15.7319 15.0344 15.9515 15.1033C16.1755 15.1676 16.366 15.2617 16.5228 15.3857C16.6841 15.5096 16.8208 15.6589 16.9328 15.8333L16.2271 16.5289C16.133 16.4095 16.0299 16.3108 15.9179 16.2328C15.8103 16.1547 15.6938 16.095 15.5684 16.0537C15.4474 16.0124 15.3219 15.9917 15.192 15.9917C15.0576 15.9917 14.9411 16.0101 14.8425 16.0468C14.7484 16.079 14.6745 16.1272 14.6207 16.1915C14.5669 16.2511 14.54 16.3246 14.54 16.4118C14.54 16.4899 14.5624 16.5565 14.6073 16.6116C14.6521 16.6667 14.7126 16.7172 14.7887 16.7631C14.8649 16.8044 14.9523 16.8411 15.0509 16.8733C15.1494 16.9008 15.2525 16.9238 15.36 16.9421C15.6065 16.9927 15.8283 17.0592 16.0254 17.1419C16.2271 17.2245 16.3996 17.3255 16.543 17.4449C16.6908 17.5643 16.8028 17.7066 16.879 17.8719C16.9597 18.0326 17 18.2208 17 18.4366C17 18.7718 16.9193 19.0565 16.758 19.2906C16.6012 19.5202 16.3839 19.697 16.1061 19.8209C15.8328 19.9403 15.5169 20 15.1584 20Z" fill="#496684"/>
</svg>
